<?xml version="1.0" standalone="no"?>
<!DOCTYPE svg PUBLIC "-//W3C//DTD SVG 1.1//EN" "http://www.w3.org/Graphics/SVG/1.1/DTD/svg11.dtd" >
<svg xmlns="http://www.w3.org/2000/svg" xmlns:xlink="http://www.w3.org/1999/xlink" version="1.1">
<metadata></metadata>
<defs>
<font id="font_headsregular" horiz-adv-x="1056" >
<font-face units-per-em="2048" ascent="1925" descent="-123" />
<missing-glyph horiz-adv-x="1024" />
<glyph horiz-adv-x="0" />
<glyph unicode="&#xd;" horiz-adv-x="1024" />
<glyph unicode=" "  horiz-adv-x="1024" />
<glyph unicode="&#x09;" horiz-adv-x="1024" />
<glyph unicode="&#xa0;" horiz-adv-x="1024" />
<glyph unicode="0" horiz-adv-x="868" d="M764 635h12q14 -25 19 -80q2 -61 12 -84l-4 -72q-43 -2 -115 -30q-78 -29 -117 -33q10 -33 11 -55q0 -74 -107 -74q-12 0 -37.5 2t-36.5 2q57 -47 131 -47q31 0 60 8q27 -16 26 -53q0 -78 -2 -70q-43 -41 -120 -41q-227 0 -254 -4q-18 59 -37 117q-20 72 -23 123 q-6 2 -71 10q-47 4 -56 29q-55 49 -55 73q0 86 55 107l56 18q2 10 2 19q0 49 -33 139t-33 137q0 33 39 53q6 -4 12 -4l29 15q-6 31 -35 81t-33 78q0 4 -4 15.5t-4 17.5q0 16 17 17q29 0 38 -33q16 -53 46 -160q27 6 73 29v6q2 25 -18.5 67.5t-20.5 65.5q-8 6 -8 14 t15.5 27.5t18.5 20.5t9 7.5t10 6.5q12 0 21.5 -30t9.5 -46q0 -14 -4 -44t-4 -44q0 -20 4 -39q18 0 39 14q29 18 37 23q-8 29 -8 65q0 35 16 140q6 8 16 8q4 0 21 -4q2 -23 2 -53q0 -53 -10 -142q10 -4 22 -4q18 0 58 12l-13 29q12 53 27 109q25 78 55 77q18 0 25 -18 q-12 -47 -23 -92q-14 -53 -37 -84q45 -152 60 -270q4 -35 8 -74t37 -39q31 0 87 21.5t87 19.5zM162 303q0 66 -15.5 87.5t-15.5 27.5q-6 2 -12 2q-20 0 -45 -14.5t-25 -32.5q0 -23 34 -49.5t56 -26.5q13 0 23 6zM537 383l206 84l-14 94q-74 -25 -225 -59l-23 127q0 16 -4 47 q-18 143 -18 149q0 29 6 56q-70 -10 -92 -15q-47 -8 -88 -28q-16 -8 -78 -27q-47 -14 -72 -37q0 -117 35 -264q51 -209 61 -272q0 -4 11.5 -39t11.5 -41q0 -23 10 -58q12 -41 15 -57q20 4 147 12q98 8 135 25q6 4 6 8q0 -12 -4 16v5q-74 2 -146.5 43t-115.5 104q2 4 2 8 q0 6 -3 17.5t-3 17.5q0 8 4 12q20 -2 53 -28.5t60 -26.5h16q10 -2 16 -2q66 0 99 33v6q0 12 -10.5 32.5t-10.5 30.5q1 13 13 27zM373 711q27 0 26 -41q0 -14 -16 -21q-23 -10 -25 -12q-10 16 -10 35q0 39 25 39zM270 582q12 0 22.5 -20.5t10.5 -33.5q0 6 -18 -39 q-33 14 -39 50q4 16 24 43z" />
<glyph unicode="1" horiz-adv-x="954" d="M893 483l-8 -26q-31 -20 -90 -41q-70 -27 -95 -39q27 -90 62 -273q-207 -123 -356 -122q0 4 -25 41q-90 145 -107 315q-35 16 -70.5 35.5t-35.5 64.5q0 51 33 90q41 6 41 47q0 12 -5.5 37t-5.5 37q0 20 2 64v65q-37 12 -76.5 27.5t-39.5 56.5q0 35 11 104.5t11 106.5 q0 70 -45 133q-18 47 -74 135q2 8 3 15q0 14 -11.5 36.5t-11.5 39.5q0 35 18 79q27 66 29 74q111 127 199 127q111 0 213 -129q59 -76 59 -211q0 -41 -6 -92q27 -27 92.5 -42t102.5 -58q72 -90 71 -191q0 -25 -10 -65.5t-10 -59.5q0 -12 12 -33q16 -27 18 -32 q35 -107 105 -316zM195 434q10 -20 67 -37q-6 37 -24 111q-43 -29 -43 -74zM246 829q33 29 82 29q29 0 85 -13.5t85 -13.5q37 0 69.5 50.5t65.5 50.5q43 0 82 -43v6q0 23 9 63.5t11 59.5q-20 -2 -61 -10.5t-64 -8.5q-37 0 -65 19h12q27 -2 75 12t73 14q14 0 26 -4 q-12 133 -190 168q-8 -20 -45 -34q-29 -8 -55.5 -18.5t-43.5 -10.5q-14 0 -22 6q18 20 66 38.5t67 35.5q-18 20 -37 41q-10 16 -10 59q0 18 3 54t3 55q0 59 -27 96q-84 127 -194 127q-70 0 -135.5 -77t-65.5 -148q0 -78 86 -191q39 55 43 59q27 27 66 27q29 0 55 -14 q-6 -14 -27 -15q-6 0 -17 2.5t-18 2.5q-29 0 -88 -89q27 -61 27 -127q0 -39 -10 -98q-12 -88 -15 -98q10 -16 48.5 -33t50.5 -29zM633 381q16 41 82 61q78 25 98 47q-45 109 -55 136q-31 80 -43 139q2 -4 2 47q0 55 -76 78q-8 -4 -43 -55.5t-90 -51.5q-25 0 -74 14.5 t-76 14.5q-39 0 -69 -27q-2 -6 2 -12l-6 -8q29 -459 106 -637q4 -8 12 -27q6 -25 15 -47q10 -33 31 -33q8 0 28.5 11.5t116.5 48.5q74 29 113 59q-10 53 -31 99q-43 -51 -127 -52q-98 0 -121 62q4 2 8 2q8 0 21.5 -9.5t17.5 -11.5q18 -6 55 -6q84 0 132 58zM391 1489 q-8 2 -18 2q-23 0 -99 -25q2 20 70 41l21 6h18q47 0 68 -20q-29 -14 -35 -14q-13 0 -25 10zM295 995q37 27 94 29l4 -16q-82 -25 -90 -23h-4zM639 674q25 -6 25 -39q0 -8 -3.5 -28.5t-3.5 -33.5q-29 27 -28 62q0 21 10 39zM489 608q23 -6 23 -30q0 -10 -7 -35t-7 -39 q-4 -2 -6 -2q-8 0 -15.5 12t-9.5 14q-2 12 -2 25q-1 30 24 55z" />
<glyph unicode="2" horiz-adv-x="970" d="M772 1419h4q16 0 46 10.5t46 10.5q29 0 41 -33q-4 -31 -30.5 -61.5t-56 -42t-201.5 -23.5q-16 0 -51 -6t-58 -31q29 -18 115 -45q74 -23 108 -59q106 -106 107 -219q0 -20 -2 -41l-19 -27q6 -147 19 -440q-14 -27 -62 -37q-66 -12 -76 -17q-31 2 -30 -30q0 -4 4 -17 q51 -168 51 -284v-9q-43 -70 -170 -79q-154 -12 -195 -37q-31 29 -51 84l-32 94q-4 10 -27 51q-8 27 -33 74q-94 4 -121 37q-41 47 -41 145q0 59 12.5 82t65.5 57q-10 -2 27 -2q12 0 20 6l-10 183q-4 6 -17.5 6t-17.5 6q4 6 4 12q0 2 -16 27q4 20 2 94q0 59 18 88 q2 33 27 80q31 59 37 76q14 10 51 57q31 37 59 47q-12 8 -22 8t-39 -16t-57 -16q-29 0 -80 20.5t-80 20.5q-2 6 -25 34q-16 23 -16 39q0 18 17.5 32.5t35.5 14.5q12 0 31 -4q121 -18 358 -57q55 45 160 78q137 43 170 59zM121 301q66 -27 69 -27h11q-12 135 -13 154 q0 29 -32 29q-55 0 -56 -80q1 -47 21 -76zM420 1163q-88 -104 -176 -350l186 27q4 70 4 145q0 141 -2 178h-12zM748 907q-39 141 -254 273q2 -12 45 -156q29 -96 28 -158q12 -2 23 -2q33 0 80 17zM752 836q-70 -12 -209 -41q-33 -8 -99 -23q2 0 -12 0q-39 0 -104 -16 q-72 -18 -103 -21q10 -158 23 -315q12 -190 74 -305q12 -47 49 -138q41 10 116 31q14 4 99 10q61 4 86 31v27q2 49 -13 86q-45 -51 -127 -51q-25 0 -49 4q-45 27 -45 55q0 25 17 25q8 0 28.5 -10.5t30.5 -10.5q92 0 131 37v6q0 27 -14.5 71t-14.5 62q0 47 68 68 q88 23 102 37q-2 45 -18 186q-12 115 -8 184zM653 604q-10 0 -14 11.5t-6 13.5q4 20 8 39q4 31 18 30q8 0 15.5 -10t9.5 -12v-8q0 -48 -31 -64zM426 526q4 25 25 49q10 0 18 -16q0 8 0 -39q0 -23 -10 -33h-4q-12 -2 -18.5 12.5t-10.5 26.5z" />
<glyph unicode="3" horiz-adv-x="931" d="M739 1096q84 -6 103 -43q29 -53 28 -209q0 -63 -12 -211q-10 -135 -8 -211q-18 -25 -30.5 -27t-102.5 -2q-41 0 -66 -4l-6 -334q-25 -35 -76 -47q-4 0 -90 -10q-12 -2 -53 -10q-20 -4 -61 -4q-49 0 -86 14l2 8q0 27 -21 62q-18 29 -35 57q0 2 -10 35q-16 49 -49 151 q-47 -20 -76 -20t-49 16q-41 82 -41 135q0 106 94 154v33.5v54.5q2 35 2 53q0 68 -12 113q8 12 31 22q31 14 37 19q18 2 41 18q33 25 39 27t20 8l82 41q225 111 354 109h10q6 12 7 28q0 10 -3.5 33t-3.5 35q0 23 14.5 45t35.5 22q-4 0 38 -6v-4q-2 -4 5 -30 q-18 -27 -36 -55.5t-16 -55.5v-10zM102 367q-6 0 39 14q2 10 2 22q0 10 -18 86q-16 -4 -35.5 -31.5t-19.5 -43.5q-1 -47 32 -47zM778 473q4 14 4 29v10q-2 6 -2 10q0 66 9.5 200t9.5 200q0 16 -5.5 49t-2.5 49q-35 4 -70 4q-135 0 -297 -70q-55 -23 -277 -139q-2 -4 -2 -10 q0 -8 5.5 -18.5t7.5 -14.5q0 -25 4 -72q29 -274 143 -641q18 -6 55 -6q-16 0 52 10q55 4 161 25q-2 57 -2 107q0 135 17 241q33 27 92 29q82 4 98 8zM727 748q-25 -96 -100 -97q-29 0 -64 19q-4 23 -34.5 59.5t-30.5 58.5q0 14 14 39q33 53 121 54q35 0 72 -52 q16 -18 18 -39.5t4 -41.5zM662 793q0 27 -23 26q-37 0 -59 -24q-10 -33 -11 -54q0 -14 4 -24q25 -6 33 -6q56 0 56 82zM639 768q-8 -25 -10 -25q-12 0 -18.5 15.5t-9.5 18.5t-3 7q0 14 14 15q19 0 27 -31zM328 752q55 0 96 -38t41 -93q0 -53 -34 -87t-87 -34q-61 0 -90 43 q-20 47 -41 94q-2 53 49 96q23 19 66 19zM424 639q0 29 -25 45q-25 10 -51 21q-33 2 -62.5 -26t-29.5 -61q0 -18 8 -38q31 -23 74 -23q33 0 59.5 24.5t26.5 57.5zM313 651q6 6 15 6q12 0 24.5 -12t12.5 -22q0 -16 -15 -25q-21 2 -37 53zM430 182q18 18 45 19q25 0 25 -25 q0 -39 -60 -37h-8v6q0 6 -2 14.5t-2 12.5q0 6 2 10zM623 1229q-12 -14 -28.5 -64.5t-39.5 -62.5q-20 37 -20 80q0 86 47 86q6 0 32 -6zM424 1055q-47 49 -47 90q0 25 18 51q14 20 31 43q4 -2 6 -2q8 0 21.5 5t21.5 5q16 0 14 -24q-20 -53 -55 -162zM223 954q-23 2 -45 33 q-31 41 -35 46t-4 9q0 25 34 54.5t38 50.5q6 2 21.5 16.5t27.5 14.5q6 0 12 -2q14 -6 29.5 -12.5t15.5 -20.5q-28 -64 -94 -189z" />
<glyph unicode="4" horiz-adv-x="1185" d="M1016 864q10 -4 59 -6q35 -2 49 -24l-8 -185q-2 -25 -43 -41q-49 -20 -57 -28v-11q0 -35 3 -101.5t3 -98.5q0 -70 -8 -121q-57 -35 -207 -35q-4 0 -15.5 3t-17.5 3q-4 0 -8 -2q-8 -16 -8 -22q0 -23 7 -67t7 -67q0 -74 -63 -98q-90 -35 -217 -35q-178 0 -230 45 q0 41 -6 136q-6 86 -6 133q0 57 6 108q-6 10 -53 10q-16 0 -27 7q-20 10 -43.5 19t-28.5 30q-6 29 -6 76q0 4 8 143q12 4 15.5 21.5t3.5 19.5q20 14 49 57q-31 2 -43 2q-51 0 -65 -51q-4 -49 -10.5 -99t-35.5 -50q-10 0 -20 18q4 61 8 121q10 72 64 94q39 2 125 29 q6 -6 12 -6t16.5 4t16.5 4q4 18 4 41q0 8 -2 23.5t-2 21.5q0 170 90 241q20 0 48 22.5t38 27.5q193 66 389 65q137 0 194 -22q20 -6 23 -41q4 -43 8 -52v-18q0 -37 -8 -109.5t-8 -107.5v-27zM502 1098q-2 -6 -2 -13q0 -14 10 -18q152 37 324 37q53 0 108 -4l16 6q4 6 5 12 q0 14 -11.5 17.5t-132.5 3.5q-194 0 -317 -41zM383 905l-6 -92l6 -6q43 12 72 12q27 0 45 -8q4 0 121 14q68 8 53 9h20q12 -2 21 -3q39 0 113.5 11.5t109.5 13.5q14 12 14 45q0 59 -2 53q-37 2 -110 -8q-41 10 -90 10q-39 0 -115 -9t-113 -9h-14q-10 2 -14 2 q-6 0 -50.5 -16.5t-60.5 -18.5zM268 711q-23 -33 -22 -80l233 -27q2 20 2 47v23q0 70 0 65h-12q-31 0 -100 -16q-62 -16 -101 -12zM250 428q6 12 6 31v24q-2 16 -2 25q0 20 8 35q-39 16 -65 16q-16 0 -29 -6l-2 -31q0 -49 16 -73q64 -21 68 -21zM936 297q-2 18 -2 39 q0 31 6 91t6 91q0 23 -2 43q-25 0 -74 -6t-75 -6q-106 0 -107 80q0 10 2 28v31q0 35 -10 53q-14 0 -40 3.5t-38 3.5q-20 0 -37 -7l-16 -174l-14 -20q-31 -14 -41 -15q-8 0 -15 3q-23 -6 -47 -7q-16 0 -53 5.5t-55 5.5h-13q20 -70 25 -172q-2 14 -2 -177q0 -61 10 -155 q2 -16 16.5 -18.5t28.5 -4.5q-8 0 92 0q137 0 201 47v9q0 35 -14 90q-16 63 -19 88q12 45 78 47q37 -12 82 -12q47 0 127 16zM780 637q23 6 133 16q84 10 127 39l-2 92q-137 -12 -282 -36q4 -39 24 -111zM381 709h6q27 2 27 -17q0 -66 -33 -65l-21 22q1 25 21 60zM580 150 q23 0 22 -27q0 -31 -102 -31q-49 0 -70 25v6q0 16 37 18q-49 -2 51 -2q37 1 62 11zM911 756h9q33 0 32 -27q0 -16 -16 -28.5t-33 -12.5q-18 0 -18 17q0 12 12 27.5t14 23.5z" />
<glyph unicode="5" horiz-adv-x="1052" d="M983 760q2 -4 2 -35q0 -10 3 -30.5t3 -30.5q0 -86 -33 -127q-78 -90 -202 -91q-25 0 -47 5q0 -31 -15 -82q-47 -59 -143 -60q-129 0 -182 99q-10 25 -11 90q0 23 -6 39q-31 -47 -30 -121q0 -98 30 -146q41 -57 160 -57q39 0 55 2q31 16 95 33q8 -6 8 -21q0 -37 -8 -110 q-10 -92 -23 -105q-53 -55 -186 -55q-100 0 -195 43q-31 18 -76 74q-29 63 -30 174q-2 121 -9 143q-8 -4 -16 -4q-37 0 -82 60.5t-45 101.5q0 23 14 43q16 80 92 80q29 0 74 -23q16 41 41 228q20 152 68 190q-4 12 -47 88q-31 53 -31 90q0 39 29 72q27 12 42 59t37 64 q57 43 95 43q10 0 20 -2q2 -8 2 -15q0 -25 -37 -39q-47 -18 -55 -25t-16 -24h20q31 0 37 -16q-10 -57 -12 -64q-14 -33 -49 -32q-29 0 -54 14q-14 -6 -14 -23q0 -29 31.5 -82t56.5 -69q23 0 68 8l-6 90q23 55 28 70q20 35 49 55v10q0 43 45 77t90 34q82 0 82 -55 q0 -20 -22 -41h-4q-12 0 -21 10v8q2 14 -8 23q-82 -2 -104 -54q20 -2 43.5 -5t27.5 -23q-10 -29 -18 -58q-16 -37 -41 -36q-41 0 -55 24q8 10 8 17l-17 14q-37 -23 -36 -80q0 -92 2 -84q23 -6 53 -6q16 0 57 4q4 4 4 14v11q-2 8 -2 12t2 12q53 131 156 164q39 63 123 63 q61 0 92 -51q0 -27 -14 -47q-20 2 -53 19.5t-54 17.5q-10 0 -20 -2q47 -39 47 -84v-12q-2 -8 -2 -13q0 -29 -27 -61q-12 -14 -41 -14q-23 0 -52.5 19.5t-29.5 41.5q0 4 3 12.5t3 12.5t-2 8q-86 -61 -88 -123l90 -12q59 -10 78 -41q8 -14 8 -19q0 -66 -18 -164 q-14 -80 -31 -159q20 -6 41 -6q33 0 96.5 26.5t100.5 26.5h8zM745 1251v-4q2 -2 9 -35q6 -25 20 -24q20 0 21 18q0 45 -2 39q-10 25 -31 25q-19 -1 -17 -19zM555 1294q-6 -2 -6 -8q0 -4 6 -16l2 2q4 8 4 14q0 8 -6 8zM332 1333q-16 -8 -17 -16v-2q4 -6 11 -6q16 0 14 0 q8 6 8 16q0 4 -16 8zM145 444q10 49 27 150q-18 16 -49 16q-25 0 -41 -26.5t-16 -53.5q0 -16 6 -28q50 -60 73 -58zM918 608v62q-86 -35 -140 -35q-88 0 -88 119q0 51 18.5 146t18.5 116l-2 14q-20 2 -67.5 6t-73.5 4h-64q-43 -2 -65 -2q-55 0 -99 6q-35 -8 -56 -62 t-64 -253l-35 -162q-6 -27 -19 -80q-2 -14 -2 -106q0 -209 76 -289q57 -57 199 -57q88 0 159 33q4 31 9 100q-59 -35 -115 -35q-16 0 -35 4q-127 23 -170 119q-29 66 -29 225q0 61 53.5 116.5t114.5 55.5q10 0 11 -14v-6q-63 -55 -64 -92q0 -154 150 -154q57 0 98 29v4 q0 4 -2 12t-2 12q0 53 24 101h9q10 0 29.5 -12.5t31.5 -12.5q111 0 191 88zM438 899q16 0 21 -14q-8 -37 -53 -97q-6 2 -19.5 2.5t-13.5 34.5q0 35 33 60q18 14 32 14zM612 870q18 -2 45 -24q-14 -25 -36 -74q-14 -14 -21 -14l-6 2q-10 12 -10 31q0 8 3 24t6 26.5t19 28.5z " />
<glyph unicode="6" d="M930 713h4q8 0 12 -14.5t6 -16.5q43 -45 43 -78t-37.5 -78t-67.5 -60t-89 -24q-68 -10 -88 -18q0 8 0 -66q0 -57 -33 -77q-23 -14 -88 -15q-74 0 -103 41q-14 10 -31.5 38t-25.5 36q-6 -33 -6 -62q0 -45 16 -88q12 -8 47 -49q27 -35 54 -35q20 0 67 18.5t64 22.5 q8 -20 8 -41q0 -14 -6 -42.5t-6 -41.5q-6 -29 -14.5 -57.5t-43.5 -32.5q-123 -18 -202 -18q-27 0 -33 2q-80 10 -121 90q-12 23 -55 158q-8 18 -19 57l-16 92q-57 -23 -78 -22q-25 0 -43 18l-4 -2q2 2 2 4q0 -6 -14 10q-29 31 -29 113q0 57 25 96q18 27 104 47q6 6 6 13 q0 16 -4 78q-4 53 -4 84q2 45 14 73q-4 4 -4 13q0 10 7.5 27.5t7.5 27.5q0 -2 -27 50t-27 77q0 20 17 39q33 -18 46 -60.5t23 -81.5l68 50q0 6 -12 6q-20 121 -21 110q0 37 21 62q43 -12 49 -66q6 -43 10 -88h6q23 0 46.5 13.5t23.5 33.5t-8.5 56t-8.5 55q0 37 25 61 q41 -12 47 -71q2 -49 6 -99q4 -4 13 -4q6 0 17 5t17 5t17.5 -4t17.5 -4q18 0 19 33q0 20 -12.5 57t-12.5 56q0 27 20 45q72 -59 68 -191q31 -16 76 -20q6 16 6 39q0 16 -4 49t-4 49q0 37 16 59q51 -43 51 -133q0 -33 -8 -75l-6 -9q47 -45 47 -133q0 -33 -9 -98.5t-9 -93.5 q0 -45 -6 -72q114 31 180 72zM55 379q16 -6 33 -6q31 0 62 24q-12 113 -15 183q-55 -10 -76 -27q-27 -20 -26 -70q-1 -43 22 -104zM930 623q0 18 -17 18q10 0 -96 -39q-55 -18 -100 -27q-16 4 -17 23q0 6 2.5 17.5t2.5 17.5t-3 8q-4 152 -4 166q0 96 13 168q-27 33 -133 47 q-68 8 -64 8q-162 0 -326 -147q-6 -41 -6 -88q0 -43 7.5 -130t7.5 -130q0 10 14 -99q51 -401 121 -428q35 -12 82 -12q20 0 172 18q33 4 32 35v66q-27 -6 -57 -6q-74 0 -135 32q-70 90 -70 193l4 28q16 94 66 113q18 -14 61 -102q31 -59 109 -60q72 0 72 39q0 16 -8.5 46 t-8.5 44q0 12 8 25q135 20 185 41q86 35 86 115zM596 842q12 0 25.5 -15.5t13.5 -27.5q0 -31 -33 -31q-27 0 -27 29q1 45 21 45zM385 727q14 -2 29 -20q4 -6 4 -15q0 14 -8 -33q-10 -8 -25 -8l-23 2q-2 8 -2 15q0 41 25 59z" />
<glyph unicode="7" horiz-adv-x="882" d="M801 475v-6q2 -20 -29 -41q-61 -10 -199 -29l11 -39q31 -78 43 -167t22 -175q-39 -43 -139 -53q-78 -2 -156 -6q-45 109 -123 328q-4 12 -47 12q-70 0 -106.5 55.5t-36.5 137.5q0 18 26.5 50.5t47.5 41.5q-2 8 23.5 25.5t25.5 23.5q0 -18 -55 323q-4 20 8 28.5t12 16.5 q0 23 -17.5 65t-17.5 64q0 12 4 23l23 -4q29 -76 35 -145q41 0 118 18q-2 2 -24 63q-12 39 -12 66q0 20 4 41l28 12q45 -98 54 -184q16 -16 43 -16q12 0 33.5 4t33.5 4q-23 43 -22 88q0 31 14 60.5t41 27.5h6q12 -49 12 -101q0 -41 -8 -79q12 -10 23 -11q10 0 20 23.5 t19 30.5q14 33 28.5 69.5t50.5 36.5q6 -29 7 -63q0 -51 -15 -105q6 -12 22.5 -15t33.5 -5q6 123 61 190q25 0 25 -33q0 -12 -4 -20q-2 -18 -17 -68q-12 -41 -12 -67q0 -16 20 -66q20 -55 23 -67q16 -144 39 -363zM219 371q-14 53 -47 174q-20 4 -47 -26t-27 -54 q0 -18 8.5 -51t45.5 -35q59 -6 67 -8zM764 483q-23 102 -45 207q-27 121 -31 209q-152 57 -328 57q-4 0 -9 2.5t-9 2.5h-70q-66 -2 -104 -23q-2 -2 -2 -4q0 -4 12 -16q12 -45 80 -453q45 -274 121 -440l110 8q72 6 107 24v15q0 51 -21 114q-35 -14 -71 -14q-29 0 -88 23 q-68 27 -68 51q0 6 8 10l37 -18q29 -12 39 -13q82 0 127 27q2 8 2 16q0 20 -17.5 62.5t-17.5 60.5q0 43 37 51q23 2 64 7q35 4 71 8q31 6 66 26zM637 725q-2 2 22 2q14 0 15 -25q0 -33 -27 -32h-10q-18 0 -27 20q9 27 27 35zM395 651q18 0 15 -24q2 -4 2 -9q0 -12 -25 -30 h-6q-31 0 -31 26q0 37 45 37z" />
<glyph unicode="8" horiz-adv-x="917" d="M106 354q-18 -6 -38 -6q-18 0 -31 6l-37 64q4 41 10 80q8 51 45 57q14 -2 39 14l-14 164q-14 16 -14 45q0 10 4 37t2 41q20 84 43 168q29 100 96 139q20 12 82.5 16.5t89.5 26.5q4 6 12 60q6 37 25 55q25 12 52.5 25.5t47.5 13.5q23 0 41 -17q-2 -31 -45 -36 q-51 -8 -65.5 -23.5t-18.5 -77.5q-4 -49 -43 -59q-63 -10 -127 -21q-72 -18 -90 -79q-25 -86 -25 -107q0 -14 3 -27q10 6 55 17q37 10 45 33q8 43 18.5 87t69.5 44q16 0 49 -9.5t49 -9.5q47 0 66 78q23 90 55 111q18 2 37 2q92 0 141 -60q0 -14 -20 -26h-6q-20 0 -58.5 18.5 t-56.5 18.5q-31 0 -43 -50q-25 -90 -27 -92q-25 -51 -75 -51q-16 0 -49 10t-50 10q-27 0 -45 -24l2 -27q0 -57 -26 -84q-47 -23 -142 -49q-16 -39 -26 -182q25 -72 39 -221q14 -158 34 -224q35 -119 117 -188q14 2 31 2q16 0 48 -4t48 -4q41 0 64 27l-17 118l-14 15 q-141 8 -176 86v32l4 2q16 0 43.5 -24.5t42.5 -28.5q78 -20 125 -20q23 0 45 4l20 18l-14 138q-10 4 -76 6h-10q-2 16 -14 47q57 12 163 10q115 0 164 6q10 12 11 33q0 10 -3 37q-16 10 -61 10q-31 0 -95.5 -6t-80.5 -6q-10 14 -10 30q0 29 26 50q0 16 -6 69q-4 43 -4 70 q0 76 31 121q4 2 8 2q23 0 22 -25q0 -29 -12 -244q16 -6 45 -6q25 0 77 6.5t71 6.5q33 0 49 -23q-2 -8 -2 -18q0 -16 5 -47t5 -48q0 -66 -84 -75q-68 -2 -135 -2h-23l-8 -11l12 -155q-10 -20 -43 -33q-43 -14 -53 -23q0 -23 9.5 -63.5t9.5 -63.5q0 -70 -103 -69q-23 0 -80 6 q-49 6 -77 4q-68 59 -121 156q-18 35 -33 98q-19 88 -21 98zM47 455q0 -43 31 -43q16 0 24 14l-6 70q-6 6 -16 6q-33 0 -33 -47zM477 924q-12 0 -21.5 -3t-39.5 -38q-25 -27 -43 -27q-6 0 -13 4q8 12 16.5 41t29 50.5t45.5 25.5h57q45 0 63 29l-2 6q-2 35 62 78q16 4 35 4 q41 0 69 -21q-4 -4 -4 -8t5 -11t5 -12q0 -8 -10 -8q-12 0 -34.5 6.5t-34.5 6.5q-27 0 -50 -52q-25 -57 -42 -64t-93 -7zM434 659v9q0 10 7.5 33.5t4.5 37.5q27 -2 27 -49q0 -31 -27 -31h-12zM262 586q4 4 8 49q4 39 13 39q8 0 22 -29q2 4 2 -24q0 -35 -20 -35h-25z" />
<glyph unicode="9" horiz-adv-x="1232" d="M823 1509q92 0 250 -110q18 -10 55 -37q43 -35 43 -123q0 -41 -6 -63q-23 -84 -116 -148q-82 -53 -179 -74q-16 -2 -51 -8q-123 -29 -149 -28h-11l-8 -13q0 -76 23 -225q12 -6 28 -6q18 0 80 31.5t82 35.5q18 -18 29 -65q8 -37 18 -74q12 -47 13 -70q0 -12 -4 -24 l-33 -23l-193 -39q-14 -16 -14 -43q0 -8 2 -25.5t2 -25.5q0 -88 -145 -88q-27 0 -58 4q49 -51 131 -51q33 0 66 10l16 -20q-4 -16 -2 -94q0 -59 -14 -93q-33 -31 -94 -30q-16 0 -50 2t-51 2q12 0 -38 3t-142 28q-8 39 -29 81q-6 10 -14 27q-14 39 -41 117q-4 10 -45 10 q-12 0 -18 5t-23 16q-72 49 -72 88q0 23 31 65q-92 141 -92 334q0 170 51 258q29 47 94 76q59 25 119 24q49 0 76 -8q41 -12 59 -12q33 0 78 14q39 10 76 23l78 53l51 86q2 195 94 223q14 4 47 4zM197 297v33q0 -6 -4 16q-8 59 -27 60q-10 0 -27 -13q-31 -2 -30 -35 q0 -27 28.5 -44t55.5 -17h4zM164 715q-14 -23 -14 -64v-20q14 -10 22 -39t21 -39q0 31 -13.5 84t-15.5 78zM733 618q-6 2 -14 3q-12 0 -34.5 -8.5t-35.5 -8.5q-20 0 -33 31l2 29q0 4 -16 237l-178 8q-10 -12 -27 -12q-6 0 -17 2t-18 2q-18 0 -26 -16l33 -305l-13 -29 q-18 0 -52 -18.5t-52 -18.5q-20 0 -35 21h-6q-6 0 -12 -5q35 -125 67 -249q55 -193 94 -222q125 -16 211 -16q61 0 74 23q6 12 6 84q0 18 -30 18q-6 0 -21.5 -2t-21.5 -2q-57 0 -121 47q-51 41 -105 82q0 10 -8 28.5t-8 28.5q0 4 4 10q31 -2 102 -24q66 -18 105 -19 q51 0 90 29q4 23 4 51q0 20 -4 54q-2 6 -8 17t-6 15q0 10 10 15q4 0 80 12q111 18 164 35l2 10q0 27 -35 96q-37 -10 -111 -33zM1087 1225q0 68 -32 102q-6 4 -37 25q-98 68 -193 67q-20 0 -41 -4q-37 -31 -36 -72q0 -4 2 -14v-14q0 -88 -97 -193q-59 -63 -196 -63 q-25 0 -76 2t-78 2q-164 0 -221 -98q-45 -80 -45 -222q0 -152 69 -258h7q-16 164 -17 177q0 117 64 176q31 0 49 -27q6 -27 14 -119q6 -78 25 -117q27 4 76 23l-33 297q-4 25 45 49q145 8 291 19q195 16 274 55q14 10 43 29q70 41 84 51q43 33 53 78q6 24 6 49zM549 772 q29 0 29 -41q0 -8 -5 -12q-14 -10 -22 -10q-6 0 -10 2q-14 39 -15 34q0 27 23 27zM430 684q27 -2 27 -37q0 -8 -2 -23.5t-2 -21.5q-8 -12 -15 -12l-8 4q-12 2 -15 17.5t-7 19.5q2 16 4 32.5t18 20.5z" />
<glyph unicode="A" horiz-adv-x="1081" d="M1008 672q10 -55 12 -207q-53 -47 -162 -64q-150 -23 -176 -32q-31 -51 -55 -250q-10 -2 -21 -2q-12 0 -35.5 6t-35.5 6q-23 0 -31 -18q-2 -45 -31 -138q-59 -10 -113 -10q-53 0 -72.5 6t-23.5 6q-8 0 -24.5 -3t-26.5 -3q-27 0 -31 35q4 18 0 45q-4 39 -4 45 q0 51 -9 146.5t-9 142.5q-18 4 -51 16q-49 29 -50 107q0 20 4 43q10 4 39 26q23 18 41 19q2 14 2 31q0 33 -15 97t-15 99q-18 -14 -31 -14q-12 0 -12 18q104 121 268 207q12 -2 25 -2q35 0 93 21.5t83 23.5q-35 18 -82 19q-23 0 -170 -33q-16 0 -41 -6q-70 -29 -135 -133 q-94 -152 -107 -166q-6 14 -6 26q0 25 43 97q70 117 166 190q113 84 235 84q16 0 31 -2l10 -14l-10 -13q86 -14 88 -14q49 -12 76 -39q8 4 18 4t25.5 -4t22.5 -4v-8q0 -8 -29 -8q-10 0 -17 -7l41 -34q23 27 48.5 56.5t52.5 35.5q4 -4 4 -10v-17l-82 -74q0 -12 13.5 -20 t25.5 -14l65 88q14 -4 19 -19q-37 -59 -84 -82v-22q25 8 100 69q14 -4 15 -14q0 -27 -43 -47t-72 -18l-53 -293q16 -6 36 -6q27 0 66 10q53 14 66 16q43 7 131 23zM147 444v101h-14q-39 -16 -39 -47q0 -10 4 -21q2 -17 49 -33zM616 1040q-14 2 -28 2q-72 0 -150 -36h205 q-11 11 -27 34zM174 795h16q57 57 170 90q92 25 187 51q-37 2 -68 2q-145 0 -246 -47q-53 -24 -59 -96zM965 510q-2 10 -2 22q0 41 14 78q-6 -2 -133 -35q-80 -20 -135 -20q-31 0 -45 63v44q0 47 4 131q4 96 6 133q-156 -27 -254 -70q-57 -2 -127 -37q-86 -43 -119 -51 q0 -35 4 -121q4 -78 4 -121q0 -55 -4 -96l8 -8v-29q0 -37 17.5 -102.5t17.5 -114.5t10 -143q23 0 72 -5t74 -5q41 0 67 10v14q0 -14 19 98l-101 25q-16 10 -34.5 21.5t-18.5 29.5q35 20 41 21q16 0 111.5 -31t132.5 -35q14 37 22 129q8 82 31 125q61 8 160 37q113 35 158 43 zM541 713q18 12 32 12q10 0 19 -6q2 -4 2 -10q0 -37 -31 -37q-2 0 -6 4q-4 2 -10 0q-2 2 -6 37zM252 528v9q0 23 27 22q29 0 28 -31q0 -31 -33 -22q-4 -2 -8 -2q-6 0 -9 11t-5 13z" />
<glyph unicode="B" d="M977 639l10 -37q-2 -16 0 -39q4 -27 4 -37q0 -47 4 -94q-16 -12 -159 -76q-6 -4 -64 -34q-27 -4 -61 -27q-6 -12 -6 -39t14 -77t14 -77q0 -57 -55 -77q-18 -6 -55 -19q-166 -55 -236 -55q-41 0 -78 10q-10 39 -47 125q-43 100 -69 135q-4 25 -29 25q-8 0 -23.5 -4 t-23.5 -4q-12 0 -19 8h-12q-29 31 -57.5 64.5t-28.5 70.5q0 45 34 97t75 67q8 14 8 33q0 14 -4 40.5t-4 38.5q2 4 6 7q-33 25 -45 81q-10 47 -19 95q2 29 25 43q25 -8 33 -50t32 -118q14 12 25 41q12 41 14 45q-23 55 -35 131q4 18 11.5 35.5t23.5 21.5q20 -18 27 -61 q8 -55 14 -68l4 -2q4 0 20.5 11.5t24.5 13.5q-14 25 -14 63q0 18 2 52t2 53q0 29 23 34q6 -6 22 -18l17 -176l55 2l4 213q16 16 31 16q16 0 16 -16l2 -213h76q4 53 8 104q8 63 43 93q23 0 23 -31q0 -29 -12.5 -84t-14.5 -82q8 0 21.5 -2t21.5 -2q20 0 22 20q4 49 9 99 q6 61 28 90q4 2 9 2q6 0 10 -11.5t8 -13.5q-8 -68 -25 -201l15 -14l6 -311q16 12 53 22q51 10 57 15q111 39 189 53zM98 301h21q16 2 22 2q14 0 23 -4l-19 92q-8 10 -30 84q-53 -61 -54 -92q0 -8 2.5 -23.5t4.5 -21.5q1 -37 30 -37zM946 496q0 55 -10 71l-186 -61 q-6 0 -21 -2l-72 -23q-29 0 -22 33q-35 49 -35 139q0 23 3 70t3 70q0 16 -2 30q-12 -2 -155 -2q-94 -2 -152 -22q-35 -12 -78 -76q-37 -55 -37 -70q0 -84 8 -182q8 -90 72 -238q70 -160 82 -237q29 4 84 8q39 6 139 43q113 41 113 62q0 6 -8 17t-8 19q0 6 2 13 q-66 -43 -150 -43q-78 0 -135 39q-2 10 8 22q49 -12 94 -12q51 0 117 20q47 16 47 82v25q-23 -8 -67 -25q-10 0 -11 29l-2 4q29 35 95 53q80 25 102 39q8 6 110 41q72 27 72 64zM526 702q23 -6 23 -26q0 -8 -4 -25.5t-6 -26t-9 -8.5q-29 0 -20 2q-4 14 -4 27q0 32 20 57z M383 578q29 -16 29 -64v-47q-4 0 -4 -7t-9 -9q-23 33 -22 71q0 23 6 56z" />
<glyph unicode="C" horiz-adv-x="1021" d="M766 823q164 0 172 -182q2 -59 -59 -145q-74 -47 -148 -95q-88 -53 -160 -67q2 -6 2 -15q0 -45 -24 -86q-59 -33 -60 -86q0 -10 6.5 -30.5t6.5 -32.5q0 -20 -47 -51q-113 -74 -199 -74q-45 0 -84 21q-29 45 -53 462q-4 4 -8 4q-70 0 -82 9q-29 23 -29 123q0 37 10 71 q20 27 53 23q-2 4 -30 92q-18 57 -19 96q0 74 29 137q37 76 98 90h4q35 0 97.5 25t95.5 25q57 0 102 -78q12 -20 13 -43q0 -16 -9 -35q14 -43 15 -98q0 -35 -7.5 -102.5t-7.5 -100.5q0 -61 19 -109q55 23 119.5 119t124.5 119q39 14 59 14zM76 487q27 0 37 23 q-4 35 -10.5 73t-49.5 35q-12 -14 -12 -40q0 -91 35 -91zM860 606q-4 29 -8 59.5t-35 50t-59 19.5q-53 0 -113 -73q-74 -90 -96 -103q-8 -4 -25 -14q-68 -45 -82 -45q-16 0 -32 14v27q0 20 -3.5 59t-3.5 59v14.5v14.5v14q-2 10 -2 15q0 25 7.5 72t7.5 71q0 27 -6 47 q2 6 2 15q0 35 -37 34q-14 0 -27 -10q0 -29 -37 -67.5t-43 -59.5q-18 -10 -22 -10q-6 0 -13 10q14 31 30 63.5t38 55.5l-182 -4v-45q-2 -100 14 -187q25 -125 37 -337q14 -254 25 -338q29 -18 61 -19q41 0 102 33q49 27 99 53q2 35 -13 99q-16 2 -32 2q-37 0 -80 -7.5 t-37 -7.5q-37 0 -35 45v4q4 8 10 9q4 0 11.5 -3.5t11.5 -3.5q18 0 63 7.5t68 7.5q61 0 94 22q2 6 4 92v17q31 33 121 61q10 2 33 11l39 26q72 41 86 53q45 35 59 78zM317 731q37 0 37 -20q0 -18 -16 -19q-13 0 -21 39zM233 618q20 0 35 -22q2 -4 2 -8q0 -14 -14 -24.5 t-27 -20.5h-8q-12 0 -26.5 10t-14.5 22q0 10 21.5 26.5t31.5 16.5z" />
<glyph unicode="D" horiz-adv-x="933" d="M666 543q18 -6 39 -6q27 0 78 13t75 15q14 -35 14 -78q0 -55 -18 -73q-41 -41 -147 -52q-117 -12 -156 -38v-78q-43 -47 -119 -47q-16 0 -90 8q-2 4 -43 29q-14 -4 -14 -15q0 -12 22 -31q45 -35 127 -34q53 0 109 18q29 -12 37 -65q8 -59 26 -76v-4q0 -20 -24 -33 q-33 -14 -39 -21q-88 -20 -154 -20q-121 0 -178 65q-14 16 -18 25q-10 27 -18.5 129t-22.5 143q-6 0 -22.5 -5t-27.5 -5q-8 0 -16 4q-61 70 -61 115q0 47 42 91t89 38q23 39 22 80q0 51 -43 117q-39 51 -76 102h-6q-29 -2 -53 41q14 14 45 25q43 16 49 18q33 39 64 78 q39 45 47 86q4 2 10 2q-4 0 39 -14q4 0 90 14q55 10 84 39h4q12 0 27.5 -19.5t26 -21.5t30.5 -8q98 -31 115 -31q16 0 33 4q2 -12 21.5 -14t19.5 -15q0 -14 -39 -90t-43 -106q8 -10 65 -11q18 0 26.5 -5t35 -13t26.5 -22q0 -39 -47 -54q-41 -6 -80 -12q-6 -20 -6 -41 q0 -23 12.5 -69.5t10.5 -71.5zM106 356q4 -10 13 -10q12 0 28 16q-6 16 -6 44q0 14 3 41.5t3 39.5q0 20 -4 33q-66 -20 -65 -92q-1 -49 28 -72zM186 756q35 55 117 155l4 76q25 16 164 47q18 -18 18 -20q0 -6 -6 -19.5t-6 -25.5q0 -23 26.5 -39.5t51.5 -30.5q25 0 43 39 q12 31 25 61h-11q-33 -2 -81 38t-82 40l-9 -2q-55 -39 -200 -35q-25 -82 -129 -163q49 -57 67 -121h8zM528 854q-23 35 -49 35q-18 0 -56 -25.5t-61 -25.5q-10 0 -20 4q-2 -2 -19.5 -15.5t-17.5 -19.5q0 -4 2 -6zM760 414q72 39 71 78q0 12 -4 24q-20 0 -102 -6 q-61 -4 -100 -4q-20 0 -41 2l-15 12q12 27 13 142q0 61 18 63h-18q-10 0 -47 -4q-29 -4 -46 0q-27 -4 -131 -4q-80 0 -127 -23q-27 -117 -26 -258q0 -2 22 -379q53 -74 140 -73q119 0 194 57q-10 20 -33 92q-27 -8 -59 -8q-66 0 -121 14q-76 20 -108 133q18 16 34 17 q14 0 40 -29t48 -29q111 0 142 35q4 14 4 49q0 8 -7 18.5t-7 14.5q0 8 10 14q2 4 43 7h4q66 20 209 45zM473 614q6 0 21 -14v-10q0 -25 -17 -25h-14v4q0 4 -2 13.5t-2 15.5q0 16 14 16zM317 498q-2 4 -2 6q0 12 19 12q14 0 18 -14l-14 -51h-2q-25 0 -19 47z" />
<glyph unicode="E" horiz-adv-x="1472" d="M1339 856q0 -43 37 -37q35 -51 35 -74q0 -45 -61 -45q-18 0 -37 7q-10 6 -27 20q-4 14 -4 27q0 37 25 65l-7 105q-53 10 -73 10q-25 0 -39 -6q-35 -6 -86 -31v-23q0 -53 43 -90q4 -10 4 -20q0 -63 -59 -64l-21 2q-51 61 -51 82q0 10 4 21q57 33 49 86q4 14 -8 22l-113 -6 q0 -33 -5 -98.5t-5 -97.5q0 -41 6 -76l12 -12q31 4 109 18q70 12 109 12q16 -12 24 -51q6 -31 12 -61q4 -12 5 -35q0 -45 -37 -60q-109 -39 -185 -38q-35 0 -67 6l-8 -11q-4 -14 -5 -34q0 -16 3.5 -49t3.5 -50q0 -90 -70 -90h-8h-10q-25 0 -27 -43q2 35 2 -65q0 -70 -57 -82 q-106 -23 -168 -23q-98 0 -166 33q-23 66 -35 166q-8 86 -18 172q-63 0 -117 80q-20 33 -21 94q0 117 99 117q4 0 13 -3t13 -3h6l7 12q4 88 6 106q4 61 20 107q-37 14 -67 14h-13q-6 -6 -6 -18q0 -6 3 -20.5t4 -22.5t20.5 -22.5t19.5 -26.5q0 -25 -19.5 -48.5t-41.5 -23.5 q-12 0 -30.5 10t-27.5 12q-16 43 -16 50q0 20 28.5 38.5t28.5 38.5q0 8 -4 19q-18 10 -39 10q-14 0 -41.5 -6t-42.5 -6q-16 0 -30 6q-12 -31 -13 -64q0 -57 39 -108q2 -8 2 -18q0 -31 -36 -72q-27 4 -53.5 9t-35.5 30q-2 2 -11 22.5t-9 30.5q0 6 7 19.5t38 33.5q25 16 25 29 q4 37 8 76t22 67l275 11l6 10q-4 41 -4 84q0 180 65 323q49 113 215 113q197 0 254 -133q49 -109 50 -213q0 -59 -19 -115l12 -12q16 -2 35 -2q37 0 112 11t113 11q70 0 123 -30q2 -6 2 -13q0 -6 -2 -17t-2 -17t2 -17.5t2 -17.5v-13.5v-13.5zM82 631q16 10 22 53 q-8 20 -24 21q-35 0 -45 -37q12 -35 47 -37zM307 758q-10 4 -20 4q-6 0 -33 -4v-6q0 -8 14.5 -21.5t24.5 -13.5q18 0 18 24q0 1 -4 17zM354 389q4 43 4 78v22q0 33 -4 74q-10 4 -18 4q-59 0 -60 -73q0 -53 25 -80t41 -27q6 0 12 2zM481 1219q20 25 62 69q8 4 18 4 q18 0 50 -20.5t40 -22.5q43 98 103 99q20 0 45 -9q-12 10 -39 27q-49 16 -109 16q-100 0 -135 -47q-29 -34 -35 -116zM565 1223q-25 -27 -53.5 -53.5t-60.5 -30.5q18 -29 65 -37l43 55q10 6 23 6q20 0 52 -28.5t48 -32.5q18 29 35 55q23 35 49 35q25 0 63.5 -24.5 t55.5 -28.5v14q0 35 -74 86q-33 23 -41 23q-18 0 -37 -31q-23 -37 -35 -43q-18 -18 -32 -19q-18 0 -49.5 27t-51.5 27zM442 1069v-18q-4 -35 -6 -103l2 -16q86 10 256 31q49 2 99 4q59 4 96 18l4 55q-70 59 -117 78q-61 -82 -102 -82q-20 0 -47 23q-33 25 -45 28 q-8 -4 -21.5 -28.5t-36.5 -24.5q-16 0 -43 16.5t-39 18.5zM1133 594q-94 -31 -164 -31q-102 0 -103 33q0 27 37 39q-4 37 -4 82q0 57 10 190q-37 -2 -108 -6q-18 -4 -56 -10q8 0 -49 0q-84 0 -237 -17q-18 -35 -27 -116q-2 -35 -4 -105q-6 -174 -6 -258q0 -211 29 -362 q139 -18 178 -19q74 0 121 25q-2 10 -2 22q0 14 2 40t2 40q0 18 -2 31q-74 0 -99 18q6 18 15 27h55q92 0 141 16l4 179q-2 0 -84 32v7q0 6 8.5 17t8.5 17q20 -2 106 -16q63 -10 107 -10q82 0 137 39q2 8 2 14q0 14 -9 41t-9 41zM1079 786q-25 0 -24 -18q0 -25 32 -25 q23 0 23 23q0 20 -31 20zM1346 737q23 2 22 27q0 25 -29 24h-12q-10 -8 -10 -16t29 -35zM791 762q8 0 18 -17v-14q0 -47 -27 -47q-8 0 -20 12q9 66 29 66zM586 664q18 0 18 -43q0 -41 -22 -41q-4 0 -23 22q9 62 27 62z" />
<glyph unicode="F" horiz-adv-x="1380" d="M117 154q-27 0 -47 14q-23 37 -47 72q-25 45 -23 79v13l20 12q16 -33 35 -66.5t49 -50.5q61 2 62 84q0 51 -43 113q-57 82 -66 104q-57 150 -57 275q0 39 8 80q31 172 64 245q53 121 170 181q55 29 108 28q45 0 88 -14h13q16 0 48.5 -3t49.5 -3q61 0 86 39q2 57 80 98 q35 2 35 -22q0 -20 -35 -62q-8 -94 -56.5 -115.5t-117.5 -21.5q-51 0 -121 11t-66 11q-18 0 -51 -10q-127 -47 -188 -196q-39 -98 -39 -211q0 -231 149 -430q25 -88 25 -127q0 -68 -41 -97.5t-92 -29.5zM422 1206q37 0 108.5 -16t108.5 -16q49 0 90 22q74 199 219 199 q84 0 164 -60.5t100 -142.5q8 -31 9 -76l-2 -24q-14 -12 -29 -27q-20 -16 -35 -16q-8 0 -16 4q4 6 4 34q0 20 16 29q6 16 6 31q0 33 -65 106q-6 10 -21 27q-43 47 -127 47q-35 0 -51 -6q-35 -14 -85 -99t-93 -104q-20 -10 -31 -10q-39 0 -113.5 17.5t-113.5 17.5 q-68 0 -105 -31q-111 -88 -147 -317q-10 -61 -10 -70q0 -76 63 -186q53 -86 109 -172q6 -10 53 -103q33 -68 33 -114q0 -74 -35 -127q-41 -61 -111 -62q-37 0 -51 16q-47 59 -47 113q0 10 4 21q-8 12 -8 30q0 16 4 37q4 -4 24.5 -8t20.5 -16q0 -4 -2 -15.5t-2 -17.5 q0 -63 92 -64q37 27 51 127q-29 66 -107.5 183.5t-107.5 179.5q-49 104 -49 203q0 37 4 53q6 27 19 82q27 117 51 170q39 84 117 127q41 24 94 24zM451 915q-16 6 -17 27q0 6 4 25.5t4 27.5q39 61 136 62q12 0 71.5 -21.5t91.5 -21.5q70 0 103 55q20 51 42.5 104.5 t71.5 53.5q27 0 68 -37q33 -68 33 -117q0 -16 -4 -35q-8 -10 -23 -8h-6q-8 10 -33 68q-18 41 -51 51q-12 -14 -24 -51q-16 -45 -23 -60q-39 -70 -125 -92q-37 -10 -45 -10q-31 0 -89 18.5t-87 18.5q-63 -1 -98 -58zM842 836q12 -14 24 -15q8 0 26.5 9.5t29.5 9.5q8 0 16 -4 q18 6 160 43q98 25 151 63q37 25 49 25t21 -15q0 -123 -131 -278q2 -6 2 -12q0 -12 -6 -37t-6 -37q0 -23 11 -65t11 -64q0 -59 -80 -70h-127h-18q2 -27 16 -178q8 -106 8 -176v-15q-37 -39 -110 -47q-164 -16 -195 -16q-55 0 -100 10q-20 31 -33 86q-14 72 -24 92 q-100 240 -160 643q43 -23 61 -79q18 -74 60 -222q45 -154 131 -458l8 -11q29 -2 57 -2q106 0 248 29l8 8q-6 80 -18 238q-4 8 -12 8l-5 -2q-4 -43 -11 -85t-64 -42q-18 0 -55 -6t-56 -6q-10 0 -24 4q-4 8 -4.5 18t-2.5 26.5t-2 24.5q0 -4 -8 11v-9q-2 23 -12 31q6 0 -31 0 q-25 0 -24 21q0 33 34 43q98 31 256 34q6 20 11.5 43t19.5 33q16 2 35 2q16 0 50 -3t52 -3q47 0 80 19q0 23 -12 68.5t-12 70.5t8 47q-12 4 -29 4h-22q-14 -2 -23 -2q-43 0 -82 53q-27 43 -55 88q-14 -4 -31.5 -8t-21.5 -18v-6q2 -59 -56.5 -115.5t-120.5 -56.5 q-80 0 -143 51q-59 45 -82 141q-68 55 -160 61l-6 -10q0 -18 8.5 -59t8.5 -62q0 -25 -11 -45q-4 -2 -8 -2q-25 0 -28 29q-2 18 -15 72q-10 45 -10 69q0 27 12 49q20 8 45 9q37 0 101.5 -30t99.5 -30q43 0 127 9.5t127 9.5q39 0 74 -4zM831 774l-86 4q-33 -18 -106.5 -21 t-103.5 -18q6 -51 59 -75q4 -2 98 -29q57 6 98 45t41 94zM745 221h25q14 0 23 10q-2 8 -21 39q2 2 -35 2q-6 0 -8 -4q4 -8 16 -47zM877 262q0 23 -27 23h-19q-12 -8 -12 -27q0 -10 3 -8t3 -10.5t27 -12.5q18 0 22 11q3 1 3 24zM1227 872q-43 -33 -107.5 -48t-124.5 -27 q0 -20 2 -39t19 -33q33 -31 67 -31q57 0 95 58q29 51 57 100v20h-8zM715 735q20 0 20 -14q0 -43 -28 -43q-4 0 -15 10v10q-2 37 23 37zM1116 741q-4 -2 -8 -2q-20 0 -21 39q0 16 19 17q23 0 22 -19v-10q0 -13 -12 -25z" />
<glyph unicode="G" horiz-adv-x="1083" d="M647 141q0 -23 9.5 -66.5t9.5 -66.5q0 -41 -25 -65q-12 0 -311 -45q-43 53 -72 135q-20 76 -41 149q-8 4 -18 4q-8 0 -24.5 -3t-24.5 -3q-37 0 -77 59.5t-40 98.5t53 94q-18 12 -31 57q-4 31 -16 91q-39 168 -39 229q0 66 37 147q14 39 30.5 77t49.5 63q76 51 225 78 q172 31 231 57h7q76 2 131 -56.5t55 -134.5q0 -66 -33 -157q8 -29 8 -68q0 -16 -2 -49t-2 -49q0 -39 8 -68q18 2 89 15q55 10 90 10q88 0 88 -39q0 -6 -2 -22.5t-2 -24.5q0 -12 2 -23.5t7 -38t5 -41.5q0 -41 -33 -53q-12 2 -24 2q-35 0 -110 -13t-114 -11l-8 -11v-18 q0 -18 7.5 -54t7.5 -57q0 -23 -11 -43q-4 -4 -55 -18q-37 -10 -37 -37zM705 985q-2 121 -72 150l14 -162q2 -16 15 -17q43 0 43 13v16zM569 1153q-31 0 -55 -18q14 -29 16 -76q2 -39 5 -78l10 -14q16 -8 35 -9q27 0 34 23l-14 139q-4 33 -31 33zM481 1096q0 27 -37 26 q-37 0 -63 -22q12 -23 16 -64q4 -63 4 -65q27 2 80 12q2 14 2 31v41q-2 27 -2 41zM338 1104q-39 -6 -109 -31q14 -18 19.5 -64t19.5 -65l76 17l2 90zM106 995q0 -16 24 -40.5t26 -41.5q14 2 55 17l-31 125q-25 -2 -49.5 -19.5t-24.5 -40.5zM156 489q-16 154 -17 162 q0 23 -30 23h-13q6 -51 10 -103q11 -62 50 -82zM106 737h17q-2 10 -2 23q0 12 2 38.5t2 39.5q0 59 -39 80q-16 -45 -16 -101q0 -37 8 -63q3 -19 28 -17zM100 266q37 -20 64 -20q18 0 31 10q-6 33 -25 96q-25 20 -47 21q-43 0 -43 -47q0 -31 20 -60zM616 10q0 2 -12 176 q-10 4 -18 4q-16 0 -59.5 -14t-61.5 -14q-29 0 -35 24q-10 8 -10 21q0 25 24 33q20 2 60 10q47 12 143 33q18 0 51 14v6q0 18 -7 56t-7 57q0 39 23 63q47 0 124 15q88 14 123 16q0 37 -16 102q-147 -18 -156 -18q-16 0 -34.5 -23.5t-34.5 -21.5h-6q-49 49 -50 143 q0 23 3.5 68t3.5 67q0 25 -2 45l-7 11q-37 2 -107.5 15t-107.5 13q-49 0 -250 -61q45 -430 48 -442q37 -252 106 -428q10 -2 21 -3q18 0 92 19q20 4 82 2q50 -2 77 12zM547 694q0 -2 0 23q0 14 10 14q37 0 37 -24q0 -33 -10 -45q-19 3 -37 32zM317 627q8 6 15 6q6 0 33 -39 v-45q-46 17 -48 78z" />
<glyph unicode="H" horiz-adv-x="1069" d="M733 496q-6 -6 -6 -17q0 -6 4 -78q2 -53 0 -84q-6 -47 -22 -73q6 -10 6 -21q0 -8 -6.5 -23.5t-8.5 -21.5q-59 8 -190 12q-33 0 -84 9.5t-51 70.5q0 12 3 36t3 36q0 41 -13.5 53.5t-52.5 28.5q-68 27 -134 55.5t-113 89.5q-68 94 -68 195q0 113 84 219.5t192 122.5 q20 4 64 4q106 0 348 -61q41 -8 119 -27q12 -4 49 -27q152 -100 152 -256q0 -133 -93 -180q-61 -20 -182 -63zM696 537q4 2 127 55q76 35 109 82q6 27 6 57q0 72 -27 119q-20 37 -82.5 87t-101.5 60q-35 4 -96 15q-182 31 -248 30q-178 0 -264 -124q-68 -94 -68 -179 q0 -90 58 -139q35 -33 124 -63q100 -35 138 -60q86 -57 86 -219q16 0 75 -8q47 -4 76 -4q27 0 51 4q-2 25 -2 47q0 49 15 121q22 111 24 119zM520 725q0 -16 -14 -46t-17 -42l-129 -12q-37 18 -73 37q-41 27 -41 65q0 31 51 78q14 12 41 20q35 10 45 17q43 -12 86 -41 q51 -37 51 -76zM424 690q27 25 27 41q0 12 -18.5 29.5t-33.5 17.5h-4q-27 -12 -53 -24q-31 -18 -31 -45q0 -29 37 -29q10 0 36 5t40 5zM692 823q39 0 78 -31.5t39 -68.5q0 -88 -92 -88q-43 0 -76 8q-23 4 -42 26.5t-19 45.5q0 39 35.5 73.5t76.5 34.5zM743 721q0 41 -32 53 q-8 -12 -33 -14t-33 -15.5t-8 -21.5q0 -18 24.5 -30.5t47.5 -12.5q18 0 26 13.5t8 27.5zM520 559q92 -25 92 -72q0 -82 -34 -92l-82 15q-6 27 -7 51q0 55 31 98zM580 459q0 12 -11.5 26.5t-25.5 14.5q-4 -2 -8 -2q-10 -23 -11 -39q0 -29 21 -29q35 0 35 29zM403 168 q14 0 23 -16q-2 -25 -5 -51.5t-24 -34.5q-18 10 -18 30q0 8 4 27.5t4 32t16 12.5zM459 160l49 -10q8 -27 2 -60q-2 -16 -10 -27.5t-31 -7.5q-8 2 -18 6q-6 35 -2 68q4 15 10 31zM571 150h4q20 2 33 -21q-2 -27 -22 -74h-4q-4 2 -13 0q-8 -4 -12 -4q-14 0 -14 29q-1 45 28 70 zM666 150q27 0 26 -39q0 -25 -20 -56q-6 -12 -27 -12q-8 0 -16 2q-16 10 -17 23q0 10 11.5 30.5t13.5 28.5q6 23 29 23z" />
<glyph unicode="I" horiz-adv-x="712" d="M639 1090q12 -51 12 -119q0 -33 -4 -98.5t-4 -100.5t4 -63q4 -39 4 -29q0 -16 -3 -55t-3 -58q0 -37 3 -110.5t3 -110.5q-33 -8 -65 -14q-41 -10 -58 -27v-35q0 -39 8.5 -114.5t8.5 -114.5q0 -35 -6 -70q-45 -16 -129 -16q-96 -2 -134 -12q-18 2 -36.5 3t-22.5 17 q4 16 -31 146q-41 147 -43 157q-10 6 -40.5 8t-47.5 21q-33 33 -32 84q0 55 6 74q10 37 47 55q4 -4 10 -4q10 0 18 10q-12 76 -24 227q-6 4 -47 4q-33 0 -33 60q0 31 8 90t8 90q0 45 -12 80q2 10 12 10q6 0 18.5 -7t16.5 -7l58 -6q84 76 139 75q25 0 49 -10q18 10 43 10 q53 0 207 -40l16 2v-7q4 -2 10 -2q8 0 24.5 8.5t25.5 8.5q10 0 16 -10zM231 1096q-37 -14 -86 -54q55 -16 127 -16q121 0 232 41q-74 33 -154 33h-28q-10 -14 -29 -15q-8 0 -26.5 5.5t-26.5 5.5h-9zM66 350q33 -18 47 -18q8 0 16 4l-18 123q-6 2 -15 2q-41 0 -41 -47 q1 -5 11 -64zM627 395v11q0 57 -13.5 175.5t-11.5 180.5q-66 -6 -131 -6q-35 0 -104.5 5t-104.5 5q-47 0 -137 -6q0 -352 94 -660q12 -37 29 -114q47 20 119 22q61 0 122 2q25 2 23 51q-2 63 0 70q-29 -6 -53 -6q-55 0 -103 29q0 4 -2 11t-2 11q0 6 6 6q35 -23 84 -22 q37 0 64 12q-4 55 -12 168q20 23 59 34t74 21zM27 805q90 6 301 6q193 0 299 12q-4 23 -4 54q0 18 2 54t2 54q0 39 -9 66q-176 -70 -311 -70q-94 0 -172 31h-12q-16 0 -44 13t-44 11zM532 592l-2 4q0 25 23 25q10 0 14 -6.5t4 -8.5q0 -16 -14 -24zM238 481q2 2 6 2 q12 0 22 -12q-2 -12 -6 -24.5t-16 -12.5q-16 0 -17 17q1 7 11 30zM461 950h4q12 -2 45 12.5t47 14.5q29 0 37 -35q-4 -20 -9 -44t-22 -34q-18 0 -53 5t-51 5q-2 6 -2 15q0 6 4 31q2 18 0 30zM504 897q53 2 53 31v10q-20 -2 -57 -14q-4 -12 -4 -17q0 -8 8 -10z" />
<glyph unicode="J" horiz-adv-x="1019" d="M932 801q27 -16 26 -27q0 -14 -10 -22h-4q-6 0 -15 3t-16 3q-12 0 -12 -10q0 -61 9.5 -181.5t9.5 -179.5q0 -43 -15 -76q-4 -4 -8 -4h-53l-109 15q-8 -68 -8 -158q0 -29 2 -84t2 -84q0 -27 -39 -39q-31 -10 -61 -18h-4q-23 0 -68 6t-65 6h-11.5h-11.5q-29 0 -41 31 q-2 4 -12 55q-29 123 -43 248h-8q-35 -2 -60.5 28.5t-25.5 65.5q0 33 12 61q33 20 57 17q0 51 -10 166q-8 106 -8 165h-15q-45 0 -131 -11t-129 -11q-27 0 -51 2q-6 8 -6 10v6q106 23 350 45q-6 16 -6 39q0 35 37 146q2 12 10 35q29 59 117 92q72 25 151 24q152 0 220 -127 q55 -108 53 -237zM358 330q4 2 4 12q0 57 -2 43q-2 2 -6 23q-4 14 -12 14q-23 0 -27 -35v-49q4 -10 13 -10q2 0 14 2q8 4 16 0zM743 371q53 -8 80 -9q25 0 49 7q-2 39 -14 147q-12 94 -12 150q0 45 6 86q-10 14 -39 14q-8 0 -23.5 -2t-23.5 -2q-16 0 -61 6q-51 6 -64 6 q-92 4 -274 14l4 -4q-2 -53 -2 -108q0 -381 92 -686q14 2 33 2q20 0 59 -4t59 -4q45 0 80 16v14q0 10 -3 35t-1 37q-102 0 -196 84v6q0 6 6 10q55 -35 125 -63l65 4q-4 25 -4 53q0 18 2 53t2 54q0 10 -2 28.5t-2 26.5q0 18 27 23q16 4 32 6zM862 834q-25 0 -68.5 8t-66.5 8 l-2 -33q16 -6 41 -6q12 0 34.5 2t35.5 2q16 0 30 -4zM748 924q-8 -6 -9 -23q0 -6 2 -12l121 -17l4 7q-38 37 -118 45zM901 805q0 -10 0 43q0 23 4 33q-20 57 -41 112q-33 76 -63 97l-49 28q-25 0 -72 2t-70 2q-102 0 -149 -41q-88 -76 -88 -229q0 -12 2 -23h45q53 0 141 -4 q104 -4 139 -4v29q-2 8 -2 16q0 10 4.5 22.5t4.5 22.5q0 25 -2 27q18 25 51 25q25 0 67.5 -13.5t56 -29t13.5 -46.5q0 -10 -2 -30.5t-2 -32.5v-6h12zM793 651l18 -10q12 -6 12 -16t-18 -27q-2 -2 -6 -2q-8 0 -16.5 13.5t-8.5 21.5q1 6 19 20zM487 514q29 0 35 -25 q-4 -2 -11 -21t-15 -19q-29 0 -29 47q0 18 20 18z" />
<glyph unicode="K" horiz-adv-x="874" d="M666 973q39 0 61 -74q4 -6 8 -20q8 -43 25.5 -131.5t52.5 -270.5q-6 -8 -26.5 -12t-26.5 -8q-25 -12 -84.5 -20.5t-85.5 -24.5l80 -269q-6 -57 -142 -125q-127 -66 -196 -65q-10 0 -21 4q-27 59 -73 203q-45 131 -80 200q-45 -16 -56 -16q-20 0 -34 18q-68 12 -68 142 q0 10 14 24q25 23 53.5 30t59.5 11q-10 49 -12 149.5t-13 151.5h-4q6 23 31 41q23 12 45 27q-8 10 -22 31l-9 14q-4 12 -4 78q0 41 29 55q14 -35 18 -86q2 -43 7 -86q8 -2 14 -2q29 0 65 16q29 14 60 29q-18 45 -19 100q0 59 23 103q8 4 12 4h6l13 -35l-11 -168 q55 -12 80 -12q20 0 41 4l6 10q-12 55 -12 103q0 80 37 123q14 -33 14 -84q0 -41 -4 -103q0 -6 -3 -18.5t-3 -18.5v-8q12 -2 57 -10q35 -6 58 -6q12 0 20 2q-20 35 -20 90q0 63 28 151q12 10 27 11q18 0 18 -25q0 20 -12 -63q-6 -55 -22 -164zM115 387q33 6 32 31 q0 12 -11 43t-7 49q-8 10 -27 10q-35 0 -49 -16q-8 -8 -22 -47q4 -43 84 -70zM748 541q0 23 -37 158t-39 204q-66 18 -162 23l-164 4q-53 -14 -108 -31q-66 -20 -99 -55q4 -45 13 -137q4 -23 11 -66t19 -125q51 -291 168 -485q178 43 260 106q2 10 2 23q0 25 -14 61 q-20 55 -23 62h-8q-51 -74 -135 -74q-16 0 -33 4q-47 41 -45 55v4q10 0 31 -7t33 -7q90 0 133 84q-4 14 -20.5 49t-16.5 55v15q82 41 197 57q37 5 37 23zM541 758q2 4 8 4q12 0 12 -29q0 -51 -14 -57q-20 6 -21 33q1 26 15 49zM352 623q20 0 21 -23l4 -27q4 -14 -6 -24 l-17 -10q-23 20 -22 57q0 27 20 27z" />
<glyph unicode="L" horiz-adv-x="1003" d="M836 954q25 -16 30.5 -48t10.5 -64q2 -10 8 -35l57 -244q-20 -43 -105 -53t-102 -43q-2 -14 -2 -29q0 -57 25 -141q33 -117 37 -137q-27 -63 -99 -86q-68 -14 -135 -29q-41 10 -82 21q-47 14 -59 53q-14 10 -27 37q-10 20 -18 41q-94 162 -94 364q-6 4 -7 10q0 2 2 9v8 q0 6 -2 8q-12 72 -12 125q0 94 39 158q-12 6 -12 18q0 6 26 59q49 113 232 113h41q31 -2 39 -2q18 -14 18 -29q2 0 -100 0q-96 0 -135 -26q-49 -35 -109 -131q23 -23 23 -54q0 -14 -6.5 -43.5t-6.5 -46.5q0 -2 4 -22q23 -211 35 -269q27 -147 82 -258q8 -27 17.5 -51 t48.5 -41q8 -4 22 -10q59 12 117 25q68 14 94 65q-12 70 -39 137q-10 0 -27.5 -8t-23.5 -8q-16 -4 -59 -4q-84 0 -115 78q12 -20 38.5 -32.5t51.5 -23.5q35 6 71 13.5t50 38.5q0 14 -3 43.5t-3 46.5q0 66 67 86q102 31 115 41q-4 43 -31 145q-25 94 -24 150q-51 -12 -88 -13 q-78 0 -117 47q-31 14 -31 27q0 12 21.5 14t25.5 11q20 -8 21 -43q2 -27 35 -27q53 0 77 29q41 47 41 106q0 18 -12 51t-29 31q0 31 -81 53q-61 16 -109 17q-131 0 -246 -86q-141 -106 -205 -312l-16 -69q-12 -51 -12 -109q0 -84 43 -178q23 -51 94 -166q39 -59 80 -121 q45 -76 45 -135q0 -31 -8 -47q-29 -57 -127 -57q-45 0 -99 57q-51 51 -61 96q-6 23 -6 54q0 20 8 34q31 23 49 23q43 0 88 -100l-12 -13q-12 8 -17.5 36t-20.5 39t-24 11q6 0 -22 -14q-14 -6 -18.5 -14.5t-2.5 -16.5q2 -16 3 -16q0 -53 37.5 -101.5t86.5 -48.5q74 0 74 58 q0 39 -22 94q-20 47 -78 119q-63 82 -86 123q-41 76 -53.5 123t-10.5 130q0 6 29 132q4 51 31 143q27 61 84 156q4 6 61 59q162 152 299 152h4q139 0 226 -56q35 -2 49 -6q27 -10 34 -33l17 -8q8 -49 8 -78q0 -51 -20 -82zM201 817l10 -20q-37 -88 -37 -187q0 -139 70 -243 q8 -31 8 -25l-2 -6l-25 20l-22 21q-57 90 -58 207q1 118 56 233zM700 754q-6 -14 -10 -27q-8 -18 -22 -20v12q0 25 10 55q22 -6 22 -20zM502 690q10 6 16 6q4 0 6 -4t13 -14q-4 -16 -11.5 -32.5t-21.5 -18.5q-8 12 -8 28q0 15 6 35z" />
<glyph unicode="M" horiz-adv-x="946" d="M795 731q33 -14 90 -43q4 -10 4 -22q0 -8 -3 -24.5t-3 -25.5q-18 2 -27.5 36t-26.5 34q-6 0 -14 -2q-16 10 -47 16q-16 -10 -16 -34q0 -29 28.5 -104t28.5 -89q0 -29 -37 -57q-33 -20 -63 -39q-20 -8 -54 -31v-12q-2 -61 36 -178t38 -176q-12 -31 -63 -48 q-68 -10 -209 -47q-10 6 -17 21q-8 23 -12 26q-113 129 -164 271q-8 10 -20 10q-8 0 -22.5 -4t-22.5 -4q-6 0 -11 2v2q-2 2 -6 4q0 -6 -2 -6q-4 0 -12 6t-14 6q-43 53 -43 105q0 25 10 47l6 6h-10q-10 0 -30.5 -9.5t-25.5 -11.5q-29 -49 -41 -102q-2 -2 -6 -2q-2 0 -10 18 q0 20 16 97q104 49 170 69l11 -4l6 4l-8 84q-4 53 -49 55q-150 154 -150 297q0 51 22.5 99.5t47.5 95.5q4 12 17 33.5t46 60.5q6 10 21 31q8 8 22 27q39 59 39 149q0 35 -7 105.5t-7 107.5q0 63 16 109q6 37 15.5 77.5t50.5 40.5q49 35 135 35q31 0 164 -10q4 0 32 -16 q143 -76 144 -252q0 -47 -13.5 -137.5t-13.5 -135.5q0 -119 78 -192q2 -23 27 -84q23 -51 22 -86q0 -12 -2 -25q-6 -4 -6 -6t3 -5t3 -5q0 -60 -61 -158zM178 240q4 -2 10 -2t29 4q18 2 31 0q-4 6 -17 82q-12 63 -30 63q-16 0 -47 -47q-2 -12 -2 -23q-1 -42 26 -77zM240 737 q-10 -78 -11 -123q0 -66 19 -120q25 27 22 32q57 35 185 66q-10 27 -11 49v12q33 49 103 76q63 20 125 41v47h-6q-23 -27 -48 -26q-20 0 -59 25.5t-59 25.5q-35 0 -72 -58.5t-63 -58.5q-16 0 -45 12.5t-46 12.5q-18 -1 -34 -13zM498 659q0 4 0 -26q0 -35 20 -41 q41 10 103 39q23 16 43 31q27 25 26 40q0 10 -6 21q-47 -12 -96 -25q-57 -14 -90 -39zM381 524q-37 -29 -74 -55q-45 -39 -45 -74q0 -10 4 -22h17q115 -2 166 67q18 27 24 113q-16 2 -46 -13.5t-46 -15.5zM582 344q0 47 63 80q80 39 96 63q-4 45 -47 156q-45 -47 -176 -80 q-12 -41 -35 -121q-2 -6 -14 -22q-53 -70 -154 -70q-23 0 -45 4q29 -168 197 -426q131 27 207 74q-4 47 -39 154q-100 -29 -109 -29q-25 0 -55 14q-39 14 -43 35q37 -8 72 -8q115 0 114 49q0 12 -16 53t-16 74zM764 758q29 68 29 139q0 70 -68 193.5t-68 209.5q0 31 9 60 q-2 2 -119 18q43 -2 125 6l-6 7q0 12 8 30q-4 20 -12 115q-4 70 -31 106q-41 0 -123 17q14 4 35 4q8 0 26.5 -2t26.5 -2q27 0 45 10v4q-51 57 -84 78q-47 29 -113 29q-100 0 -178 -72q-18 -92 -18 -162q0 -27 2 -55q92 20 147 20q35 0 64 -6q14 -16 14 -20l-2 -2 q-53 6 -92 6q-51 0 -94 -10q-12 0 -33 -6q10 -49 10 -97q0 -113 -63 -213q-57 -78 -115 -155q-63 -86 -63 -164q0 -115 157 -244q4 12 10 41q-6 12 -6 29q0 6 3 28.5t1 34.5q0 2 50 37q16 4 32 4q43 0 95 -20q8 6 57 69q35 45 74 45q35 0 63.5 -26.5t38.5 -26.5 q14 0 42 20.5t46 20.5q29 0 49 -72q27 -12 21 -26h8zM541 651q0 14 14 15q16 0 23 -23q-2 -12 -17 -12q-20 0 -20 20zM397 471q0 -2 0 21q0 10 6 14h7q29 2 34 -33q0 -8 -10 -22q-17 0 -37 20zM205 1157q74 53 160 53q25 0 47 -6l10 -16q-25 4 -47 4q-49 0 -170 -35z M639 1155l-4 -10l-121 4q33 12 88 12h29zM508 1010q39 43 100 43q63 0 148 -45l2 -11q-18 4 -70 25q-43 18 -72 18q-14 1 -108 -30zM37 874q76 74 178 74q33 0 64 -8v-8h-23q-106 2 -193 -58h-26z" />
<glyph unicode="N" horiz-adv-x="1433" d="M1372 618q-14 -53 -84 -77q-106 -37 -114 -43q10 -76 55 -291q27 -123 26 -135q0 -41 -102 -78q-131 -45 -139 -51q-86 -2 -103 37q-31 74 -59 147q-37 82 -74 137q-80 18 -95 41t-21 111q29 76 69 106l17 -8q2 23 5 48.5t15 35.5q6 -20 6 -94q0 -57 55 -201 q41 -100 82 -199q12 -33 24.5 -64.5t39.5 -49.5q55 16 115.5 33.5t105.5 48.5q-8 72 -43 209q-49 -43 -104 -43q-68 0 -88 51l4 8q78 -23 84 -23q23 0 92 48l-37 186q-2 16 26 31q23 8 44 16q39 12 75 23q47 16 64 45l-41 262q-119 190 -297 190q-8 0 -22.5 3t-20.5 3 q-35 0 -152 -49q-37 -35 -69.5 -134t-73.5 -132q-18 -14 -53 -43q-129 -104 -201 -105q-16 0 -47 6.5t-47 6.5q-25 0 -45 -17q-76 -53 -124 -206.5t-120 -206.5q8 27 39 90q29 57 33 94q-6 10 -6 21q0 2 6 26q4 14 10 47q29 102 111 160q39 25 82.5 29t86.5 8q12 6 113 35 q66 18 96 67q29 23 29 64q0 14 -4 40.5t-4 41.5q0 18 8 43q37 102 100 135q43 23 164 33q31 4 115 -9q209 -33 309 -180q10 -14 27 -47q4 -33 12 -94q16 -115 45 -187zM700 358q6 -10 91 -57q-14 63 -27 105q-18 68 -16 77q-47 -18 -48 -92v-33zM504 567q-137 -63 -291 -282 l-12 -9q-2 8 -2 15q0 27 48 93.5t72 80.5q104 147 259 147q23 0 45 -4q92 18 131 117q31 82 61 166q49 86 170 86q47 0 127 -72q8 -6 23 -20q4 -4 4 -13q0 -31 -41 -30q-14 0 -26.5 19.5t-22.5 23.5q-23 31 -68 30q-10 0 -30.5 -2t-28.5 -2q-66 -33 -111 -155.5t-111 -157.5 q-35 -18 -96 -25q-49 -2 -100 -6zM1090 711q-2 0 28 -11q2 -2 2 -6q0 -12 -18.5 -21t-20.5 -11q-8 4 -8 16q1 33 17 33zM944 545q4 10 12 10q10 0 25 -14v-6q0 -20 -25 -21zM600 512q25 0 41 -14q-4 -25 -39 -29q-27 -4 -55 -8q-72 -27 -105 -109q-39 -102 -71 -131 q-86 -74 -135 -88v10q43 39 126 117q6 4 19 37q27 63 51 125q37 63 105 80q51 10 63 10z" />
<glyph unicode="O" horiz-adv-x="1652" d="M715 356l-15 -22q4 -37 5 -78q0 -55 -9 -152q-10 -109 -12 -151l-20 12h-41q-106 -2 -234 21q-20 14 -43.5 30.5t-23.5 40.5v13q2 8 2 12h6q-14 125 -45 377q-2 59 -13 178q0 8 -5 30.5t-5 39.5q0 31 10 98q31 -4 31 -35q0 -8 -2 -23.5t-2 -21.5q0 -12 4 -18 q10 -61 47 -416q6 -68 27 -199q4 -14 4 -12q0 -8 -10.5 -19.5t-10.5 -17.5t2 -10q57 -16 144 -21q143 -4 145 -4l11 115q-16 2 -39 2q-18 0 -53 -2t-52 -2l-20 16l12 13l147 14v8q0 23 -4 67t-4 66q0 45 13 82q14 10 42.5 14.5t43.5 12.5q23 -6 22 -6q8 0 14 6q8 14 9 32 q0 16 -7.5 48t-7.5 47v14q2 8 2 12v15q-2 10 -2 14q0 16 3 48t3 48q0 12 -4 34t-4 34q0 10 3 31.5t3 31.5q0 8 -2 17q-49 14 -127 14q-27 0 -71 -2q-51 -2 -72 -2q-49 -23 -141 -25q-106 -4 -146 -14q-18 6 -39 6q-20 0 -61 -9t-62 -9q-23 0 -41 6q-6 -8 -12 -8q-10 0 -10 8 q0 -10 2 10q14 10 33 10q10 0 32.5 -6t32.5 -6q23 0 39 18q16 6 45 7h47q0 20 -2 62t-2 63q0 72 21 118q41 12 114 45q23 10 70 25q84 14 117 14q123 0 223 -57q8 25 16 25q20 0 21 -39v-11h-2q8 -61 8 -120q0 -31 -2 -54q-10 0 -23 -12q4 -6 13 -6q4 0 15 7t20 7 q16 0 50 -7t52 -7q29 0 49 16q-14 -2 41 -2q20 0 37 17l6 -9q4 4 2 9q18 2 19 -23q0 -12 -17.5 -19.5t-21.5 -15.5q-199 -8 -215 -6l-11 -10q2 -131 13 -391h-2q0 -8 2 -25.5t2 -28.5q0 -33 -19 -41q-14 4 -28 5q-21 -1 -80 -11zM254 840q0 2 8 0q4 2 4 4q-2 2 -4 2v0 q-4 -2 -8 -6zM457 881q135 20 248 20q45 0 79 -4q-18 18 -18 45q0 10 3 30.5t3 28.5q0 10 -2 21q-45 18 -76 18q0 2 0 -16q0 -8 2 -14l13 2q27 0 55 -19q-8 -6 -19 -6q-6 0 -18 4t-18 4q-8 0 -15 -4v-12q0 -6 2 -8q18 -2 37 -4t29 -19q-8 -6 -17 -6q-10 0 -25 6t-24 6 q-14 0 -18 -20v4q2 25 -31 29q-45 4 -51 8q14 6 37 6q12 0 41 -4q4 8 4 14q0 8 -19 13q-25 2 -28 6q4 8 12 8q4 0 11.5 -2t11.5 -2h8v10v8q0 23 -43 23h-13v-6q0 -4 -2 -12.5t-2 -12.5q0 -8 13 -10q-16 0 -21 -21q-10 12 -9 36t-3 32l-49 6l-4 -80q-18 49 -19 66q0 23 19 26 h37q23 0 22 23h4q4 0 6 -4v-6q0 -18 23 -21q37 -2 37 -4q2 10 18 25v-5q-2 -27 31 -30q47 -6 51 -8q0 -2 0 14q0 8 -2 12q-4 0 -6 -4q-57 39 -117 39q-43 18 -88 18q-57 0 -141 -28q-135 -47 -140 -49q-10 -31 -10 -72q0 -12 4 -64q2 -41 0 -65q20 10 54 10h32q20 -2 31 -2 q45 0 70 23zM743 659v-22q-8 -8 -28 -21q-14 20 -15 33q0 8 7 15zM420 520v0q2 -14 -27 -26q-10 4 -10 14q0 6 10 29q6 2 13 2q16 0 16 -13q0 -2 -2 -6zM1565 82q10 -31 26 -57q-6 0 -16 -9q-10 25 -45 66l-4 -33q-6 -2 -10 -2q-14 0 -13 25q-10 27 -20 52.5t-41 35.5 q-133 39 -254 39q-129 0 -275 -33q-14 4 -34 4q-59 0 -99 -25q-4 4 -10 5q-6 0 -20.5 -5.5t-22.5 -5.5q-14 0 -14 23l2 4q43 16 248 33q2 0 81 10q45 6 168 6q199 0 314 -82q12 -2 30 -14q25 -18 29 -21q-4 -12 -20 -16zM1536 113l12 -7l-2 3z" />
<glyph unicode="P" horiz-adv-x="1153" d="M426 1126q-8 -4 -8 -18q0 -8 3 -25.5t3 -27.5q0 -39 -33 -39q-10 0 -13 24.5t-5 31.5t-16.5 29.5t-14.5 33.5q0 14 20 28q31 0 56 -37l4 4zM868 948q-8 -10 -20 -10q-4 0 -17 2v18q0 80 -77 195l12 25q57 -39 90 -117q8 -20 8 -55q0 -44 4 -58zM281 1122q12 0 25 -16 t22 -21v-10q0 -8 2 -24.5t2 -24.5q0 -16 -8 -31q-2 2 -5 2q-4 0 -9 -5t-9 -5l-8 4q2 18 -16.5 52t-18.5 51q0 12 7.5 20t15.5 8zM559 1001q-8 0 -14 -8t-13 -8l-4 2v8q2 25 -20.5 65t-22.5 60q0 10 4 21q6 2 13 2q12 0 24 -10q20 -16 23 -19q16 -39 16 -76q0 -21 -6 -37z M739 1032q0 -23 -10 -67v2l-33 -2q2 12 2 22q0 29 -24.5 75t-28.5 66q14 20 29 21h4q20 -27 43 -51q18 -31 18 -66zM961 1061q12 -84 12 -86q0 -37 -23 -60l23 -24l4 -146q10 -6 38.5 -6t43.5 -12q-2 -2 7 -10t9 -10q0 -8 7.5 -17.5t9.5 -15.5q6 -20 6 -68q0 -41 -47 -71 q-39 -25 -80 -50l12 -14l12 -139q6 -14 0 -21q-4 -6 -4 -10q-55 -14 -256 -12q-2 -23 -2 -47q0 -37 8.5 -111t8.5 -111q-25 -39 -123 -59h-6q-25 0 -76 -5t-76 -5q-96 0 -135 57q-86 129 -115 293q-14 82 -24 315l-9 -2q-16 0 -48 12.5t-46 12.5q-47 0 -47 -68l27 -84h-6 q-14 -2 -27.5 13.5t-24.5 29.5v5q0 10 -7 28.5t-7 28.5q0 33 33 62.5t65 29.5q14 0 41 -12.5t43 -12.5q6 0 15 3q-14 59 -15 110q0 70 31 158q2 -2 4 -2q8 0 21.5 16.5t19.5 16.5q8 0 14 -23q-16 -49 -26 -131q-16 -113 -21 -133q12 -8 29 -8q12 0 36.5 5t37.5 5q12 0 24 -4 q53 63 140 63q63 0 118.5 -45t77.5 -45q23 0 47 19q23 2 71 29.5t83 29.5h35q0 63 22 203q4 12 4 32q0 27 -16 80.5t-16 81.5l2 13q23 0 28 -27q11 -41 13 -45zM543 662q-16 4 -33 4q-68 0 -111 -58q2 -27 22.5 -63.5t45.5 -36.5q10 0 28.5 9t26.5 9q72 35 70 101v6 q-18 9 -49 29zM674 324h33.5h62.5q43 -2 64 -2q68 0 120 14l-22 131l-25 -8q-2 2 -33 2h-22q-14 2 -23 2q-16 0 -28 16q-18 20 -41 45t-23 47v11l-69 2q-10 -4 -16.5 -29t-10.5 -31q-20 -29 -61 -44t-80 -27q-35 12 -73 27.5t-56 45.5q-2 12 -22.5 40t-18.5 50q-27 4 -76 -6 v-14v-29q0 -39 5 -117.5t5 -119.5q0 -80 41 -174q41 -82 80 -164q70 2 137 4q84 6 131 31q39 0 39 36q0 10 -4 33t-4 35q0 8 2 16q-10 -2 -37.5 -13t-44.5 -11q-66 0 -125 22q-76 29 -90 80h12q90 -61 156 -61q16 0 55 8q10 4 27.5 18.5t28.5 14.5q4 0 10 -2v14q0 12 -3 39 t-3 41q0 17 2 27zM1026 655h-8q-18 0 -56 -5t-57 -5q-27 0 -63.5 -21.5t-36.5 -43.5q0 -12 10 -35t12 -31q23 -6 39 -6q14 0 35 4q10 18 76 49q55 29 55 64q0 14 -6 30zM492 584q-2 6 -5 6q-2 0 -5 -3t-5 -3q-12 0 -12 26q0 16 12 29q37 -14 37 -33q0 -6 -11 -11t-11 -11z M911 614q27 0 27 -36q0 -16 -20 -17q-20 0 -21 33q0 8 4 14t10 6z" />
<glyph unicode="Q" horiz-adv-x="1097" d="M991 756q0 -6 0 30q0 37 -18 52h-8l4 4q-23 14 -64 14q-6 0 -63 -4q0 14 0 -59q0 -18 8 -37q16 -31 22 -51l-14 -13q6 -74 43 -217q-14 -33 -59 -47q-14 -4 -80 -12q-6 -4 -47 -8q-16 -2 -17 -70q0 -43 8.5 -128t8.5 -128q0 -31 -4 -59q-45 -33 -111 -33q-203 0 -285 33 q-6 12 -38.5 31.5t-32.5 43.5q0 -12 -39 164q-43 203 -55 324l-5 53q-2 27 -18 86l-6 2q-18 0 -58 -39q-27 -27 -26 -61q0 -10 3 -32t3 -32q0 -14 -2 -24q-29 29 -41 90q25 133 90 143l37 4l10 160l-2 55q2 8 12.5 13.5t20.5 17.5h-8q-12 0 -12.5 19.5t-17.5 48t-19 47.5 q14 16 12 16q6 0 16 -8q31 -20 41 -109l4 -2l70 39q-18 -2 -18 45q0 20 -9 29q2 2 2 6q0 6 -6 10h-2v0v2q0 18 12 19q6 0 37 -29l4 -76q39 14 76 11q0 43 -26 110l-2 -4v2q0 16 14 16q23 0 35 -51q6 -33 14 -67l92 10q0 4 -12 4q4 10 4 20q0 16 -12.5 40t-12.5 36 q-6 -2 -6 4q0 20 13 21q33 0 43 -47q4 -35 8 -72q-4 -2 -4 -6q8 -4 16 -4q6 0 17.5 2t17.5 2h18q10 -2 17 -2q16 0 16 10q0 33 -22 98q4 10 10 11q4 0 11 -5.5t11 -5.5q31 -37 25 -116l76 -6q8 18 8 38q0 10 -3 31t-3 31q0 12 2 22q4 2 8 2q14 0 23.5 -22.5t9.5 -38.5 q0 -10 -2 -30.5t-2 -30.5q0 -35 26 -50q8 -41 19 -81q12 -53 34 -74q37 2 66 2q63 0 104 -17q35 -33 35 -81q0 -45 -16 -46q-4 0 -13.5 5.5t-15.5 5.5zM799 778q-6 8 -8 39q-2 25 -17 29q-25 -18 -76 -19q-68 2 -80 -2q-14 -33 -14 -80l2 -26q27 6 195 20q-4 25 -2 39z M174 954v-182l70 -22q2 43 32 69l201 23v10l8 16q4 10 11 11h6q12 -8 14 -31q4 -31 6 -35q10 -4 21 -4q23 0 29 38t20 48l174 14q0 2 -18 127q-51 6 -156 27q-86 -8 -90 -8q-10 0 -29.5 3t-30.5 3q-25 0 -45 -10q-16 4 -32 4q-47 0 -103 -35q-45 -33 -88 -66zM471 778 q-12 0 -166 -16q-16 -25 -21 -62.5t-10 -74.5q63 4 193 18zM844 504l-29 174q-121 -16 -205 -19q-16 10 -32 39q-8 4 -9 50q0 6 -2 12q-20 -6 -53 -10l-6 -179q0 -14 -12 -12h-4q-12 6 -25 23l-191 -7q-39 18 -38 43l12 3q-14 14 -14 38q0 8 2 22.5t4 20.5q-59 23 -66 23h-4 q2 -76 21 -117q6 -236 88 -520l190 -27q37 -6 70 -6q61 0 110 23q2 14 2 28q0 27 -6 70q-8 51 -8 68l-10 -2q4 -2 4 -9q0 -6 -2 -16t-2 -16q0 -8 2 -25.5t2 -25.5q0 -14 -6 -27h-62q-8 -12 -16 -12q-6 0 -21.5 8t-25.5 6q-47 20 -51 80q-2 4 -2 37q0 20 -27 16 q-49 23 -64 31q-37 20 -51 45q4 2 9 7l6 5q-6 0 53 -29q78 -33 162 -32q51 0 98 14v4q0 14 -2 41t-2 39q0 55 26 78q57 4 168 26zM600 236h-43l4 -70h37zM524 168l-6 72q-2 0 -8 -2h-8q-6 0 -10 4q-4 -10 -5 -21q0 -8 3.5 -26.5t3.5 -26.5h30zM735 766l-24 2v8q0 43 24 43 q8 0 15 -8q8 -14 8 -16q-7 -11 -23 -29zM338 666q-29 0 -29 28q0 25 23 31q23 -14 22 -39q0 -20 -16 -20z" />
<glyph unicode="R" horiz-adv-x="940" d="M231 780q-76 -4 -225 -12q-12 12 -12 29q0 6 6 32q39 14 106 19q84 2 109 8q0 18 -9 57t-9 64q0 -6 -4 24q-4 25 -5 58l2 45q0 31 -8 93.5t-8 92.5q0 111 66 160q-8 0 102 0q63 0 102 -10q86 10 93 10q20 0 54 -14.5t50 -16.5l29 15q45 -68 45 -183q0 -59 -8.5 -180 t-8.5 -180v-27q12 2 25 2q16 0 49 -5t49 -5q18 0 35 4q23 -16 23 -45v-12q-33 -8 -94.5 -7t-88.5 -3q-4 -47 -4 -101q0 -88 11.5 -191.5t11.5 -88.5q0 -6 -5 -23.5t-3 -28.5q-27 -16 -80 -22q-61 -8 -82 -14q-6 -31 -6 -66t7 -107.5t7 -109.5l-2 -25l-31 -28 q-31 -2 -121 -17q-76 -12 -120 -10h-25q-14 29 -14 39v43q-4 14 -4 70q0 35 -9 47q-10 127 -6 151q-4 4 -10 4t-16.5 -6t-16.5 -6q-84 76 -84 168q0 37 12 78q16 16 52 22q51 10 55 13q2 63 27 190zM213 358q-6 10 -6 23q0 10 4 28.5t4 28.5q0 12 -6 23q6 8 6 14q0 45 -2 39 q-8 4 -20 4q-63 0 -64 -67q0 -20 29 -91zM666 412q-6 223 -25 362q-37 0 -116 3t-117 3q-68 0 -119 -6q-33 -158 -33 -366q0 -131 16 -377h11q74 0 215 30l8 19q-16 47 -10 96q-53 -25 -66 -24q-29 0 -56.5 26.5t-31.5 54.5q6 2 12 3q12 0 33 -11.5t35 -11.5q45 0 57 37 q2 10 2 71.5t70 73.5q58 9 115 17zM250 1145l-2 -98l76 18q2 -4 11 -15.5t9 -19.5q0 -2 -2 -6q-12 -16 -43 -23q-37 -8 -49 -16q0 -12 8 -37l57 8q37 -14 33 -43v-4q-16 -18 -78 -18l-2 -4q0 -10 8 -27q27 0 78.5 11.5t77.5 11.5q6 0 16.5 -2t14.5 -2t12 2h10q16 0 49 -5.5 t48 -5.5q16 0 30 4q-8 90 -8 179q0 139 19 272q-10 -2 -16.5 12.5t-10.5 18.5q-33 6 -78 6q-20 0 -61 -2t-62 -2q-45 0 -80 8q-18 -2 -37.5 -6t-19.5 -25v-8q35 -2 68 -6q53 -6 53 -25q0 -8 -10 -18l-115 4l-4 -84l76 4q25 -10 24 -31q0 -2 -2 -6q-10 -18 -45 -16 q-43 0 -53 -4zM547 602q2 4 2 8t-3 15.5t-3 15.5q0 20 24 21q8 0 13.5 -13.5t9.5 -15.5q0 -31 -27 -31h-16zM369 547q27 0 26 -39v-6q-12 -12 -28 -10h-7q0 6 -5 18t-5 18q1 19 19 19z" />
<glyph unicode="S" horiz-adv-x="1247" d="M254 862l10 12v68q-4 0 -10 8q0 4 16 17v30q0 88 35 133q166 37 295 37q49 0 97 -5t38 -5q16 0 46 7t44 7q18 0 33 -8l-4 -2q18 -37 25 -102q4 -53 10 -107q16 -2 33 -2q29 0 89 15.5t93 11.5q10 4 20 4q6 0 19.5 -2t19.5 -2q12 0 23 6q-16 -37 -66 -49q-14 -4 -47 -10 q-137 -35 -162 -35h-16v-17q0 -61 15.5 -179t15.5 -175q0 -51 -8 -96q-41 -25 -138 -45q0 -41 15 -135q12 -86 12 -133q0 -57 -12 -105q-102 -43 -267 -43q-80 0 -88 2q-41 10 -41 57q-33 74 -67 127q-12 18 -23 70q-8 37 -14 76q-49 -4 -55 -4q-25 0 -39.5 17.5t-28.5 35.5 q-33 61 -33 92q0 23 10.5 44.5t49.5 40t39 34.5q0 6 -6.5 27.5t-6.5 37.5q0 47 4 80q4 10 11 33q10 35 16 76q-25 0 -87.5 -6t-94.5 -6q-63 0 -64 16v3v5q0 8 -10 12zM297 885v-17q14 -2 29 -2q27 0 81 6.5t82 6.5l103 32q137 43 229 43q20 0 41 -2q-6 51 -22 154 q-41 -10 -92 -10q-31 0 -95.5 5t-97.5 5q-55 0 -90 -10q-10 -2 -76 -13q-47 -6 -67 -24h4q10 0 29.5 6t29.5 6q18 0 25 -22q-33 -6 -99 -25v-43q4 0 27 16l127 21l10 -6q-14 -31 -100 -45q-76 -12 -74 -49l2 -9q23 0 70 12.5t71 12.5q23 0 45 -8q-63 -14 -192 -41zM297 662 q0 -61 45 -314q4 -49 16 -151q2 -20 36 -78t32 -101q27 -2 47 -2q57 0 75.5 5.5t53.5 13.5q55 8 160 37v8q2 23 -3 63.5t-5 59.5q-90 -43 -181 -43q-39 0 -49 3t-12 12t-4 13q8 6 24 19q109 0 216 49l-29 104l-25 23q0 29 31 35t57 10q102 37 103 82q0 6 -6 31 q-16 55 -25 227q0 33 -6 90q-4 10 -10 31h-9q-98 2 -208 -31q-27 -10 -78 -27q-16 -2 -45 -4q-129 -16 -162 -16h-17v-6q0 -8 -6 -25.5t-8 -23.5q-8 -37 -8 -94zM233 342q45 0 46 35q0 14 -12.5 49t-10.5 49q-57 -8 -72 -69q8 -20 19 -39q12 -25 30 -25zM756 686 q-25 8 -25 51q0 12 17 13q8 0 12 -2q-2 -2 -2 -5q0 -6 14 -14q2 -4 2 -10q0 -21 -18 -33zM532 578q-6 -6 -12 -7q-8 0 -23.5 12.5t-21.5 14.5q2 2 4 20q2 12 15 13q41 -25 38 -45v-8z" />
<glyph unicode="T" d="M743 1212q88 0 170 -78.5t82 -168.5q0 -25 -12 -45l-100 -82l45 -371q0 -6 -8 -21q-18 -29 -82 -36t-84 -27q2 -68 26 -178q31 -131 35 -176q-6 -18 -27.5 -30.5t-39.5 -23.5q-223 -35 -269 -34q-31 0 -57 4q-33 70 -72 282q-12 10 -48 16.5t-46 30.5q-16 14 -43 88 q18 76 61 97q18 4 38 9t20 21q0 2 -2 13q0 43 -13 123q-35 -27 -84 -27q-51 0 -81 16q-18 10 -48 37q-106 104 -104 279v12q0 76 106 145q12 8 38 21.5t65 13.5q55 0 131 -43q104 -59 121 -65q12 18 11 69.5t20 71.5q25 0 38 -39q-2 -29 11 -84q43 55 86 111q61 69 116 69z M332 293v61q0 2 -4 29q0 20 -13 20q-45 0 -45 -51q0 -20 16.5 -40.5t35.5 -20.5q6 0 10 2zM872 514q0 14 -10 72q-33 164 -33 186v6q0 20 -14 21q-8 0 -24.5 -9.5t-22.5 -11.5q-41 -6 -125 -24q-94 -39 -283 -115v-4q-2 -12 11 -21q27 -369 90 -614l264 41l33 29 q-8 49 -39 137q-84 -63 -176 -64q-57 0 -64 50q8 18 31 18q6 0 20.5 -3t22.5 -3q51 0 160 67q-8 27 -13.5 82.5t-15.5 81.5q23 23 115 31q73 6 73 47zM918 965q0 10 -3 16q-16 55 -120 109q-10 8 -33 18q-8 4 -27 4q-47 0 -113.5 -91t-134.5 -91q-47 0 -131 55t-135 55 q-76 0 -149 -82q-10 -33 -11 -71q0 -66 29 -129q31 -31 62 -60q39 -35 71 -45q100 70 359 162q61 16 123 35q76 23 110 53q12 10 66 25q37 10 37 37zM729 635q-4 16 -4 45q0 41 12 41t23.5 -17.5t11.5 -29.5q0 -20 -14 -39h-29zM530 606q41 -6 41 -49q0 -23 -26 -33 q-25 2 -25 29q-4 8 -4 20q0 23 14 33z" />
<glyph unicode="U" horiz-adv-x="954" d="M807 694q0 -8 6 -20l47 -193q2 -4 14 -39q8 -25 9 -36q0 -41 -84 -68q-20 0 -54 -19q72 -182 93 -284q-43 -66 -166 -66h-54q-37 2 -53 2q-49 0 -80 -8h-10q-12 0 -36.5 -4t-37.5 -4q-35 0 -45 27q-2 10 -5 23t-9 13h-4q-49 -68 -135 -67q-61 0 -62 65v23q2 14 2 22 q20 23 21 29q-10 2 -23 2q-10 0 -31.5 -3t-31.5 -3q-51 0 -70 55q-10 31 -10 58q0 61 45 61q41 0 41 -29q0 -12 -13.5 -33.5t-13.5 -29.5q0 -23 39 -23q63 0 64 91q0 49 -35 136t-35 134q0 39 26.5 108.5t51.5 98.5q-6 41 -90 131q-78 82 -78 186q0 72 31 127q37 68 104 68 q66 0 139 -33q63 -35 129 -68q2 14 3 31q0 14 -4.5 45t-4.5 45t10.5 39t22.5 25q10 0 19 -19q-4 -18 -5 -41q0 -43 15 -78q18 18 31.5 50t27.5 41q20 16 72 16q154 0 241 -135q57 -92 58 -129q0 -29 -23.5 -44.5t-23.5 -25.5q0 -6 25.5 -52t25.5 -77q0 -51 -43 -78t-43 -43z M215 14q123 55 123 203q0 55 -21.5 166t-21.5 168q0 39 14.5 109.5t16.5 103.5q-8 -8 -42 -12t-34 -21q0 -8 4 -18q-27 -33 -74 -101q-4 -12 -12 -32q-29 -66 -29 -99q0 -49 36 -137t36 -137q0 -45 -23 -88l29 -15q2 -4 2 -10q0 -12 -18.5 -29.5t-18.5 -31.5q0 -13 33 -19z M215 831q33 0 74 23q59 33 69 37q156 55 199 67q115 35 207 39q45 20 45 37q-47 90 -133 127q-10 4 -33 13q-35 14 -45 14q-39 0 -63 -53q-29 -68 -41 -76q-41 -31 -84 -29h-4q-106 61 -113 66q-70 33 -125 32q-31 0 -47 -4q-57 -18 -58 -108q0 -104 91 -193q12 -12 22 -12 q21 0 39 20zM817 424q-27 82 -59 278l-72 86q-33 39 -104 39q-109 0 -160 -61q-41 -47 -64 -162q-6 -39 -6 -80q0 -57 20.5 -171.5t20.5 -172.5q0 -47 -8 -88q16 -10 21.5 -43t13.5 -43l303 27q23 10 51 20v13q0 20 -14 53q-20 43 -23 51q-10 -4 -61 -27q-39 -16 -66 -16 q-18 0 -42.5 14.5t-24.5 30.5q0 10 12 14q18 -4 39 -4q55 0 121 41q0 25 -15 58q-27 51 -26 53q6 39 63 53q66 14 80 37zM838 838q0 78 -56 77q-20 0 -58 -14t-56 -16q23 -12 51 -66q27 -45 51 -45q68 1 68 64zM662 631q23 -12 22 -51v-11q0 -25 0 -22q-2 -4 -6 -4h-10 q-20 31 -21 57q0 12 4 23zM487 522h5q12 0 18 -14t10 -27l-2 -49q-4 -2 -8 -2q-33 0 -33 66q0 16 10 26z" />
<glyph unicode="V" horiz-adv-x="1204" d="M2 594q-2 8 -2 18q0 27 51 150q2 6 17 63q2 2 77 164q18 39 29 70q4 12 10 37q20 47 82 47q18 0 55 -5t54 -5q4 0 14 2h12l134 -17q135 -2 401 -26q14 -2 22 -2q10 0 31 2t31 2q43 0 49 -33q-12 -39 -12 -84q0 -51 20.5 -153.5t20.5 -155.5q0 -25 22.5 -65t22.5 -62 q0 -10 -3 -17.5t-7 -25.5q-2 -25 -7.5 -52.5t-27.5 -37.5q-8 8 -13 49q-4 31 -28 30q-14 -63 -53 -77q2 12 2 24q0 14 -5.5 41t-5.5 41q0 25 7.5 35t17.5 29q25 45 24 108q0 43 -12 109q-16 94 -18 106q-2 4 -6 4q-8 0 -58 -88q-31 -55 -59 -108q2 -33 2 -76q0 -59 -10 -178 q4 -6 4 -17q0 -33 -27 -32q-12 -8 -80 -9q-39 0 -47 -30q-2 -8 -2 -60q0 23 17 -303q-23 -61 -130 -61q14 0 -51 5t-192 23q-10 -4 -23 -4q-41 0 -54 35t-30 141q-14 123 -43 365q-8 8 -15 31.5t-22 27.5q-6 4 -104 4q-55 1 -82 21zM283 555q0 -96 32 -362q4 -53 15 -125 q4 -8 10 -25q12 -2 119 -6q6 0 18 -2t19 -2q6 0 15 2t13 2q18 0 51 -5t50 -5q37 0 61 18v26.5v22.5q0 25 -6 39q-18 0 -54 -12t-57 -12q-14 0 -26 4q-6 12 -37 24.5t-31 28.5q0 8 4 18q37 -10 74 -10q82 0 123 45v217q0 35 88 35q8 0 22.5 -4t22.5 -4q14 0 25 12 q-12 53 -11 143q0 109 -4 146q-23 -6 -47 -42t-45 -42q-20 18 -27.5 46t-13.5 54q-20 59 -106 60q-63 0 -121 -19.5t-112 -82t-62 -120.5q-2 -12 -2 -63zM653 553q-25 0 -24 29q0 35 18 34q23 0 23 -28q-1 -25 -17 -35zM449 457q0 2 -25 12q-12 4 -12 27q0 25 10 45h4 q10 0 16.5 -12.5t10.5 -24.5v-13.5v-13.5q0 -12 -4 -20z" />
<glyph unicode="W" horiz-adv-x="1118" d="M1047 799q-31 -10 -74 -11q-16 0 -50 2.5t-53 2.5q-35 0 -61 -7q23 -129 37 -280q8 -84 8 -96q0 -27 -43 -31q-51 -6 -61 -17q2 -45 23.5 -136t21.5 -138q0 -20 -4 -39q-37 -57 -132 -72q-78 -10 -155 -18q-35 2 -68 4q-39 4 -61 25q-31 74 -47 188q-10 96 -21 193 q-35 6 -76 33.5t-41 58.5q0 35 35 65.5t70 22.5l8 10v182q-61 -10 -123 -18q-72 -12 -98 -66q-41 -76 -41 -131q0 -25 6 -47q-2 -2 -6 -2q-23 0 -31 27q-10 45 -10 110q0 100 70 152q29 23 131 57q76 27 84 64q2 25 8 74q27 170 69 239q37 59 146 60q51 0 76 -5 q109 -27 161 -112q8 -23 35 -60q29 25 56 25q23 0 38 -25q8 -49 9 -112q0 -43 -4 -125q6 -6 16 -6q6 0 18.5 3t18.5 3h51q55 0 74 -25zM293 406q10 12 10 38q0 35 -2 43q-8 16 -35 17q-29 -10 -28 -53q0 -25 55 -45zM575 1114q-8 -47 -8 -92t8 -90q6 -8 7 -21 q0 -8 -3.5 -22.5t-3.5 -20.5q0 -18 19 -18q23 0 22 37q0 12 12.5 28.5t12.5 34.5t-11.5 51t-13.5 50q-2 4 -16 34q-9 23 -25 29zM504 1186q-8 -4 -8 -10t4 -13.5t4 -13.5q0 -27 -23.5 -107.5t-23.5 -123.5q0 -35 10 -68l43 -4q12 8 12 22q0 6 -2 17.5t-2 17.5q0 12 8 21 q-14 80 -14 131q0 72 25 125q-4 6 -15 6q-20 0 -18 0zM428 1137q-78 -162 -84 -301q-2 0 53 0q27 0 37 14q-23 47 -22 102q0 35 41 203q-5 2 -25 -18zM692 406q12 16 46 20t46 16q-39 197 -28 344h-39q-111 0 -221 -18q-53 -6 -156 -27q10 -96 35 -288q0 -8 10 -62 q8 -45 8 -53q0 -14 -2 -43t-2 -43q0 -51 6 -129q6 -68 6 -66q0 -35 66 -34q180 0 248 47q4 16 4 30q0 31 -17 56q-18 -8 -43 -9q-39 0 -86 9q-33 4 -51 55q14 4 33 4q16 0 46 -4t46 -4q33 0 53 16q-8 166 -8 154v29zM682 854q16 0 48 -7t50 -7q25 0 43 10l-2 176 q-2 14 -18 14q-6 0 -18.5 -4t-16.5 -4q-16 0 -29 47l-71 88q-57 14 -60 15q-10 0 -16 -2q106 -121 106 -242q0 -45 -16 -84zM647 627q18 0 27 -35l-2 -29q-29 0 -45 23q0 -6 0 20q0 21 20 21zM514 422q0 -16 -10 -25q-33 0 -33 47v21q6 10 18 10q25 0 25 -53z" />
<glyph unicode="X" horiz-adv-x="866" d="M96 244q-16 0 -37 14q-27 20 -34 23q-29 35 -29 92q0 31 4 43q14 57 70 78l-2 241q0 10 -15.5 14.5t-27.5 6.5q-2 8 -2 14q0 23 18 31q0 281 117 393q31 29 53 39q16 8 63 8q88 0 194.5 -54t166.5 -126l2 -221q12 -2 94 -2q76 0 76 -25q0 -29 -29 -31l-125 -14l-8 -12 q4 -88 4 -178q0 -88 -4 -181q-14 -16 -51 -29.5t-49 -25.5v-338q-49 -41 -215 -57q-4 0 -23.5 -3t-30.5 -3q-20 0 -92 16q-43 49 -61 137q-15 74 -27 150zM596 422l2 59q0 20 -4 260q-8 12 -35 11.5t-35 3.5q-322 -29 -336 -29q-10 0 -30.5 7t-32.5 7t-23 -6 q16 -442 109 -704q10 -31 43 -31q10 0 41 5t47 6t82 3q53 4 80 19q4 47 4 53q0 29 -10 45q-86 -35 -125 -35q-41 0 -70 29q-2 10 -2 16q0 12 6 17l72 -21q37 8 73.5 19.5t49.5 44.5l-4 166q10 23 49 33t49 22zM592 1044q-94 63 -168 89q20 -35 55 -105q53 -113 72 -203 q-2 0 18 0q6 0 11 2q4 29 4 68v53q0 59 8 96zM371 1110q-2 -16 -2 -33q0 -82 59 -258q-2 -2 37 -2q18 0 29 8q-6 135 -123 285zM274 1176l-4 -19q29 -68 29 -170q0 -41 -12 -186q31 0 90 10q-53 207 -53 334q-1 29 -50 31zM242 1092q-23 -70 -45 -142q-25 -82 -23 -145v-10 q27 -4 37 -4q23 0 33 10q12 80 12 151q0 79 -14 140zM203 1153q-121 -111 -119 -342v-10q12 -6 22 -6q16 0 23 26q2 20 4 41q8 29 21 86zM63 438q-23 -16 -22 -55q0 -6 2 -41q2 -2 12.5 -17.5t20.5 -15.5l4 2l-10 127h-7zM471 592q18 -10 18 -41q0 -41 -26 -45q-8 10 -8 29 q0 22 16 57zM287 506h4q12 0 22 -29q0 -4 2 -14v-14q0 -14 -6 -18.5t-8 -4.5q-14 0 -14 20v60z" />
<glyph unicode="Y" horiz-adv-x="1234" d="M1171 307q2 -35 3 -61q0 -127 -72 -166q4 -6 10 -6q4 0 13.5 7t13.5 7h4q0 -90 -125 -90q-41 0 -105 16q-2 4 -18 6l-4 13q-8 37 -8 78q0 92 35 141q8 -8 8 -33q0 -10 -2 -31.5t-2 -31.5q0 -74 26 -109l19 -2q66 0 135 25q-8 4 -23 4h-20q-12 -2 -19 -2q-20 0 -32 12 q-8 0 -15.5 13.5t-17.5 8.5q-18 29 -19 62q0 4 23 106q2 8 6 49.5t43 143.5q37 96 37 154q0 98 -72 139q-8 4 -26.5 16t-53.5 37q-2 -14 -39 -33q23 -51 23 -114q0 -18 -2 -35q45 14 59 14q18 0 31 -8l14 -43q0 -14 -14 -21q4 -12 4 -24q0 -47 -37 -98q-16 -23 -53 -31 q-10 -158 -88 -268q-92 -129 -240 -129q-94 0 -153 65q-43 49 -74 152q-23 82 -45 166q-16 -2 -43 8q-14 59 -18 114q-12 -10 -13 -26q0 -4 4 -25q-6 -2 -10 -2q-18 0 -18 29q0 2 6 22q20 84 74 92q0 20 5 63.5t5 63.5v31q-31 10 -49 60q-14 16 -17 47q-102 -70 -102 -252 q0 -45 10 -160q0 -20 4 -57q8 -27 29 -74q43 -121 43 -197t-31 -125q-37 -59 -108 -61q-70 72 -70 182q0 35 41 49q14 4 70 11q6 -2 6 -6q0 -2 -5.5 -8.5t-5.5 -10.5l3 -4q-23 -8 -47.5 -15.5t-34.5 -25.5q12 -88 51 -115q27 4 51.5 30t30.5 52q6 16 6 45q0 55 -40 155.5 t-42 154.5q-6 211 -6 180q0 143 41 207q70 106 110 135q4 14 20.5 29.5t20.5 25.5q29 23 102.5 43.5t100.5 44.5q37 33 94 33q37 0 83 -44t71 -50q16 8 33 8q31 0 98 -45q23 -35 43 -70q25 -41 29 -76q195 -104 194 -294q0 -47 -44 -150.5t-44 -171.5q0 -53 17 -106 q33 2 63.5 32.5t30.5 63.5v18q-2 14 -2 21q0 25 16 37q12 -17 16 -15zM901 571q-2 -8 -2 -20q0 -10 4 -30.5t4 -31.5q0 -10 -4 -18l23 6q18 14 23 44t9 57h-14q-25 -1 -43 -7zM248 537q8 -8 16 -36t21 -36l-13 98zM825 391q12 41 13 94q0 35 -12.5 108t-12.5 107q0 59 37 93 q-8 147 -113 190q-20 -18 -53 -18t-63.5 52t-88.5 52q-23 0 -45 -8q-31 -33 -81 -46.5t-97 -25.5q-27 -129 -26 -129v-14l18 10q43 -66 43 -172q0 -23 -2 -72t-2 -73q0 -70 16 -123q29 -96 60 -191q49 -111 141 -110q59 0 100 16q104 39 168 246l-4 10q2 4 4 4zM537 895 q-14 -82 -74 -158q-4 12 -4 29q0 27 8 74q8 59 10 73.5t17.5 22.5t17.5 10q12 -6 16 -22zM778 897q12 -33 13 -70q0 -82 -62 -170l-27 -10q-4 6 -4 12q0 10 11.5 25.5t11.5 26t3 29t3 26.5q0 43 -27 72l-30 -2v4l-2 4q-27 -57 -29 -60q-18 -35 -41 -53q-8 8 -8 19 q0 10 8 26.5t8 24.5v33q0 25 -20 36q-2 25 53 70q2 -8 19.5 -19.5t11.5 -27.5l2 -27q20 4 84 49q-2 -2 -2 -4q-1 -14 24 -14zM395 897q12 0 15.5 -16.5t7.5 -20.5q-2 -47 -23 -139l-16 20q-4 53 -4 72q0 59 20 84zM678 551q0 12 13.5 30.5t25.5 18.5q14 0 14 -31 q0 -6 -5 -21.5t-3 -23.5h-4q-41 0 -41 27zM504 475q-2 2 -4 2t-7.5 -9t-9.5 -9t-10 8l-4 9t-12 7q2 2 2 6t-6.5 12.5t-6.5 12.5q0 23 31 23q25 0 25 -23q0 -4 -2 -13t-2 -14q0 -6 6 -12zM662 367q-45 -41 -72 -41q-29 0 -49 24v10h8q70 -2 106 48q12 -2 13 -11q0 -4 -3 -14 t-3 -16zM698 272q4 -8 4 -16q0 -25 -44 -52.5t-70 -27.5q-20 0 -52 13.5t-79 68.5l4 29q29 -23 57 -43q35 -27 66 -27q20 0 57 23q49 28 57 32zM274 225l15 8q27 -37 26 -104q0 -102 -49 -152l6 -2q-35 -23 -75 -22q-10 0 -23 2q-6 12 -6 18q0 2 2 7q68 25 90 43 q35 31 35 92q-1 20 -21 110z" />
<glyph unicode="Z" horiz-adv-x="1325" d="M979 406q0 57 32.5 163.5t32.5 161.5q0 98 -79 158q-18 0 -45 14q0 4 -3.5 12.5t-3.5 12.5t9 8q-10 2 -32 46t-52 44q-4 0 -13.5 -2t-13.5 -2q-6 0 -18 2h-17q-25 0 -37 -12q-16 6 -38.5 45t-53.5 39q-25 0 -53.5 -28t-42.5 -28q-10 0 -23.5 8.5t-23.5 8.5q-25 0 -60 -25 l-14 -35q-14 6 -14 52q0 31 32.5 38t61.5 13q12 -8 27 -8q23 0 60.5 24.5t55.5 24.5q25 0 44.5 -36t56.5 -40q-4 0 73 0q47 0 68 -25q14 -16 31 -71q0 -4 -2 -11v-12q0 -10 8 -10q4 0 12 2h12q39 0 89.5 -70.5t50.5 -171.5q0 -74 -39 -194q-8 -18 -19.5 -58.5t-11.5 -109.5 q0 -82 53 -119q31 2 66 43q14 16 33 115q18 -16 18 -39q0 -8 -2 -23.5t-2 -23.5q0 -14 4 -25q-29 -96 -96 -96q-68 0 -101 92q-20 64 -20 148zM731 940q102 -61 103 -188q0 -12 -3 -23q-6 -2 -10 -2q-12 0 -12 20.5t-6 30.5q-16 31 -31 62q-20 37 -53 37h-8q-2 -2 -4 -3 q-2 0 -6.5 2.5t-6.5 2.5q-2 8 -2 14q0 24 39 47zM129 639q0 -61 39 -179t39 -179q0 -74 -39 -134q-45 -63 -115 -75q-2 4 -28 4q-18 0 -15 18q-14 2 -14 15q0 6 4 8q8 -2 14 -2q8 0 25.5 10t28.5 6q113 47 112 184q-4 16 -18 58q-78 219 -78 313q0 14 29 70q102 195 311 235 q14 -2 17 -22.5t8 -24.5v-20l-13 2q-139 2 -262 -174q-16 -23 -41 -66q-4 -12 -4 -47zM602 864l21 27q59 -45 88 -168l-13 -33q-16 86 -96 174zM510 788q-10 -12 -21 -14l-8 4q-2 12 2 38t4 38q0 23 -8 43l17 16q25 -16 24 -55q0 -11 -10 -70zM918 702q16 -4 16 -22 q0 -35 -2 -31q-10 -150 -23 -299q-20 -176 -96 -278q-37 -47 -65 -70q-55 -39 -136 -39q-33 0 -55 8q-39 18 -88 62q-160 143 -160 483q0 213 19 248q25 -47 24 -78q0 -31 -2 -92.5t-2 -91.5q0 -248 94 -381q14 -20 45 -53q43 -33 107 -33q25 0 45 10q119 49 172 172 q33 76 56.5 245.5t50.5 239.5zM825 594q14 -2 15 -21q0 -6 -4 -26q-29 -31 -74 -31q-25 0 -53 8l-23 35q57 2 74 4q40 6 65 31zM442 532q10 2 23 3q8 0 25.5 -2.5t27.5 -2.5q33 0 51 25q8 -4 9 -20q0 -20 -19.5 -37t-40.5 -17q-20 0 -46 15.5t-30 35.5zM1243 174 q14 -4 17 -24q2 -29 4 -33q-47 -117 -123 -146q-23 -8 -35 -8q-6 0 -45 8q-127 33 -178 125q8 -2 96 -41q57 -25 100 -24q66 0 105 53q28 45 59 90zM614 324v4t-7 9t-7 7l90 37q4 -18 4 -27q0 -14 -12 -26q-23 -6 -47 -6q-11 0 -21 2zM532 193q4 4 9 4q4 0 13 -7.5t15 -7.5 q86 0 156 62q8 -8 8 -47q-33 -59 -121 -60q-27 0 -52.5 15.5t-27.5 40.5zM322 121q0 -8 -6.5 -23.5t-6.5 -23.5q0 -4 2 -8l2 2q-41 -84 -116 -84q-31 0 -64 14q-39 16 -47 43l2 6q72 -12 82 -12q78 0 111 94q-4 8 -5 18q0 12 11 31h6q16 0 18 -22q7 -29 11 -35z" />
<glyph unicode="a" horiz-adv-x="937" d="M487 1120q236 0 326 -164q45 -82 45 -245q0 -92 -8 -285q-23 -37 -80 -39h-96l-23 -397l-96 -23v4q-12 2 -31 2q-14 0 -44.5 -2t-45.5 -2q-72 0 -96 43q-10 18 -59 64q-43 35 -48 69q4 0 5 7q0 2 -3 8l-14 16l4 -4q-2 18 -18 90q-16 61 -12 84l-9 6v35q0 33 -2 98.5 t-2 96.5q0 162 68 256q20 0 20 -27q0 -12 -6 -23v-4q43 -4 57 -4q80 0 105 54q0 14 10 24q8 0 17 -8q2 -8 2 -16q0 -23 -22.5 -51.5t-45.5 -37.5q-4 -2 -78 -2q-43 0 -65 -26q-14 -156 -15 -248q0 -170 47 -295q14 -37 19 -41q31 -37 96 -108l223 8v149q-25 -10 -53 -10 q-59 0 -117 39q-2 8 -20.5 32.5t-15.5 43.5q78 -70 145 -70q31 0 57 12q12 33 16.5 101.5t14.5 97.5q18 6 80 8q49 2 74 21q0 76 2 158.5t2 125.5q0 6 -3 26.5t-3 39t-4.5 52.5t-5.5 49.5t-5 25.5q-53 129 -280 129q-152 0 -267.5 -104.5t-152.5 -253.5q-23 -86 -23 -199 q0 -72 10 -191q12 -141 15 -190q-16 -33 -19 -86q-4 -82 -4 -86l142 18q-16 76 -17 131q0 49 13 93q8 -23 10 -64q2 -47 6 -63q12 -63 12 -125l-2 -19q-10 2 -24 2q-20 0 -52 -9t-55 -9q-57 0 -57 33q0 8 4 14q4 266 4 407q0 49 -2 145.5t-2 145.5q0 6 39 146 q35 131 157.5 226t255.5 95zM705 741h-23v11q-2 14 3 41.5t5 40.5q0 35 -18 55l10 35q6 2 10 2q41 0 41 -60q1 -62 -28 -125zM485 776q-14 8 -14 21q0 8 10.5 24.5t10.5 24.5q0 12 -13 22q-2 6 -2 13q0 18 21 34q25 -16 24 -61q0 -70 -37 -78zM608 733h-10q0 10 2 34t2 36 q0 41 -20 55q-2 6 -2 14q0 18 18 39q18 -4 27 -26q10 -29 18 -35h-4q-4 -51 -6 -62q-7 -35 -25 -55zM666 575v21q0 45 24 61q8 -12 8 -26q0 -20 -24 -56h-8zM424 500v6q-2 18 6 51q6 41 16 41t19 -37q-2 -4 -14 -37q-9 -22 -27 -24zM119 492l8 -25v-39q0 -47 6 -143.5 t6 -145.5q0 -80 -16 -149q-14 186 -14 301q0 107 10 201zM791 -33q-10 0 -31 -2t-33 -2q-53 0 -61 35l28 6l-2 123q0 162 21 203l16 26q0 -31 -4 -102.5t-4 -108.5q0 -12 2 -38.5t2 -38.5l-20 -58h57q2 14 2 29q0 41 -9.5 119t-9.5 118q0 37 7 70l8 -14q2 -35 18 -156 q14 -96 15 -156q0 -28 -2 -53z" />
<glyph unicode="b" horiz-adv-x="866" d="M199 1188q25 -16 24 -111q0 -78 -10 -125q-14 2 -15 -14t-10 -18q-2 10 -2 20t2 26.5t2 24.5q0 14 -4 44t-4 46q1 52 17 107zM479 991q-6 10 -6 21q0 10 7 29.5t7 31.5v14.5v24.5q-2 16 -2 27q0 43 29 43q14 0 15 -15.5t3 -29.5q-4 -57 -10 -80q-12 -46 -43 -66z M365 1178q6 0 11 -9.5t11 -9.5q-4 -6 -4 -14q0 -6 6 -19.5t8 -19.5q-16 -43 -55 -127h-6q4 23 4 49q0 63 -14 109q2 10 15.5 25.5t23.5 15.5zM676 1063q-8 -33 -17 -68q-12 -41 -38 -53q-2 25 -3 43q0 96 52 137l6 -6v-53zM805 1032q-8 -76 -39 -223h-29v10q0 49 13 125 q18 98 43 98q8 0 12 -10zM467 -2q-111 0 -168 61q-16 14 -53 68q-127 172 -127 326v26q-23 -4 -64 -24q-2 12 -30 51q-25 33 -25 84q0 80 70 164q37 0 43 41q8 51 18 61h19q-2 -41 -11.5 -123t-9.5 -125t12 -102q10 -74 22.5 -146.5t67.5 -138.5q10 -14 33 -43 q92 -121 197 -121q98 0 170 72q8 8 22 25q39 70 39 278q0 23 -2 68v67q0 111 15 178q4 6 12 7q2 0 22 -2q8 -10 9 -27q0 -8 -3.5 -25.5t-3.5 -25.5q0 -47 3.5 -140.5t3.5 -140.5q0 -115 -27 -237q-12 -51 -47 -80q-20 -16 -82 -43q-25 -12 -80 -31q-20 -2 -45 -2zM45 532 q10 0 24.5 -7t22.5 -7q12 0 21 10q-14 109 -15 181q-41 -16 -69 -84q-4 -8 -4 -27q0 -29 20 -66zM616 692q0 -4 -24 -22q-10 0 -27 12q6 12 11.5 27.5t15.5 15.5q6 0 24 -33zM313 600q0 14 15.5 31.5t29.5 17.5q8 0 33 -57q-2 -2 -2 -10h-4q-8 0 -22.5 -4.5t-20.5 -4.5 q-29 0 -29 27zM430 381q6 -2 12 -2q20 0 49 19.5t41 23.5q8 25 41 49q10 -31 11 -39q0 -41 -49 -70q-41 -20 -89 -24q-8 14 -16 43zM254 322q16 -12 49 -56q27 -33 64 -45q47 -14 77 -14q72 0 131 35q8 -14 9 -31q0 -29 -45 -47q-37 -14 -74 -14q-182 0 -211 172z" />
<glyph unicode="c" horiz-adv-x="829" d="M618 1169q12 -2 35 -4l-4 -4q25 -27 25 -78q0 -14 -3 -43.5t-3 -46.5q-25 -18 -29 -18t-10 4q-12 63 -13 143q0 27 2 47zM483 1108q8 2 9 6l-4 4q-5 4 -5 6q2 10 4 21.5t15 11.5h8q10 0 10 -17.5t19 -13.5q6 -33 6 -61q0 -61 -25 -104q-29 14 -28 67q1 64 -9 80z M199 1169q2 4 8 5q2 0 9 -2.5t11 -2.5v-2q0 -2 15 -14q18 -37 18 -90q0 -61 -24 -111q-14 10 -15 27q0 6 2 16v15q0 12 -4 20zM381 950q-37 4 -35 19q12 16 12 43q0 14 -5 43.5t-5 46.5q0 25 10 41h4q14 0 27.5 -16.5t13.5 -28.5q1 -109 -22 -148zM694 371q-8 10 -14 8 q-10 -33 -10 -82v-59q2 -39 2 -60q0 -10 6 -33.5t6 -33.5q0 -27 -14 -41q-102 -98 -318 -99q-49 0 -102 6q-102 10 -82 11q-27 0 -27 45q0 33 -2 33q0 10 -7 37.5t-7 41.5l-14 15l4 -6q0 18 -11 61q-10 37 -8 59q-4 18 -8 38t-20 28q-2 -4 -7 -4q-4 0 -14 9t-12 11 q-12 16 -35 45v15q-2 53 25 108q8 18 39.5 26.5t31.5 24.5q0 6 -2 15q8 57 21 172l2 -2q10 23 24 98q12 63 37 96q2 2 6 2q2 0 17 -22q-2 -39 -19 -98q-20 -76 -24 -97q-20 -106 -21 -227q0 -150 51 -479q63 -23 146 -23q47 0 102 8q12 14 44 17.5t42 9.5q33 18 66 37.5 t53 46.5v18q0 29 -4 83.5t-4 80.5q0 68 6 207t6 207q0 88 -6 160q6 4 14.5 20.5t18.5 16.5q2 0 8 -2q6 -35 6 -78q0 -29 -3 -84.5t-3 -83.5v-39q2 -8 19.5 -10t21.5 -7q47 -45 47 -135q0 -83 -74 -112zM72 504q-37 -14 -39 -86q10 -4 11 -23.5t9 -25.5v2q0 10 25 4 q0 -8 4 67q2 46 -10 62zM686 565q-6 -27 -6 -65q0 -33 4 -72q43 37 43 66q0 14 -14.5 39.5t-26.5 31.5zM501.5 670.5q14.5 13.5 22.5 13.5q6 0 15 -6l4 -39h-2q-6 0 -18.5 -13.5t-20.5 -13.5q-6 0 -13 4q-14 35 -14 29q0 6 6 9t20.5 16.5zM291 606q-10 8 -21.5 16.5 t-11.5 20.5l14 41q16 0 41 -35v-6q3 -21 -22 -37zM399 385q16 0 37 18.5t29 18.5q33 0 33 -49q0 -29 -45 -33l-66 -4q-23 10 -47.5 23.5t-28.5 35.5q2 0 4 3t13 3q12 0 35.5 -8t35.5 -8zM276 113q-35 23 -34 49h24q109 0 295 53q29 -12 29 -20l-17 -45q-37 -2 -141 -23 q-88 -16 -143 -14h-13z" />
<glyph unicode="d" horiz-adv-x="743" d="M319 1159q23 -4 23 -29q0 -37 2 -40l-10 -160q-23 2 -27 22q-12 61 -12 111q-1 59 24 96zM160 1149q25 -10 24 -64q0 -51 -4 -112q-16 8 -26 45q-6 27 -13 55q0 -4 0 29q1 37 19 47zM459 1130h8q-2 -8 7 -11t9 -13q0 -94 -28 -174q-12 12 -39 35q2 43 6 86q6 52 37 77z M571 1096q4 4 9 4q18 0 18 -27q-4 -6 -4 -12t4 -15.5t4 -13.5t-4 -12q-14 -33 -20 -107q-25 -4 -21 -4q-10 0 -16 11v32q-1 81 30 144zM627 518q16 8 16 29q0 45 -18 45q-27 0 -17 0q-4 -106 -8 -215q-8 -141 -25 -205q-6 -23 -28 -57q-74 -113 -215 -121h-10q-27 -2 -62 18 q-41 23 -57 25q-29 43 -60 86q-31 51 -30 98q0 12 2 27q-12 41 -23 137q-8 90 -24 137q-23 -2 -48 -37q-2 -8 -2 -16q0 -47 39 -68q0 4 0 -12q0 -2 2 -4q-2 -10 -12 -10q-16 0 -31.5 41t-15.5 63q0 49 68 96q-8 113 -9 158q0 86 17 146l18 10q12 -8 10 -30.5t2 -29.5 q-12 -72 -12 -151q0 -115 29 -275q25 -137 51 -272q66 -74 145 -74q68 0 132.5 51.5t83 115t18.5 190.5q0 53 -6 157.5t-6 157.5q0 119 41 150l6 -9q0 -39 7 -114.5t7 -114.5q29 6 33 6q39 0 45 -51q0 -41 2 -82q-10 -12 -23.5 -27.5t-25.5 -15.5q-10 8 -10 23q0 12 4 24z M199 676q14 -10 14 -27q0 -6 -6 -12q-23 -8 -19 -8q-12 0 -14 14t-4 14zM387 623q6 31 37 30q16 0 16 -24q0 -23 -39 -37q-12 0 -12 22q0 7 -2 9zM201 375q80 -8 73 -8q31 0 61 20.5t36 50.5q14 -2 14 -39q0 -31 -41 -53q-33 -18 -68 -18q-45 0 -75 24v23zM244 178 q-8 4 -8 17q0 18 2 16q68 4 196 35l10 -15v-8q0 -47 -165 -47q-19 0 -35 2z" />
<glyph unicode="e" horiz-adv-x="925" d="M719 412q-33 -102 -64 -207q-43 -117 -106 -174q-33 -31 -146 -31q-106 0 -178 66q-53 49 -73 135q-6 23 -25 153q-57 12 -72 19q-35 14 -53 49q-2 14 -2 31q0 88 66 149l65 25q20 39 33 112q14 88 24 115l11 6q-35 72 -121 82v6q0 10 9 20.5t11 12.5q55 -8 72 -12 q47 -14 55 -43v-37q0 -74 -24.5 -217.5t-24.5 -214.5q0 -88 25 -183q33 -123 87 -150.5t132 -27.5q82 0 123 43q74 78 125 320q43 203 43 352q0 76 -43 184q-37 -12 -33 -12q-12 0 -37 44t-33 54q-2 -4 -2 -8q0 -10 6 -29.5t6 -29.5q0 -23 -22 -35q-12 4 -19.5 29.5 t-15.5 33.5q-6 18 -39 58q-27 33 -26 55q0 14 8 29q33 -12 59 -47l23 53q66 -49 104 -133q6 4 10 22l-2 8l25 3q53 -82 65 -211q6 -113 15 -224q35 -6 71 -12q33 -12 33 -59q0 -49 -49 -116.5t-96 -55.5zM106 430h9v143l-25 -10q-2 -6 -27.5 -33.5t-25.5 -44.5q0 -23 23 -39 t46 -16zM815 557q0 33 -53 33h-10l-21 -103q4 2 12 2q23 -4 47.5 22t24.5 46zM342 1165q133 -63 137 -157q-4 -10 -8 -20.5t-20 -8.5q-47 63 -58 76q-35 43 -71 65q4 18 20 45zM348 977v-10q0 -8 -8 -20.5t-10 -20.5l-8 -4q-57 51 -68 61q-43 31 -82 43q-2 4 -2 8 q0 8 5 20.5t7 16.5h6q37 2 160 -94zM428 739q8 27 66 54q49 20 45 65l18 16l31 -49q45 8 53 9q14 0 23 -5v-6q0 -10 -10.5 -27.5t-10.5 -29.5l-57 -23q4 -33 4 -53q0 -66 -41 -88q-25 4 -25 33q0 8 2 22.5t2 22.5q0 2 -6 39q-10 0 -30.5 -7t-32.5 -7q-16 0 -29 14q4 8 8 8 q-2 14 -10 12zM340 705q18 -4 22.5 -27t6.5 -43h4q8 0 23.5 8t23.5 8q6 0 12 -4v-4q0 -23 -27.5 -45.5t-27.5 -45t-8 -69.5l-31 -4q-8 6 -8 56q0 31 -35 22l-16 6q14 41 38 47q6 8 7 19q0 8 -6.5 24.5t-6.5 24.5q0 19 29 27zM532 481l17 -6q-25 -98 -113 -98q-66 0 -65 41 q0 20 16 41q29 -20 66 -21q75 0 79 43zM315 184q-10 4 -10 13q0 8 11.5 22t11.5 25q18 8 75 61q43 39 117 39q45 0 82 -22v-29q0 -25 -33 -33q-39 10 -73 10q-63 0 -101 -32q-51 -46 -80 -54z" />
<glyph unicode="f" d="M96 375q-35 31 -67.5 59.5t-32.5 93.5q0 59 33 101q45 27 53 26q20 0 41 -24q74 166 117 223q82 113 206 129q14 104 46 160q-6 14 -7 35q0 39 19 79q20 51 53 52q16 0 27 -15q-16 -20 -36 -44.5t-22 -47.5q2 -2 4 -2q12 0 32 15.5t30 15.5t18 -6q4 2 11 2q23 0 22 -43 q0 -68 -61 -107q-8 -4 -17 -4q-8 0 -22.5 7t-20.5 10q-23 -31 -28 -103q121 -12 214 -88t121 -188l37 -140q23 2 64 -10q66 -55 65 -135q0 -49 -42 -87t-91 -44q-37 -115 -139 -205t-219 -90q-76 0 -215 57q-29 12 -62 49q-25 31 -51 62l-29 29q-57 61 -51 178zM879 520 l2 -145q72 57 71 88q0 33 -24 45q-4 2 -49 12zM592 1165q-43 -27 -43 -47l2 -4q16 14 41 51zM141 377q0 -59 6 -84q10 -68 95 -129q74 -51 149 -70q25 -4 64 -4q137 0 245 111q92 98 93 241q0 51 -13 129q-8 66 -18 131q-37 70 -72 140q-47 66 -174 65q-98 0 -184 -78 q-191 -178 -191 -452zM41 518q0 -39 49 -112q-2 14 -2 32q0 57 27 154q0 12 -15 12q-20 0 -16 0q-43 -27 -43 -86zM340 537q-25 6 -25 30q0 8 4.5 24.5t4.5 22.5q14 18 24 19q16 0 17 -47v-17q-7 -12 -25 -32zM633 528q-8 -2 -12 -2q-18 0 -19 41q0 25 23 25q12 0 10 -17z M494 354q-8 8 -21 8q-4 0 -14 -2t-17 -2q-16 0 -16 25q6 8 14 8q4 0 11.5 -2t11.5 -2q2 0 47 25q12 -6 12 -27q1 -27 -28 -31zM324 256q137 -39 168 -39q41 0 77 16v-6q0 -8 6 -14q-25 -33 -73 -33q-27 0 -66 10q-53 12 -63 15q-20 14 -49 51z" />
<glyph unicode="g" horiz-adv-x="1257" d="M1012 291q-43 -109 -153.5 -178.5t-229.5 -73.5q-41 20 -154 33q-98 10 -145 45q-10 8 -39 37q-14 14 -43 47q-84 98 -111 227q-6 6 -16 6q-6 0 -19 -4q-31 29 -63 55q-39 35 -39 70q0 31 14.5 47t28.5 35q12 6 31 6q6 0 21.5 -2t23.5 -2q18 0 23 16.5t10 34.5 q35 84 118.5 133t184.5 49q53 0 90 -12q4 6 4 10t-9.5 14.5t-7.5 16.5q-10 18 -10 39q0 16 9.5 46t9.5 44q0 25 -17 41v27q0 84 56 100q4 -6 4 -14t-33 -43l4 -78q35 47 72 47q4 0 18 -6q37 -12 37 -47q0 -8 -2 -31q-8 -4 -35 -37q-20 -25 -43 -24l-29 12q-8 -16 -8 -33 q0 -20 21 -49q29 -41 32 -49q115 -12 223.5 -80t164.5 -166h14q94 4 176 -102q4 -104 -129 -125q-8 2 -12 2q-18 0 -25 -33q-8 -41 -18 -51zM1020 580q35 -92 29 -142q63 29 81 80q-6 35 -47 39q-51 7 -63 23zM635 1055l-4 2q-16 0 -25 -15q-12 -25 -14 -24q4 -6 14 -12 q20 10 21 30q0 8 -6 13l18 -5zM131 451q-8 18 -8 41q0 14 4 39.5t4 39.5q0 20 -6 37h-8q-20 0 -34.5 -18.5t-14.5 -38.5q0 -49 63 -100zM946 457q0 16 -14 59q-41 113 -129 180q-29 23 -160 92q-35 18 -119 19q-29 0 -73 -8q-59 -10 -74 -13q-92 -59 -127 -116 q-43 -66 -43 -168q0 -106 45 -203q47 -104 129 -162q33 -2 98.5 -21.5t100.5 -19.5q23 0 59 17q150 63 207 114q92 85 100 230zM412 633v-8q2 -45 -23 -56q-12 10 -12 27q0 -6 12 51q4 4 8 4t8.5 -8t6.5 -10zM623 629q2 0 8 18.5t14 18.5q6 0 17 -13v-12q0 -18 -17 -53 q-4 -2 -8 -2q-14 0 -14 32v11zM551 436h6q8 0 25 -12q4 -4 4 -8q0 -41 -82 -41q-61 0 -62 24q0 8 15 33l8 2l-2 -4q25 -6 45 -6q29 0 43 12zM508 270q27 0 65 -24q2 -8 2 -15q0 -8 -6 -12q-27 16 -73 17h-7q-35 -23 -47 -23q-10 0 -16 8l-10 6q4 45 67 43h25z" />
<glyph unicode="h" horiz-adv-x="856" d="M109 356q-6 -2 -15 -2q-39 0 -78 54q-16 20 -16 67q0 63 29 98q10 12 33.5 17.5t33.5 15.5q0 -23 13 205q-2 8 -9 8q-4 0 -8 -2h-8l-4 2q-10 18 -10 41q0 59 64.5 123t215.5 64q31 0 84 -3q41 18 82 39q49 23 88 23t72 -25l2 -4q0 -10 -19 -14q-25 10 -47 10 q-39 0 -106.5 -38t-108.5 -38q-14 0 -43.5 3.5t-44.5 3.5q-115 0 -157 -78q-23 -43 -23 -52q0 -10 6 -18q106 80 197 109l186 -13q12 6 70 39q43 25 74 25q29 0 72.5 -19.5t51.5 -44.5q-12 -6 -28 -6q-18 0 -52 13.5t-53 13.5q-12 0 -22 -4q-43 -61 -121 -62q-27 0 -78 7.5 t-78 7.5q-51 0 -98 -33l-102 -74q-10 -55 -11 -115q0 -68 35 -278q4 -41 15 -115l63 -301l20 -24h25q92 2 105 2q61 8 98 36v31q2 20 2 31q0 57 -17 90q-27 -25 -71 -25q-2 0 -80 11q-6 10 -22.5 18t-20.5 14q12 10 35 11q8 0 25.5 -2t25.5 -2q63 0 100 36q-2 51 -2 76 q0 68 10 111q20 12 115 12q78 0 96 25q-23 158 -22 293l2 30q4 4 7 22.5t15 18.5q27 -63 29 -180q0 -133 12 -182q4 -12 5 -17q0 -45 -50 -51l-161 -20q-8 -18 -9 -41q0 -10 15 -99q20 -137 20 -147q0 -66 -22 -117q-59 -49 -170 -49q18 0 -119 6q-41 63 -96 256 q-8 27 -25 78q-2 32 -22 98zM41 485q0 -18 37 -75h6q4 -2 6 -2q6 0 10 6v35q2 25 2 32q0 39 -8 62h-4q-18 0 -33.5 -19t-15.5 -39zM782 895q10 -10 13 -25q-16 -2 -109 -2q-66 0 -100 -28q-25 2 -83.5 8t-90.5 6q-94 0 -152 -51q-20 0 -20 12q63 74 192 74q55 0 131 -12 q94 29 150 28q36 0 69 -10zM387 819q92 0 168 -49q14 -12 41 -33.5t27 -38.5q0 -20 -21.5 -58t-23.5 -56q-33 -43 -88.5 -77t-104.5 -34q-96 0 -160 84q-8 12 -23.5 36.5t-15.5 41.5q0 43 25 83t79 70.5t97 30.5zM231 618q12 -27 21 -26l4 2q-4 10 -4 22t5 35t3 35v8 q-16 -10 -20 -35zM471 559q23 78 23 84q0 59 -56 90l-14 -80q-4 -35 -41 -35q-12 0 -25 7q-18 18 -30 114h-6q-27 -68 -27 -114q0 -53 33 -88q25 -6 51 -7q51 0 92 29zM578 690q0 12 -21 19q-29 8 -31 10q0 -8 5.5 -31.5t5.5 -38.5q0 -12 -5 -24q14 2 22.5 18t16 28.5 t7.5 18.5z" />
<glyph unicode="i" horiz-adv-x="739" d="M0 506q0 4 6 26q20 78 68 99q-2 20 -8 78q-6 49 -7 77q0 33 7 58q-4 4 -5 37q0 37 35 59q12 10 43 23q0 27 -20.5 80t-20.5 83q0 25 17 48l16 -3q23 -39 41 -184h14q29 0 47 12q-2 6 -2 15q0 55 0 53q-2 6 -14 43q-8 25 -8 43q0 23 12 41l15 -2q31 -39 30 -111 q0 -14 -4 -88q12 -4 27 -4q16 0 39 4q31 6 39 8q8 20 8 43q0 18 -6.5 54.5t-6.5 54.5q0 31 13 57q33 -2 33 -127q0 -41 -5 -82l7 3q20 -6 61 -11h8q2 16 2 33q0 16 -2 48t-2 46q0 37 8 66h9q12 0 15 -21.5t9 -25.5q6 -23 6 -47q0 -2 -14 -107q84 -12 68 -12h8q4 16 4 106 q0 70 26 99l19 -25l-14 -197q31 -25 43 -90q6 -53 14 -106q4 -25 4 -90q0 -37 -3 -104.5t-3 -98.5q-18 -14 -57 -23.5t-54 -17.5h-6q-4 0 -11 2t-9 2q-12 0 -15 -12v-133q0 -129 15 -213q-23 -53 -82 -76q-57 -12 -115 -25q-6 -2 -29.5 -11t-38.5 -9q-27 0 -45 31 q-14 25 -28 51q-10 47 -45 162q-31 102 -39 161q-6 -6 -21 -6q-96 0 -96 156zM397 920q-37 -12 -143 -17q-92 -4 -137 -31q4 -23 4 -45q0 -25 -5 -69.5t-5 -69.5q0 -33 8 -61q16 -61 45 -246q25 -156 59 -244q8 -14 21 -47q6 -18 14 -34.5t29 -16.5q18 0 55 15.5t59 15.5 q55 0 56 49q0 14 -4 39.5t-4 40.5q0 16 4 26q-23 -18 -58 -18q-72 0 -76 35q0 10 -4 34h78q59 0 60 56q0 10 -2 31.5t-2 31.5q0 63 28 86q14 12 64.5 20.5t74.5 26.5q0 29 -2 117v117q0 12 3.5 35.5t3.5 36.5q0 31 -15 53q-31 10 -209 33zM76 553q-47 -45 -47 -111l2 -6 q6 -2 28 -12q16 -8 29 -8q8 0 18 2q-10 86 -30 135zM221 569v9q0 31 -20 30q-4 0 -8 -4l-3 12q-2 84 84 170q35 37 111 37q119 0 184 -84q-2 -2 -2 -4q0 -8 6.5 -19t6.5 -18q0 -6 -2 -10q-31 0 -48 -33q-23 -43 -32 -51q-111 -84 -164 -84q-64 0 -113 49zM276 711 q-45 -66 -45 -72q0 -25 37 -41q31 -12 58 -12q47 0 131 57q10 6 28 19q8 6 9 12q0 4 -11 12q10 8 13 8q-23 39 -64 41q4 -8 4 -16q0 -18 -27.5 -44t-29.5 -44q-6 -2 -12 -2q-4 0 -11.5 2t-11.5 2q-6 0 -12 -2q-38 4 -56 80z" />
<glyph unicode="j" horiz-adv-x="1021" d="M961 1008q0 -33 -35 -37q-31 12 -58 55q-33 53 -49 66q-74 61 -211 61q-47 0 -92 -10q-76 -18 -192 -109q-12 -8 -35 -26q-33 -31 -31 -74q20 4 56 29.5t53 31.5q61 25 122 52q74 31 127 30q63 0 101 -28q14 -12 45 -37q80 -53 88 -62q45 -43 45 -92q0 -4 -2 -27 q-12 -98 -10 -327q-33 -39 -105 -47q-59 -4 -119 -8l-6 -13q6 -451 6 -428q0 -45 -43 -65q-31 -14 -116 -21q-111 -10 -125.5 -13t-50 -15.5t-43.5 -12.5q-37 0 -58 49q-6 16 -14 50q-45 166 -51 258q10 0 -47 0q-39 0 -66 26q-45 47 -45 117q0 203 123 203q10 0 18 -2 l13 10l16 207l-8 6q-18 -6 -52 -26.5t-53 -24.5q0 8 -8 21t-8 20q0 6 4 14q14 2 14 16q0 4 -2 12.5t-2 12.5q0 10 29 10q20 0 35 14q-4 14 -30 21.5t-34 15.5q0 2 -10 17q-8 8 -6 16l14 8q-2 4 -9 10.5t-7 10.5l2 4q12 0 123 -23q45 184 127 267q143 143 264 143q14 0 31 -2 l6 -6q-8 -6 -8 -15q0 -4 4 -12t4 -12q0 -10 -15 -12q-20 -2 -61 -11q-119 -33 -201 -166q18 2 52 27q41 31 55 37q115 47 207 47q137 0 223 -63q39 -29 92 -125q6 -10 19 -29v-14zM106 307h11q23 0 33 15l-9 165q-10 14 -22 15q-27 0 -43 -37q-10 -23 -10 -66q-1 -59 40 -92 zM250 801q-14 -279 -14 -342q0 -299 79 -502h15q35 18 118.5 22.5t120.5 26.5l4 109q-49 -25 -96 -25q-55 0 -107.5 37t-56.5 90q6 16 29 27q12 -6 53 -62q31 -43 84 -43q104 0 105 123q0 25 -5.5 75t-5.5 75q0 20 2 37l27 38q51 4 100 11q59 8 99 26l-2 56q0 164 24 274 q-2 0 -106 84q-66 49 -123 49q-20 0 -31 -2q-23 -10 -65 -27q-106 -37 -142 -55q-73 -39 -106 -102zM303 614q-2 23 -2 43q0 98 54.5 154.5t152.5 56.5q63 0 108 -34q139 -104 140 -197q0 -12 -4 -27q-117 -102 -256 -102q-132 0 -193 106zM647 700q-14 -96 -14 -82 q0 -10 2 -18q10 0 28.5 12.5t32.5 12.5v8q0 40 -49 67zM473 782q-51 -84 -51 -159v-19q31 -16 78 -16t59 8q18 25 37 47v6q0 10 2 28.5t2 27.5q0 39 -31 49q-2 -2 -26 -70q-16 -41 -54 -47q-16 18 -16 51q0 10 2 31.5t2 34.5q0 16 -4 28zM410 780q-35 -12 -47.5 -53 t-22.5 -78q8 -4 14 -15t13 -11h4q16 51 39 157z" />
<glyph unicode="k" horiz-adv-x="1208" d="M899 510q23 -14 62 -14q16 0 49.5 3t50.5 3q86 0 86 -84q0 14 -4 -29q-6 -53 -8 -63q-10 -35 -35 -56l-238 -14q-8 -27 -8 -35q0 -25 2 -74t2 -73q0 -51 -8 -90l-25 -29q-35 -14 -137 -25q-88 -8 -129 -39q-39 10 -80 50q-61 57 -71 65q-35 -29 -70 -57q-41 -31 -82 -31 q-72 0 -139 107q-8 10 -23 32q-2 8 -2 25q0 23 12.5 67t12.5 66q0 51 -62 72q-55 63 -55 198q0 96 84 209q-41 111 -41 140q0 51 55.5 108t106.5 57q10 0 31.5 -2t31.5 -2q31 0 51 17q45 113 121 131q25 8 70 8q119 0 207 -84q61 63 96 63q80 0 158 -73.5t78 -153.5 q0 -61 -35 -109.5t-94 -54.5q-17 -69 -21 -229zM283 637q0 12 14 37.5t14 38.5q0 14 -14 22q20 88 78 117q16 8 112 27q66 12 93 57q16 6 30 6q35 0 93.5 -50t95.5 -50q47 0 63.5 33.5t30.5 68.5q8 2 14 2q12 0 21 -8q2 -8 2 -14q0 -39 -49 -107l22 -14q78 39 78 96 q0 37 -16 70v8q2 43 -47 70q-43 18 -87 36q-8 4 -16 4q-18 0 -39.5 -45t-77.5 -45q-57 0 -69 47q-51 45 -123 46q-86 0 -120 -74t-112 -74q-8 0 -79 6q-76 -20 -76 -98q0 -29 16.5 -78t16.5 -61q0 -37 -44.5 -91.5t-44.5 -91.5q0 -158 62 -231q10 -8 30.5 -27.5t20.5 -52.5 q0 -23 -15.5 -64.5t-15.5 -64.5v-8q16 -8 41 -48t54 -40q33 0 63 33q25 29 49 57q-23 39 -63 149q0 35 -21 97h-12q-33 -2 -68.5 17.5t-48.5 49.5q-16 39 -16 107q0 76 45 104q33 23 115 31zM264 541q-12 12 -31 12q-29 0 -49 -25q-2 -10 -2 -18q0 -35 23.5 -65.5 t58.5 -28.5v125zM1057 354q2 6 6 23.5t4 25.5q0 23 -31 23q-14 0 -35 -8q-82 -2 -71 -2q-80 0 -109 45l-2 47q0 168 15 266l-9 19q-12 -2 -22 -2q-53 0 -117 32l-57 64q-12 -2 -74 -51q-27 -20 -91.5 -24.5t-84.5 -33.5q-2 -4 -2 -10t5 -16.5t5 -16.5v-4l-25 -248 q0 -244 84 -399q43 -80 80 -80q12 0 36 4t32 4q66 4 192 25q4 20 5 45q0 23 -5.5 69t-5.5 68q0 80 54 117q76 4 223 18zM811 688q-49 -152 -145 -172q-76 -14 -95 -14q-33 0 -82 36.5t-55 69.5q-18 14 -18 35q0 6 2 12q57 129 194 129q41 0 103.5 -31.5t95.5 -64.5zM506 594 q0 8 3 26.5t3 28.5q0 14 -6 27h-4q-39 2 -39 -39q0 -12 14.5 -27.5t26.5 -15.5h2zM659 651q0 23 -10 45q-6 -6 -20 -55q-10 -35 -39 -41q-16 31 -15 100q-27 0 -26 -49q0 -47 31 -69h6q43 -4 65 30q8 12 8 39zM719 629q14 16 26 51q-10 8 -38 10l-2 -63zM711 229 q27 0 26 -34q-18 -37 -35 -74q-23 -49 -57 -49h-15.5h-17.5q-53 0 -98 37q-6 12 -37 41q-18 18 -18 49q0 10 2 20q8 4 18 4q12 0 25 -10q6 -25 18 -37q23 -23 29 -33q14 -10 31 -10q-8 0 63 17q12 25 27.5 52t38.5 27z" />
<glyph unicode="l" horiz-adv-x="1251" d="M1190 995l2 -53q0 -121 -70 -160q-16 -4 -45 -24q2 -31 10 -121q6 -76 7 -121q0 -61 -7 -80q-14 -53 -88 -65q-61 -4 -120 -9q-8 -23 -9 -120q0 -29 -4 -54q-4 -76 -10 -151q-14 -92 -80 -109q-78 -18 -213 -18q-115 0 -196 29q-14 -4 -25 -5q-29 0 -29 27l-8 133 q-23 -25 -69 -39q-59 -18 -74 -26q-61 12 -125 92q8 94 88 188q-12 25 -74 80q-51 45 -51 92q0 72 72 154q59 63 121 129q-12 33 -13 70q0 70 58 188q41 35 110 35q12 0 131 -15q0 2 31 70q20 39 45 59q45 39 102 39q63 0 113 -43q4 -4 82 -90q33 23 66 45q41 23 75 23 q80 0 119 -37q16 -16 38 -58.5t40 -54.5zM1022 481q2 25 2 51q0 33 -8 130q-6 80 -2 129l-6 10q-156 33 -324 33q-129 0 -250 -19q-18 -37 -43 -203q0 -6 -10 -59q-16 -72 -16 -209q0 -63 6 -164q6 -129 6 -166q90 -23 207 -22q82 0 182 12q8 195 27 358q2 18 6 52 q12 35 63 41h80q55 -1 80 26zM1128 938q0 49 -77 139q-12 4 -23 4q-29 0 -79 -50t-95 -50q-43 0 -91 74.5t-97 74.5h-7q-6 -6 -41 -22q-25 -8 -30 -35q-20 -76 -72 -104q-14 -8 -39 -8q-23 0 -66.5 12t-66.5 12q-35 0 -53 -16q-35 -33 -35 -107q0 -16 10 -45t10 -45 q0 -55 -88 -137t-88 -125q0 -31 53.5 -86t51.5 -94q2 -10 2 -21q0 -31 -38 -79t-38 -74q0 -23 21 -43q6 -2 14 -2q47 0 125 104q-2 39 -2 80q0 139 22 305q31 207 80 289q127 43 283 43q147 0 287 -39q8 -6 63 -21q39 -10 45 -45q59 37 59 111zM938 621q-12 -45 -98 -95 q-12 -6 -39 -16q-137 -61 -191 -61q-57 0 -108 49q-33 29 -44.5 67.5t-21.5 79.5q98 137 254 137q37 0 60 -6q69 -20 188 -155zM547 561v125q-31 -4 -55 -35q2 -2 22 -49q13 -31 33 -41zM748 647q0 10 -3.5 16.5t-9.5 25t-14 18.5q-4 0 -10 -2q14 -41 14 -52 q0 -23 -18.5 -46t-38.5 -23q-33 0 -33 51q0 29 29 80h-23q-37 -27 -37 -86q0 -14 4 -49t2 -54q51 10 58 13q33 8 49 26q31 33 31 82zM788 567q25 2 72 35v4q2 27 -47 62zM719 184q16 -2 26 -24q-6 -33 -68.5 -59.5t-103.5 -26.5q-76 0 -131 47q-2 2 -8 10t-6 14v5q12 2 25 2 q18 0 56 -10.5t56 -10.5z" />
<glyph unicode="m" horiz-adv-x="1019" d="M950 580v-11q0 -20 4 -58t4 -56q0 -57 -18 -78q-45 -49 -178 -49q-31 0 -84 4l-6 -10q-2 -12 -2 -29q0 -25 5 -74t5 -74q0 -94 -57 -135q-29 -20 -78 -24q-41 -2 -84 -2q-2 0 -47 -7q2 0 -11 0q-23 0 -64.5 -5t-62.5 -5q-23 0 -38 4q-29 29 -78 95q-4 127 -29 315 q-4 10 -16 10q-4 0 -12.5 -2t-12.5 -2q-8 0 -12 4q-78 29 -78 74q0 188 88 215h41q20 0 23.5 9t7.5 22q16 57 35 116q27 88 26 107q0 20 -17.5 54t-17.5 54q0 12 4 25q29 10 43 10t27 -8q2 -6 41 -119q2 -2 4 -2q16 0 21 15l-15 145q16 23 47 22q31 0 37 -59v-84 q0 -23 13.5 -23.5t27.5 -0.5q-2 14 6 41v16v29q-2 18 -2 26q0 51 37 51q35 0 41 -11t6 -48q0 -68 -18 -100h4q8 2 21.5 -2t19.5 -4q23 0 25 64.5t59 64.5q23 0 31 -17q-2 -37 -41 -121q12 -14 34 -14q4 0 13 2q14 18 38.5 71.5t32 59.5t17.5 6q29 0 22 0q10 -8 11 -24 q0 -29 -26 -78t-48 -68q14 -37 14 -86q0 -27 -5 -79t-5 -78q0 -31 6 -58h6q20 0 62.5 4t62.5 4q41 0 70 -10zM113 449q12 25 12 75q2 59 6 80q-4 14 -27 14q-6 0 -12 -2q-41 -20 -41 -92q1 -61 62 -75zM887 451l2 12q0 27 -12 53q-12 4 -31 4q-18 0 -55 -7t-56 -7 q-53 0 -67 57q-6 25 -6 101q0 35 3 105.5t3 104.5q-74 20 -162 21q-55 0 -164 -16q-63 -8 -86 -60q-10 -27 -15 -103.5t-24 -109.5q-8 -49 -8 -102q0 -84 22 -230q25 -160 29 -229q154 8 303 33l31 24q12 221 12 209q0 31 -61 31q-41 0 -53 18q8 20 34 50q20 8 205 8 q101 0 156 33zM455 817q70 0 123 -26q61 -76 61 -101q0 -10 -4 -20q-43 -37 -88 -76q-57 -43 -107 -43q-16 0 -57 12q-70 23 -123 111q-2 8 -2 14q0 68 72 107q47 22 125 22zM342 643v82q-27 -20 -27 -55q0 -25 27 -27zM383 670q-2 -6 -2 -13q0 -23 31 -22q14 0 26 4 q-23 12 -30 47q-6 29 -13 59q-14 -61 -12 -75zM459 649q47 8 53 45q-2 20 -4 44t-19 24q-4 -29 -8 -61t-22 -52zM588 700q0 18 -37 56v-99q37 37 37 43zM305 215h6q27 2 73 -17.5t71 -19.5q31 0 56.5 21.5t41.5 21.5q14 0 25 -10q-14 -29 -50 -44t-69 -30h-10 q-82 -2 -144 60v18z" />
<glyph unicode="n" horiz-adv-x="935" d="M874 459v-17q-16 -35 -67 -41q-61 -6 -80 -22q8 0 -25 0q-16 0 -22 -8q-4 -51 -4 -115q0 -90 12 -285l-12 -22q-209 -25 -260 -25q-106 0 -140 17q-41 18 -65 86q-16 55 -33 110q-8 16 -20 51q-8 25 -15 95q-6 78 -12 104q-12 14 -41 25.5t-39 21.5q-51 53 -51 131 q0 119 145 119q-2 14 -2 31q0 74 47 196q49 133 54 195q2 2 16 47q10 29 31 29q8 0 25.5 -2t25.5 -2q16 0 48 2t46 2q12 0 31.5 -4t26.5 -4h45q37 -8 98 -23q70 -14 209 -41q12 -20 12 -31q0 -10 -8 -16v-8q0 -27 -5 -77t-5 -75q0 -14 6 -61q4 -37 10 -111q18 -190 18 -272z M127 455l8 166h-10q-59 0 -59 -76q0 -29 2 -37q2 -24 59 -53zM705 1090l-17 -48l60 -12l16 49q-20 5 -59 11zM598 1114q4 -8 4 -16q0 -10 -7 -25.5t-9 -21.5h6q8 0 24.5 -4.5t24.5 -4.5q20 0 16 29q4 8 5 14q0 14 -27 21q-19 4 -37 8zM479 1135v-13q0 -29 -12 -55l72 -8 l22 63zM362 1130q8 -33 9 -40q0 -14 -9 -27l60 8q0 10 8 27.5t8 27.5zM340 1130q-10 2 -16 3q-25 0 -33 -33q-10 -43 -19 -49q14 2 39 4q14 2 19.5 35.5t9.5 39.5zM807 502v33q0 53 -12.5 159.5t-12.5 161.5q0 63 13 115q-53 4 -189 24q-119 16 -188 17q-66 0 -123 -13 q-43 -39 -62 -122q-2 -8 -12 -111q-14 -156 -14 -279q0 -283 74 -479q39 -8 81 -8q51 0 250 35l-6 94q-55 -23 -149 -23q-37 0 -88 5l-7 -5q-35 12 -59 46q10 10 12 10q0 16 -6 65q-4 43 -4 68q0 37 6 72q152 -12 211 -13q47 0 86 4q0 74 10 84l74 15q14 10 57.5 20.5 t57.5 24.5zM600 238l-31 2l-4 -52q2 2 23 2q14 0 14 15q0 35 -2 33zM569 279h31v16h-6q-2 0 -10.5 2t-10.5 2zM459 209q4 -4 4 -27q0 -12 8 -12q51 0 51 57h-10q-4 0 -14 2h-17q-22 0 -22 -20zM467 285q33 -6 39 -6q23 0 24 16l-63 4v-14zM369 217q-2 -16 6 -45q4 2 10 2 t18.5 -3t18.5 -3l6 2l-8 49q-4 0 -10 2h-11h-8q-12 0 -22 -4zM360 276q-2 0 33 0q33 0 37 19l-8 10q-4 -2 -10 -2q-10 0 -30 3t-28 5zM815 1028q0 29 2 39q2 0 -12 0q-4 0 -6 4l-4 -41h12q6 0 8 -2zM412 918q-25 8 -25 34v9q6 2 9 10t12 8q25 -25 24 -37q0 -6 -2 -10z M530 961l2 2v0q0 -6 9.5 -15.5t9.5 -17.5q0 -18 -21 -19q2 0 -24 13q-4 12 -4 22q0 23 20 25zM295 961q8 0 19.5 -14.5t11.5 -24.5q0 -4 -17 -13q-20 31 -20 35q0 17 6 17zM666 918q-25 -25 -33 -25q-4 0 -11.5 14.5t-7.5 22.5q0 6 2 14q12 16 21 17q8 0 15.5 -20.5 t13.5 -22.5zM745 903h-10q-14 14 -14 33q0 6 4 12l10 8q20 -27 21 -38q-1 -15 -11 -15zM688 838q29 -2 43 -34t29 -61v-14q0 -35 -31 -70.5t-65 -35.5q-66 0 -91 57v6q-2 72 48 125q10 10 34.5 15.5t32.5 11.5zM668 715q-25 20 -23 43v4q6 2 14.5 14t20.5 8q4 2 8 2 q8 0 21 -24q-4 35 -29 35t-45.5 -26t-22.5 -52q2 -14 5.5 -31.5t17.5 -17.5q18 0 33.5 18.5t27.5 34.5q-10 0 -28 -8zM406 778q39 0 78.5 -40t39.5 -76q0 -37 -39 -70t-73 -33q-33 0 -47 37q-23 49 -29 55q-4 16 -4 33q0 94 74 94zM399 612q68 41 68 82q0 39 -59 39 q-33 0 -33 -57q-1 -48 24 -64zM416 698q25 0 24 -24q0 -12 -13 -18.5t-24 -12.5q0 6 -6 17.5t-6 17.5q0 20 25 20z" />
<glyph unicode="o" horiz-adv-x="882" d="M756 1114q-2 -55 -17 -162q39 -72 56 -188q14 -98 26 -197q-2 -27 -5 -57.5t-17.5 -50t-87.5 -25.5q-61 -4 -62 -41q0 -2 4 -22q4 -37 13 -109q12 -88 26 -268q-61 -57 -190 -60q-160 -6 -205 -22q-37 12 -119 82q-27 102 -80 305q-6 0 -22.5 -4t-26.5 -4q-16 0 -16 12 q0 190 -33 285q8 23 45 28q29 0 59 2v29q0 35 -5 103.5t-5 101.5q0 27 2 49l15 14l-31 140l-60 -8q-4 6 -4 12q0 57 103 63q2 -6 9 -17t7 -20q0 -6 -4 -12l-25 -10q6 -49 37 -139l4 4l119 16q4 10 4 25q0 16 -8 47t-8 43q-14 -2 -27 -2q-18 0 -37 6q-4 4 -4 10q0 4 5.5 15.5 t3.5 17.5q31 8 53 8q45 0 65 -29q-4 -4 -4 -18q0 -4 -24 -4q-2 -10 -2 -21q0 4 18 -102l139 12q6 4 6 9q0 4 -6 13t-6 17q0 100 -61 88q-14 6 -15 25q0 4 2 10q45 18 111 25q2 -6 11.5 -18.5t9.5 -20.5v-6q-16 -14 -41 -13v-8q0 -10 16 -112l131 6v12q0 4 -16 100 q-12 2 -27.5 4t-15.5 15q0 16 31.5 40.5t45.5 24.5q8 0 17.5 -12t9.5 -23q0 -12 -13.5 -22t-25.5 -21q14 -37 33 -110l84 -12q-2 8 -2 16q0 16 5 47t5 47q0 45 -41 57q4 31 33 48q6 -4 43 -4q25 0 24 -39q1 -31 -32 -21zM106 371q4 18 5 37q0 20 -9 81q-6 45 2 82h-10 t-19.5 -3t-23.5 -1l21 -200h10h8q10 0 16 4zM743 520q-4 23 -4 51q0 16 2 47t2 46q0 35 -4 49l-8 24l-2 166q-29 12 -61 12q-27 0 -80 -10t-82 -10q-33 2 -19 2q-23 0 -66.5 -9t-66.5 -9q-20 0 -39 6q-98 -6 -159 -17q16 -225 32 -448q20 -268 60 -445l20 -4q53 23 152 27 q115 6 153 16q57 14 58 60q0 8 -2 16q-78 -8 -234 -20v-7q0 -4 -4 -6l-8 9q-16 -2 -30.5 -6.5t-10.5 -28.5q-6 -2 -8 -2q-14 0 -30.5 21.5t-27.5 23.5q0 20 -10 28l19 11q-6 25 -13 96q-6 59 -24 94q4 4 28 19h35q49 0 140.5 18t134.5 22l-4 84q0 43 65 52q84 12 96 22z M551 299q-2 -4 -2 -6q0 -4 4 -14q2 -10 0 -17q12 6 22 6q12 0 19 -8v19q0 29 -16 28q-11 0 -27 -8zM561 201q0 2 0 -37q0 -16 4 -29q18 0 53 15q-2 18 -5 37.5t-15 27.5q-14 -2 -37 -14zM498 188q-14 0 -15 -12q0 -6 4.5 -21.5t4.5 -21.5q12 0 34 8q-2 14 -5 30.5t-15 16.5 h-8zM475 236l43 4l-8 59q-4 0 -21.5 -7t-29.5 -5v-2q0 -10 8 -25.5t8 -23.5zM446 129v10q0 25 -24 25h-10h-17v-4q0 -6 3 -17.5t3 -17.5zM373 279q6 -6 10 -37t18 -31q35 0 35 25q0 8 -8 25.5t-8 25.5q-18 -12 -33 -13q-8 1 -14 5zM322 152q-2 -4 -3 -9q0 -6 4.5 -16 t4.5 -14q-2 0 16 0h6q12 0 17 8q-4 33 -25 33h-10zM297 274q4 -23 10 -45q8 -29 27 -28q6 0 14 2v20q0 55 -33 56q-8 -1 -18 -5zM649 877q0 20 21 20q20 0 30 -20q-10 -16 -22 -17q-6 1 -29 17zM549 874q0 4 2 11q12 8 29 8q29 0 38 -25q-8 -18 -28 -18q-41 -1 -41 24z M483 856q-2 -8 -8 -20q-8 0 -23.5 11t-15.5 17q0 12 10 17q8 0 37 -25zM383 827q-4 -10 -12 -10q-4 0 -17.5 8.5t-19.5 8.5l-2 6q0 14 12 20q31 0 39 -33zM274 809q-4 -12 -12 -12q-4 0 -16.5 7t-16.5 5l-12 16q8 16 25 17q28 0 32 -33zM662 809q0 -8 11 -17.5t11 -22.5 t2 -38.5t2 -40.5q0 -27 -8 -47q-53 -29 -117 -29q-47 0 -92 17l4 4q-18 8 -24 20q12 23 18 64q10 61 10 65q27 2 82 13.5t84 11.5h17zM645 694q-2 4 -2 8q0 6 2 17v14q0 14 -12 15q-4 0 -12 -3q18 -18 18 -32q0 -23 -23 -23q-16 0 -26 17v4t-2 9t-2 11q0 6 8 12 q-6 -2 -19.5 -6t-21.5 -4t-14 4q-20 0 -23.5 -23.5t-5.5 -43.5q35 2 73.5 4t61.5 20zM406 610q0 -4 -3 -14v-12q0 -10 5 -17v-4q0 -8 3 -27.5t3 -29.5q0 -35 -58 -35q-12 0 -34.5 -3t-34.5 -3q-23 0 -41 8q-14 18 -20.5 71.5t-16.5 71.5q33 23 113 23q72 0 61 0v-4 q0 -6 11.5 -8.5t11.5 -16.5zM375 532q2 4 2 9q0 -2 -10 47h-17q10 0 -84 -8q-2 -6 -5 -21.5t-3 -23.5t4 -19q39 2 113 16zM297 573q8 0 15 -11t12 -13l2 -6q0 -6 -13.5 -7t-15.5 -4q-16 8 -16 25q0 16 16 16z" />
<glyph unicode="p" horiz-adv-x="901" d="M727 1006q98 -74 98 -299v-64q2 -96 15 -147q-14 -39 -66 -56q-43 -10 -86 -18q-4 -31 -4 -62q0 -61 14 -172q14 -121 17 -170q-68 -88 -248 -88q-20 0 -62.5 3.5t-62.5 3.5q-10 0 -31.5 -2.5t-31.5 -2.5q-43 0 -58 29l-4 -2q-12 4 -20 21q-14 25 -15 26q-14 139 -51 416 q-29 -6 -47 -6q-47 0 -55 28q-23 4 -23 33q-4 41 -6 47q2 8 2 21q0 12 -2 35.5t-2 33.5q0 51 22 72q39 -10 78 -8h25q-6 113 -6 139q0 86 14 133l-20 37q92 35 200 35q10 18 28.5 26.5t35.5 16.5q-43 59 -88 119q-47 70 -66 131h-31v2l-4 6q0 16 39 55q25 -6 25 -28 q0 -6 -2 -11l-8 -8l151 -250q63 23 86 21q47 29 101 92q82 100 86 104q12 6 12 19q0 6 -4 17.5t-4 17.5q0 8 14 8q25 0 50.5 -16.5t27.5 -40.5q-12 -12 -23 -13q-16 0 -24 13q-70 -133 -176 -218q25 -55 20 -71q12 2 25 2q18 0 58 -6t60 -6q15 0 27 2zM68 473l55 8 q-10 31 -10 76q0 37 6 84q-18 2 -51 -8q-4 -37 -5 -80q1 -43 5 -80zM760 532q-39 358 -39 404l-41 14h-27q-51 -2 -147 5.5t-141 7.5q-109 0 -187 -25q-4 -70 -4 -145q0 -164 23 -404q20 -201 41 -403q29 4 188 8q117 2 182 33q37 16 37 47q0 12 -5 40.5t-3 45.5h-16 q25 0 -99 -19q-115 -16 -231 -16q-14 0 -29.5 16.5t-15.5 30.5q10 16 26 12q-6 39 -10 76q-8 49 -37 62q18 33 23 51q47 0 138 15t136 15t86 -10q2 20 6 59.5t60 49.5q72 14 86 30zM367 262q-51 -39 -52 -65v-11q106 6 314 37v43q-18 20 -37 21q-16 0 -38 -25.5t-36 -30.5 q-20 -14 -39 -14q-23 0 -58.5 21.5t-53.5 23.5zM297 291l39 26h8q23 0 55.5 -19t49.5 -19q27 0 88 59q18 4 34 4q33 0 50 -16v28q-164 -23 -330 -32zM252 885q-14 0 -39 -8q-8 6 -8 20q0 18 24 31q21 -12 23 -43zM553 868q10 -8 25 -8q8 0 26.5 3t26.5 3q10 0 16 -2l17 -28 v-218q-8 -8 -19 -8q-6 0 -16.5 2t-16.5 2q-4 0 -12 -2t-12 -2q-20 0 -53 47v109q4 65 18 102zM633 674q4 14 4 33q0 14 -4 57q-2 35 0 55q-23 0 -60 -18v-133q6 -2 13 -2q8 0 24.5 3t22.5 5zM594 805q4 0 13 -3t14 -1q10 -10 10 -27q0 -29 -21 -29q-27 0 -26 39q0 15 10 21z M289 825q53 18 92 19q39 0 53 -25q-6 -27 -6 -63q0 -14 2 -46t2 -48q0 -35 -8 -62q-6 -10 -16 -10h-5q-8 14 -30 14q-8 0 -25.5 -3t-28.5 -3q-33 0 -47 25q0 14 17 18q2 16 2 37q0 18 -3 55t-3 53q0 23 4 39zM332 653q4 -2 8 -2q10 0 27.5 8.5t23.5 10.5l-4 135 q-10 -8 -31.5 -8t-29.5 -4zM336 721q0 20 18 20q27 0 29 -20q-6 -31 -31 -31q-10 0 -12 14.5t-4 16.5zM231 776q-39 0 -38 19q0 31 30 30q31 0 31 -34q0 -15 -23 -15zM238 670q-23 0 -21 0q0 4 -6 10t-6 10t3 7t10 10.5t13 7.5t9 -2q16 -43 16 -35q0 -4 -4 -6t-14 -2z M241 557q-5 -4 -10 -4q-14 0 -14 22q0 16 19 17q18 0 18 -17q0 -6 -4 -10t-9 -8zM246 496q6 0 20 -23q-10 -12 -22 -12q-16 0 -17 16q1 19 19 19zM252 68q0 14 0 12q10 10 20 10q25 0 25 -24v-7q-4 0 -13.5 -4t-15.5 -4q-16 1 -16 17z" />
<glyph unicode="q" horiz-adv-x="847" d="M4 489q0 14 10 19q0 18 -10 88q-6 53 -6 86q0 18 2 33h4q10 0 28.5 -4t28.5 -4q20 0 27 20q-10 27 -10 66q0 16 2 48.5t2 49.5q0 39 -8 65q4 8 4 52q0 33 16 43q10 2 135 18q84 10 138 8q10 37 10 88q0 92 -2 84q-23 8 -53 35q-37 31 -54 39q-2 27 -22 51q27 82 30 90 q23 49 60 76h37q68 2 90 -20q49 -43 49 -99q0 -10 -2 -22h-4q8 -20 8 -41q0 -43 -47 -73t-49 -52l-2 -143h102q199 0 248 -103q-2 -41 -2 -84q0 -78 11 -231.5t11 -231.5q-55 0 -157 -22q-6 -31 -6 -68q0 -47 13 -140t13 -140q0 -55 -12 -101q-31 -18 -82 -18q-39 0 -100 4 q-82 4 -101 4q-53 0 -161 4q-29 23 -37 68q-4 39 -11 78q-4 14 -9 42.5t-13 84.5q-8 63 -21 194q-8 8 -18 8q-8 0 -21.5 -4t-21.5 -4q-16 0 -26.5 20.5t-10.5 38.5zM365 1319q23 6 45 11t41 24q31 33 30 65q0 70 -90 68h-24q-72 -68 -70 -125v-8q25 -23 68 -35zM113 963 q0 -6 8 -21.5t10 -21.5q2 -41 8 -121q8 -98 23 -215q0 -80 20 -234q12 20 23 21h4q0 -8 6 -20.5t6 -18.5q0 -8 -8 -13q-12 2 -31 15q2 -156 35 -297q53 -4 115 -4q127 0 250 16q8 27 8 60t-8 59q-16 2 -39 2q-25 0 -73 -3t-73 -3q-27 0 -61 4q-55 6 -60 63q-6 94 -8 101 q10 35 51 35q10 0 21 -5q111 20 217 23v96q20 27 78 31q70 2 88 12q-18 156 -39 467q-53 12 -119 13q-53 0 -160.5 -11.5t-160.5 -11.5q-10 0 -29 2h-29q-73 0 -73 -20zM569 248q0 39 -4 51h-39l2 -51h41zM502 295l-43 4v-55h43v51zM424 240q-2 4 -2 8q0 6 2 16t2 17 q0 12 -8 18v0q-2 0 -5 2t-5 2t-5 -4q0 4 0 -20v-13q0 -27 15 -26h6zM365 295h-9q-4 0 -14 -3t-18 -1q2 -18 4 -35q2 -23 20 -23q6 0 17 3v59zM51 643v-119q0 -12 6 -12t15.5 4t15.5 4q2 14 2 33q0 14 -4 44t-4 42zM199 885q-39 10 -37 37v6l10 12q2 0 6 -2q9 -16 21 -53z M612 668q-12 -8 -30 -9q-12 0 -33 4.5t-31 4.5q-20 31 -20 84q0 29 6 73q8 59 10 74q27 14 59 14q43 0 43 -32v-107q-4 -88 -4 -106zM545 860v-51h12q12 0 12 18q0 43 0 33h-24zM543 750v-21q0 -12 12 -12q25 0 23 2v35q-10 -4 -35 -4zM166 805q2 4 2 20q0 10 14 15 q0 -4 8.5 -20.5t8.5 -24.5t-6 -15q-9 9 -27 25zM297 508q-23 12 -23 41v20q2 14 2 23q0 14 -2 45t-2 47q0 43 4 78l72 16q37 -41 37 -110q0 -16 -2 -47t-2 -48q0 -20 2 -36q-10 -20 -35.5 -23.5t-50.5 -5.5zM346 602q0 18 -22 19q-4 0 -9 -3v-38l29 4v10q2 6 2 8zM346 698 q0 20 -24 21h-11l4 -41h29q0 4 2 10v10zM186 690h-2q-8 0 -18 12l12 25q8 -43 8 -33v-4zM186 616q10 -6 14.5 -24.5t8.5 -24.5q-4 -4 -8 -4t-11.5 7.5t-11.5 9.5q-2 -6 -2 22q0 10 10 14zM178 459q2 29 10 28q18 0 25 -47h-6q-19 1 -29 19zM207 193q-2 10 10 34h4q8 0 9 -15 t8 -19q-2 -8 -9 -9q-4 0 -11 4.5t-11 4.5zM225 121q4 2 8 2t7.5 -8.5t7.5 -8.5l-8 -4q0 -6 5 -9t5 -7t-21 -8q-8 8 -8 18q0 7 4 25z" />
<glyph unicode="r" horiz-adv-x="792" d="M559 442q-16 0 -16 -16q0 -51 12 -161.5t12 -168.5q0 -49 -6 -92q-55 -51 -162 -51q-23 0 -64.5 2t-62.5 2q-41 0 -69 -4q-39 6 -60 84q-2 8 -14 78q-23 135 -33 280q-8 0 -21.5 4t-21.5 4q-10 0 -16 -8q-27 25 -33 86q-2 49 -4 97q-8 59 -8 61q0 16 8 31q12 -10 33 -11 q18 0 30 11q6 23 7 47q0 8 -17 233q23 12 45.5 25.5t44.5 13.5q12 0 29 -4q18 8 53 8q16 0 45 -2t45 -2q25 0 41 4l-14 31l14 227q-23 25 -71 39q-4 16 -37 60q-27 35 -27 61q0 12 4 25h4q6 0 13 -9q25 100 131 101q27 0 43 -8q78 -41 90 -77t12 -73q0 -29 -16 -49 q-16 -8 -21.5 -34.5t-29.5 -29.5l-50 -4q-14 -82 -14 -159q0 -59 8 -109q23 -2 271 -51q16 -12 16 -55q0 -4 3 -26t11 -71q35 -188 35 -254q0 -53 -6 -69q-12 -29 -57 -29q-18 0 -54.5 6t-54.5 6zM301 1335q27 -18 68 -18q18 0 43 4q2 16 28.5 45t26.5 43q0 25 -27.5 39 t-54.5 14q-88 0 -88 -86q0 -16 4 -41zM72 467l16 -35q-2 16 -6 72q-2 47 -2 74q0 20 -15.5 22t-31.5 4l12 -141q-2 0 16 0q7 0 11 4zM512 115q0 4 -4 51q-61 -29 -156 -29q-82 0 -119 13q-25 8 -24 32q0 4 2 16.5t2 16.5q0 16 -11.5 46t-11.5 44q0 18 13 31q33 12 76 12 q35 0 101 -10t101 -10h11v6q0 18 -4.5 54t-4.5 54q0 41 17 68h157q0 57 -8 182q-10 119 -8 182q-186 41 -328 41q-129 0 -229 -34q0 -25 4 -99q4 -61 4 -98q0 4 8 -63q14 -147 29 -295q23 -168 61 -289q23 -2 78 -4q47 -2 76 -2q123 0 145.5 20.5t22.5 63.5zM492 285h-13 q-20 0 -20 -15q0 -6 4 -20t4 -21q0 -8 -4 -16h39q-2 25 -10 72zM434 205q-2 10 -2 24q0 18 8 47q-10 0 -12 5q-20 0 -20 -29q0 -59 2 -49q2 0 6 -2h8q8 0 10 4zM381 203l-12 78h-35l2 -78h45zM301 195l-4 90q-6 0 -19.5 4t-19.5 4q-10 0 -16 -8q2 -4 10 -58q4 -35 35 -34 q6 0 14 2zM449 842h-7q-12 2 -22 14v2l14 23q16 -8 15 -33v-6zM553 838q-6 4 -6 10q0 4 6 12t6 14h4q8 0 10 -14q4 -20 5 -22h-25zM342 836h-27q-2 4 -2 10q0 27 19 26q6 0 6 -12t6 -14q-4 -2 -2 -10zM131 819q-4 6 -4 12q0 12 20 27q14 -25 15 -29q0 -6 -5 -12t-10 -6 q-2 0 -8 5t-8 3zM233 819h-2q-18 0 -18 19q0 20 14 20t15 -18q-1 -15 -9 -21zM428 670q0 8 -3 29.5t-3 31.5q0 27 21.5 51.5t48.5 24.5q59 -51 59 -115q0 -68 -55 -67q-41 0 -68 45zM494 739q-37 -23 -35 -51v-4l41 16q4 10 4 21q0 12 -10 18zM268 477q-33 0 -55.5 25.5 t-22.5 58.5q0 80 95 80q33 0 41 -43q6 -35 10 -68q-25 -53 -68 -53zM283 543q6 10 6 18q0 23 -31 23q-23 0 -33 -15l17 -34q6 -4 12 -5q13 1 29 13z" />
<glyph unicode="s" horiz-adv-x="1603" d="M782 -20q-186 156 -268 372q-72 197 -76 449l-8 8q-59 -23 -119 -45q-70 -27 -121 -27q-111 0 -190 111q10 4 8 22q25 12 19 39q115 121 241 121q98 0 193 -65q14 18 43 30q23 12 47 23q-20 55 -21 125q0 78 23 155q27 0 41 -33.5t27 -64.5q10 -20 17 -76.5t30 -81.5 q12 2 24 2q29 0 78 -8t72 -10q147 172 135 340q80 -29 80 -205q0 -127 -58 -176l48 -51q10 2 11 15.5t3 15.5q178 111 280 110q61 0 119 -33q82 -47 82 -84q0 -57 -119 -122q-14 -8 -39 -23q-45 -20 -141 -20q-29 0 -76 2q-59 4 -73 4q0 -96 32.5 -298t32.5 -302 q0 -47 -12 -86q-57 -70 -168 -97q-99 -18 -197 -36zM1452 975q-51 35 -111 35q-84 0 -182 -72q49 0 146.5 18.5t146.5 18.5zM1460 936q-47 -23 -186 -29q-119 -6 -182 -63q158 8 192 14q100 19 176 78zM221 805q25 18 80 32.5t78 30.5h-43q-23 0 -43 -6q-23 8 -47 8 q-35 0 -92 -18q-68 -18 -93 -23q29 -16 78 -18q41 -4 82 -6zM182 930q2 0 119 -6q74 -2 115 -17q-59 47 -142 47q-53 1 -92 -24zM1004 1169q-39 -98 -84 -153l22 -4q61 92 62 149v8zM582 1190v-164q16 4 49 8q-12 54 -49 156zM709 143q106 133 290 133q35 0 70 -6l-61 389 q-10 63 -35 189q-4 8 -16.5 25.5t-12.5 27.5q0 8 8 17q-31 14 -96 36l-12 -8q-12 2 -60 19q-35 12 -63 12q-41 0 -105 -19q-88 -27 -104 -28q-10 -18 -39 -39q6 -16 23 -51q25 -184 51 -369q43 -205 162 -328zM874 733h11q14 0 35 -20q-10 -47 -9 -49q-6 -4 -10 -5 q-8 0 -20.5 12.5t-18.5 17.5t-6 13q0 13 18 31zM690 610l-2 -4q0 -8 11.5 -16t13.5 -17q-33 -68 -66 -65h-4q-20 8 -53 39q0 4 8 11t8 13q0 4 -6 9q10 4 32.5 21t37.5 17q10 0 20 -8z" />
<glyph unicode="t" horiz-adv-x="1193" d="M0 287v12q-2 20 9 62t11 63q0 31 -5 94.5t-5 95.5q0 182 68 301q86 147 254 148q133 0 243 -133q16 -16 41 -49q8 -29 46 -74q35 -4 190 -45q25 -4 74 -14q16 -6 47 -17l94 -18q43 -16 61 -70q4 -16 5 -22q0 -33 -46 -60q-14 -10 -49 -29q-68 -33 -188 -40 q-180 -12 -197 -15q-18 -37 -49 -168q-23 -106 -69 -155q-4 -2 -9 -2q-16 0 -28 14q25 109 92 319q-20 41 -21 90q0 45 19 111q27 98 28 107q-47 82 -141 140t-186 58q-80 0 -166 -141q-35 -57 -35 -162q0 -35 5 -105.5t5 -105.5q0 -190 -88 -190h-10zM676 750 q-31 -53 -31 -132q0 -37 8 -69q-14 0 37 0q61 0 60 -2l-66 33q-4 8 -4 16q0 14 12 16q102 -47 207 -47q109 0 178 56v4l-8 18q-86 35 -297 76q-12 2 -38.5 17.5t-45.5 15.5q-6 0 -12 -2zM1001 612q-2 0 -16 27q6 14 21 14q16 0 16 -20q-1 -21 -21 -21zM924 610q-16 0 -17 21 q0 16 17 16q18 0 18 -20q0 -17 -18 -17zM420 866q41 -10 41 -65q0 -10 -6 -15q-12 0 -29.5 20.5t-17.5 35.5q0 10 12 24zM274 694q4 20 17 21q29 0 45 -80q0 -12 -17 -27q-31 14 -45 86z" />
<glyph unicode="u" horiz-adv-x="1808" d="M1163 1026q-35 -84 -35 -131q0 -16 2 -31q31 23 64 43q33 29 33 64q0 55 -56 55h-8zM446 760q-29 96 -47 166h-20q-49 2 -49 -47q0 -37 6 -67t47 -38q32 -8 63 -14zM440 924l172 -502q6 2 13 2q8 0 30 -4q18 -2 29 0q55 -20 55 -39q-12 -4 -30 -4q-14 0 -42 3t-40 3 q23 -88 71 -115l-14 -16l84 -129q29 41 80 10l31 166q-6 0 -15 -4q-4 4 -21.5 7t-17.5 15v9q10 12 37 12t37 4q4 20 12 61q-6 -2 -10 -2q-25 0 -37 25q6 6 62 18q25 127 78 377q43 61 69 172q43 174 47 183q-14 -20 -53 -50t-53 -53l-15 -4q-45 47 -120 152q-37 33 -52 32 q-10 0 -20 -6q-12 -16 -27 -76q-12 -51 -41 -67q-25 16 -60.5 62t-57.5 63v-152q0 -29 -23 -28q-4 0 -53 32q-92 66 -162 86q43 -90 47 -190q-2 -4 -2 -6q0 -8 9 -18.5t9 -16.5t-6 -12zM596 299v6q0 12 -10.5 38t-7.5 40q-68 4 -138 4q-147 0 -374 -22l-31 10l8 8 q-8 10 -12 8q74 35 248 35q49 0 138 -3t120 -3q10 0 20 2q-29 125 -100 307q-66 -16 -60 -16q-14 0 -24 8q-94 61 -94 176q0 55 28 70q20 12 76 10v4q0 47 -16 115q-14 55 -31 110q14 14 43 15q47 0 98 -31q43 -31 86 -60q4 12 4 31q0 12 -3 40t-3 42q0 47 33 62 q29 -10 63 -50q55 -61 56 -61q2 4 28 88q18 55 64 55q43 0 98 -75q59 -84 86 -95q35 31 72 62q45 39 82 43l8 -33q0 -12 -8 -18q8 2 14 2q25 0 25 -49q0 -45 -13 -76q41 -37 82 -72q47 -49 47 -92q0 -88 -172 -133l-6 8q-14 -70 -51 -178q-49 -145 -57 -178q164 4 235 4 q313 0 500 -58q-27 -4 -39 -4q-18 0 -35 8q-322 23 -446 23q-125 0 -232 -12q-4 -25 -20 -72q362 -2 678 -102h-2v-15q-4 4 -9 4q-4 0 -9 -5t-9 -5q-88 0 -279.5 41t-287.5 41q-43 0 -96 -2q-16 -23 -22.5 -56.5t-12.5 -64.5q-2 -4 -19 -49q-10 -31 -10 -51q0 -2 6 -6t6 -6 q14 -6 15 -35q0 -49 -25 -74q-31 -33 -74 -33q-39 0 -64.5 20.5t-28.5 61.5t-9 51q-14 18 -35.5 62.5t-71.5 132.5q-14 2 -30 2q-115 0 -287 -29q-150 -27 -299 -51v4q0 14 20 21q14 6 31 10q117 31 236 59q145 35 237 35q39 0 72 -4zM872 838q-12 2 -12 8q0 4 7 14t5 17 q31 18 33 18q8 0 13 -10v-64q-6 -4 -13 -4q-10 1 -33 21zM692 741l-4 -2q-20 0 -49 33q-2 6 -2 12q0 12 15.5 24.5t25.5 12.5q4 0 8 -5t6 -7v-68z" />
<glyph unicode="v" horiz-adv-x="933" d="M752 762q121 -82 120 -256q0 -150 -77 -279q-80 -137 -215 -188q-31 -12 -68 -12q-184 0 -328 104q-154 113 -178 293q-6 45 -6 92q0 174 106 254q49 35 84 109q41 84 70 112h6q23 0 33 -33q14 -43 28.5 -86t39.5 -71q86 12 106 12q43 0 70 -16q31 59 104 170l21 -4 q35 -63 49 -97q25 -55 35 -104zM813 565q0 47 -51 103q-63 66 -74 92q-4 6 -8 33q-12 63 -27 63q-6 0 -34.5 -56.5t-59.5 -56.5q-8 0 -34.5 7.5t-45.5 7.5q-43 0 -96 -17q-2 2 -29 9q-16 6 -18 20q-29 10 -41 49q-10 33 -19 66h-8q-53 -104 -125 -156q-88 -63 -88 -209 q0 -80 15 -121q33 -106 127 -196q117 -111 256 -113q-8 0 9 1t50 5q135 23 221 150q4 6 29.5 53t31 91t9.5 91q10 82 10 84zM272 606q10 0 11 -14v-8q0 -23 -11 -39q-4 -2 -6 -2q-14 0 -10 20q-2 4 -2 8q0 15 18 35zM608 623h6q10 0 19 -19q-10 -76 -37 -76q-20 0 -21 33 q0 25 33 62zM416 496q51 0 103 -44t52 -94q0 -2 -10 -73q-55 -82 -121 -80h-6q-57 6 -99 42t-42 91q0 61 18 98q8 20 44 40t61 20zM526 352q0 43 -22 60q-45 33 -86 32q-37 0 -62.5 -29.5t-25.5 -66.5q0 -39 61 -86q29 -6 51 -6q84 0 84 96zM377 356q0 33 20 33v-65h-4 q-16 -1 -16 32zM461 389q18 -4 16 -33v-8l-3 -18q-3 -17 -9 -17q-20 0 -21 31q1 12 17 45z" />
<glyph unicode="w" horiz-adv-x="1064" d="M311 211q23 -10 58 -23q-23 45 -23 111q0 213 100 272q14 35 72 66q68 37 86 55q23 4 64 26.5t63 26.5q2 37 2 136q0 31 -10 65q-20 63 -129 64q-115 0 -205 -49q-100 -55 -145 -154q-61 -135 -62 -291q0 -150 70 -260q14 -20 59 -45zM360 150q-84 25 -143 89t-67 146 q-4 59 -25 59q-8 0 -16 -4q-109 68 -109 105q0 94 43 124.5t82 30.5q14 0 25 -6q20 121 88 217q76 111 184 140q74 20 166 20q29 0 55 -4q104 -63 107 -66q16 -18 24 -112v-4q4 -4 8 -4q6 0 13.5 6t13.5 6q14 0 37 -14q31 -18 37 -21q2 -12 13 -37.5t11 -42.5 q0 -20 -23.5 -48t-43.5 -28q-2 0 -6.5 3.5t-8.5 1.5q-2 -2 -2 -5l25 -38q133 -72 156 -132q4 -12 4 -36q0 -57 -33 -86q-14 -10 -41 -39q35 -55 35 -123q0 -51 -19 -80q-35 -51 -92 -96q-63 -49 -115 -60q-25 -2 -49 -2q-78 0 -174 49q-80 46 -160 91zM891 289q0 16 -4 35 q-78 -55 -203 -56q-102 0 -158 19q-100 35 -118 78q-18 -90 -19 -84q0 -8 2 -19q4 -35 11.5 -69.5t43.5 -34.5q55 -25 109 -49q68 -27 117 -27q57 0 98 29q121 80 121 178zM840 811q-8 16 -19 16q-4 0 -15 -6t-18 -6q-4 0 -10 4q4 -31 27 -86zM782 680q-297 -84 -360 -262 q12 -35 86 -60q33 -12 106 -12q131 0 230 57q35 33 78 86q8 14 8 39q0 45 -58 88q-45 31 -90 64zM131 467v20v23q0 74 10 145q-84 -12 -84 -110q0 -43 25 -53q43 -21 49 -25zM604 776q-33 0 -33 43q0 37 25 49q31 -2 31 -41q0 -22 -23 -51zM457 750v-7q2 -12 -8.5 -26.5 t-18.5 -28.5q-16 0 -21.5 14.5t-9.5 26.5q14 49 31 49q10 0 16.5 -10t10.5 -18zM844 532q-29 -25 -31 -24q-8 16 -8 31q0 16 12 36q25 -12 27 -43zM739 494h-16q-4 6 -4 18q0 41 20 41q16 0 17 -33q-1 -14 -17 -26z" />
<glyph unicode="x" horiz-adv-x="1312" d="M1251 434q0 -37 -6 -74q-33 6 -112 35q-70 25 -115 25q-14 0 -31 -2q-18 4 -37 4q-76 0 -147 -62q-37 -31 -111 -120q-18 -23 -37 -115q-12 -66 -65 -70q-10 37 -10 72q0 156 145 283q-10 55 -10 114q0 174 102 361q-35 49 -98 49q-193 0 -238 -35q-100 -76 -131 -100 q-74 -59 -123 -113q-37 -41 -102 -166q-72 -137 -102 -180q-12 -2 -23 20l8 142q63 102 127 203q74 113 164 176q162 117 338 116q92 0 199 -55q20 -10 63 -31q133 -66 211 -153q141 -160 141 -324zM1114 467v12q-156 141 -319 162q-16 -25 -17 -66q0 -16 4 -56t4 -60 q4 -2 9 -2q14 0 22 14q55 29 125 29q72 0 172 -33zM1165 518v66q-68 172 -286 280q-68 -76 -72 -162q92 -8 192 -67q29 -19 166 -117zM631 711q0 -31 -21 -41q-29 25 -28 102q0 16 14 16q35 1 35 -77zM463 618q0 -29 -17 -38q-20 6 -28 38q-2 27 -6 52q6 18 16 18 q35 0 35 -70z" />
<glyph unicode="y" horiz-adv-x="911" d="M0 627q0 326 147 446q29 -6 48 -45q16 -31 30 -63q23 -39 68 -119q53 20 121 20q74 0 155 -24q31 145 99 200q29 -2 69 -57q113 -158 113 -412q0 -168 -29 -274q-18 -74 -102 -158q-125 -123 -291 -123q-57 0 -92 13q-199 59 -264 190q-4 6 -19 55q-53 179 -53 351z M63 705q-10 -57 -10 -115q0 -301 164 -445q74 -66 180 -65q20 0 41 4q0 18 -7 59t-7 64q0 20 4 39q-4 10 -27.5 29.5t-23.5 31.5q0 10 10 19q14 -4 33 -4q27 0 76 12q20 -10 20 -33v-6q-39 -25 -39 -74q0 -23 9.5 -66.5t9.5 -66.5q152 33 243 195q10 18 25 53q20 68 20 229 q0 238 -96 381l-12 4q-12 -18 -43 -100q-23 -66 -64 -84q-59 23 -135 22q-55 0 -149 -14q-37 31 -72 96q-45 86 -61 107q-45 -61 -64 -164.5t-25 -107.5zM653 467q-8 0 -28.5 -3t-30.5 -3q-29 0 -68 53q16 -2 33 -2q102 0 164 59h6q4 0 16 -26v-6q2 -31 -29.5 -45.5 t-62.5 -26.5zM250 440q-68 0 -98 54l4 22q55 -14 108 -14q29 0 60 4q10 -12 10 -23q0 -16 -35 -30q-26 -13 -49 -13z" />
<glyph unicode="z" horiz-adv-x="1114" d="M451 104q-27 -49 -54 -100q-35 -61 -84 -61q-27 0 -62.5 22.5t-49.5 44.5v6q-2 29 26.5 73t32.5 65q-164 63 -240 182q2 4 3 10q0 8 -11.5 22.5t-11.5 22.5t8 17q35 68 103 202q14 37 36 86q27 39 105 125q266 293 559 326q12 -4 29 -4h22q16 2 23 2q51 0 51 -33 q0 -12 -8 -35.5t-8 -36.5q0 -8 2 -14q12 0 33.5 13.5t33.5 13.5q10 0 21 -6q43 -154 43 -252q0 -55 -11 -101q-4 -10 -10 -28q-8 -53 -35 -158q-25 -76 -75 -180q-43 -86 -86 -174q4 -8 -11 -27q-8 -10 -19 -12t-15 -4q-35 -8 -104 -11.5t-105 -11.5q-86 12 -131 16z M852 1057q-27 -98 -41 -201q80 27 158 70v49q-16 -4 -47 -34t-56 -28q-25 14 -24 37q0 14 12 43t12 43q0 10 -4 21h-10zM569 164q23 0 66 -3t65 -3q53 0 88 16q14 49 72 174q49 109 62 176q41 236 41 336v8l-113 -51q-8 0 -28.5 -5t-30.5 -5q-25 0 -37 22q27 127 39 218h-31 q-6 0 -55 -21q-127 -53 -252 -162q-27 -27 -80 -76q-16 -12 -51 -34q-127 -94 -170 -189q-14 -31 -52.5 -83t-50.5 -81q16 -35 74 -73q4 -2 65 -35q223 -115 361 -129q-5 0 18 0zM317 0q23 0 43 39q23 47 35 55v6q0 16 -30 23l-43 8q-27 -33 -64 -104q2 -6 26.5 -16.5 t32.5 -10.5zM440 707q0 39 35 81q41 51 119 52h27q41 -25 77 -84q2 -14 2 -29q0 -66 -37.5 -111t-101.5 -45q-16 0 -26 2q-53 16 -91 105q-4 11 -4 29zM500 682q0 -33 20 -53q18 -8 39 -8q39 0 74 26.5t35 65.5q0 29 -16.5 42t-33.5 27q-10 2 -20 2q-53 0 -86 -53 q-12 -16 -12 -49zM604 664q-12 0 -32.5 10t-26.5 12q-14 20 -15 39q0 49 54 49q53 0 71 -59q-12 -51 -51 -51zM612 725q-6 4 -10 4q-2 0 -27 -20q0 -4 5 -4q33 0 32 18v2zM668 362q-35 -12 -72 -12q-63 0 -137 39q-18 8 -125 76l-21 24q-14 16 -14 29q0 6 4 12 q86 -43 172 -88q100 -49 184 -51q10 -10 11 -24zM592 289q10 -10 10 -21v-4q-31 -4 -61 -4q-184 0 -324 141q0 8 -5 16.5t-5 10.5q0 6 4 10q141 -102 381 -149z" />
<glyph unicode="&#x2000;" horiz-adv-x="921" />
<glyph unicode="&#x2001;" horiz-adv-x="1843" />
<glyph unicode="&#x2002;" horiz-adv-x="921" />
<glyph unicode="&#x2003;" horiz-adv-x="1843" />
<glyph unicode="&#x2004;" horiz-adv-x="614" />
<glyph unicode="&#x2005;" horiz-adv-x="460" />
<glyph unicode="&#x2006;" horiz-adv-x="307" />
<glyph unicode="&#x2007;" horiz-adv-x="307" />
<glyph unicode="&#x2008;" horiz-adv-x="230" />
<glyph unicode="&#x2009;" horiz-adv-x="368" />
<glyph unicode="&#x200a;" horiz-adv-x="102" />
<glyph unicode="&#x202f;" horiz-adv-x="368" />
<glyph unicode="&#x205f;" horiz-adv-x="460" />
<glyph unicode="&#x25fc;" horiz-adv-x="993" d="M0 993h993v-993h-993v993z" />
</font>
</defs>
</svg>
